<ttFont>
    <TTGlyph name="A" xMin="-39" yMin="-8" xMax="545" yMax="669">
      <contour>
        <pt x="326" y="669" on="1"/>
        <pt x="417" y="669" on="1"/>
        <pt x="545" y="0" on="1"/>
        <pt x="423" y="0" on="1"/>
        <pt x="394" y="180" on="1"/>
        <pt x="170" y="180" on="1"/>
        <pt x="75" y="-8" on="1"/>
        <pt x="-39" y="19" on="1"/>
      </contour>
      <contour>
        <pt x="368" y="348" on="0"/>
        <pt x="352" y="487" on="0"/>
        <pt x="347" y="529" on="1"/>
        <pt x="324" y="485" on="0"/>
        <pt x="253" y="347" on="0"/>
        <pt x="211" y="263" on="1"/>
        <pt x="382" y="263" on="1"/>
      </contour>
    </TTGlyph>
    <TTGlyph name="AE" xMin="-45" yMin="-13" xMax="832" yMax="669">
      <contour>
        <pt x="374" y="185" on="1"/>
        <pt x="199" y="185" on="1"/>
        <pt x="73" y="-13" on="1"/>
        <pt x="-45" y="20" on="1"/>
        <pt x="400" y="669" on="1"/>
        <pt x="832" y="669" on="1"/>
        <pt x="815" y="585" on="1"/>
        <pt x="566" y="585" on="1"/>
        <pt x="529" y="393" on="1"/>
        <pt x="726" y="393" on="1"/>
        <pt x="708" y="310" on="1"/>
        <pt x="513" y="310" on="1"/>
        <pt x="469" y="84" on="1"/>
        <pt x="726" y="84" on="1"/>
        <pt x="726" y="0" on="1"/>
        <pt x="338" y="0" on="1"/>
      </contour>
      <contour>
        <pt x="254" y="269" on="1"/>
        <pt x="390" y="269" on="1"/>
        <pt x="451" y="585" on="1"/>
        <pt x="447" y="585" on="1"/>
        <pt x="446" y="583" on="0"/>
        <pt x="420" y="538" on="0"/>
        <pt x="373" y="459" on="0"/>
        <pt x="307" y="351" on="0"/>
        <pt x="265" y="286" on="1"/>
      </contour>
    </TTGlyph>
    <TTGlyph name="Aacute" xMin="-40" yMin="-8" xMax="584" yMax="921">
      <contour>
        <pt x="-40" y="19" on="1"/>
        <pt x="75" y="-8" on="1"/>
        <pt x="169" y="180" on="1"/>
        <pt x="394" y="180" on="1"/>
        <pt x="422" y="0" on="1"/>
        <pt x="545" y="0" on="1"/>
        <pt x="417" y="669" on="1"/>
        <pt x="325" y="669" on="1"/>
      </contour>
      <contour>
        <pt x="381" y="263" on="1"/>
        <pt x="210" y="263" on="1"/>
        <pt x="252" y="347" on="0"/>
        <pt x="324" y="485" on="0"/>
        <pt x="347" y="529" on="1"/>
        <pt x="352" y="487" on="0"/>
        <pt x="368" y="348" on="0"/>
      </contour>
      <contour>
        <pt x="365" y="713" on="1"/>
        <pt x="404" y="739" on="0"/>
        <pt x="443" y="764" on="1"/>
        <pt x="476" y="785" on="0"/>
        <pt x="552" y="828" on="0"/>
        <pt x="584" y="842" on="1"/>
        <pt x="581" y="856" on="0"/>
        <pt x="565" y="884" on="0"/>
        <pt x="556" y="895" on="1"/>
        <pt x="545" y="908" on="0"/>
        <pt x="534" y="921" on="1"/>
        <pt x="500" y="905" on="0"/>
        <pt x="429" y="854" on="0"/>
        <pt x="399" y="830" on="1"/>
        <pt x="364" y="802" on="0"/>
        <pt x="330" y="771" on="1"/>
      </contour>
    </TTGlyph>
    <TTGlyph name="Acircumflex" xMin="-40" yMin="-8" xMax="570" yMax="913">
      <contour>
        <pt x="-40" y="19" on="1"/>
        <pt x="75" y="-8" on="1"/>
        <pt x="169" y="180" on="1"/>
        <pt x="394" y="180" on="1"/>
        <pt x="422" y="0" on="1"/>
        <pt x="545" y="0" on="1"/>
        <pt x="417" y="669" on="1"/>
        <pt x="325" y="669" on="1"/>
      </contour>
      <contour>
        <pt x="381" y="263" on="1"/>
        <pt x="210" y="263" on="1"/>
        <pt x="252" y="347" on="0"/>
        <pt x="324" y="485" on="0"/>
        <pt x="347" y="529" on="1"/>
        <pt x="352" y="487" on="0"/>
        <pt x="368" y="348" on="0"/>
      </contour>
      <contour>
        <pt x="232" y="705" on="1"/>
        <pt x="257" y="720" on="0"/>
        <pt x="283" y="736" on="1"/>
        <pt x="306" y="750" on="0"/>
        <pt x="362" y="781" on="0"/>
        <pt x="391" y="797" on="1"/>
        <pt x="415" y="774" on="0"/>
        <pt x="466" y="740" on="0"/>
        <pt x="487" y="728" on="1"/>
        <pt x="512" y="714" on="0"/>
        <pt x="534" y="703" on="1"/>
        <pt x="570" y="758" on="1"/>
        <pt x="544" y="779" on="0"/>
        <pt x="517" y="805" on="1"/>
        <pt x="494" y="827" on="0"/>
        <pt x="438" y="882" on="0"/>
        <pt x="412" y="913" on="1"/>
        <pt x="378" y="897" on="0"/>
        <pt x="303" y="846" on="0"/>
        <pt x="271" y="822" on="1"/>
        <pt x="233" y="794" on="0"/>
        <pt x="197" y="763" on="1"/>
      </contour>
    </TTGlyph>
    <TTGlyph name="Adieresis" xMin="-40" yMin="-8" xMax="551" yMax="860">
      <contour>
        <pt x="-40" y="19" on="1"/>
        <pt x="75" y="-8" on="1"/>
        <pt x="169" y="180" on="1"/>
        <pt x="394" y="180" on="1"/>
        <pt x="422" y="0" on="1"/>
        <pt x="545" y="0" on="1"/>
        <pt x="417" y="669" on="1"/>
        <pt x="325" y="669" on="1"/>
      </contour>
      <contour>
        <pt x="381" y="263" on="1"/>
        <pt x="210" y="263" on="1"/>
        <pt x="252" y="347" on="0"/>
        <pt x="324" y="485" on="0"/>
        <pt x="347" y="529" on="1"/>
        <pt x="352" y="487" on="0"/>
        <pt x="368" y="348" on="0"/>
      </contour>
      <contour>
        <pt x="306" y="860" on="1"/>
        <pt x="275" y="860" on="0"/>
        <pt x="241" y="819" on="0"/>
        <pt x="241" y="792" on="1"/>
        <pt x="241" y="767" on="0"/>
        <pt x="267" y="735" on="0"/>
        <pt x="296" y="735" on="1"/>
        <pt x="327" y="735" on="0"/>
        <pt x="362" y="775" on="0"/>
        <pt x="362" y="801" on="1"/>
        <pt x="362" y="828" on="0"/>
        <pt x="335" y="860" on="0"/>
      </contour>
      <contour>
        <pt x="495" y="860" on="1"/>
        <pt x="464" y="860" on="0"/>
        <pt x="430" y="819" on="0"/>
        <pt x="430" y="792" on="1"/>
        <pt x="430" y="767" on="0"/>
        <pt x="456" y="735" on="0"/>
        <pt x="485" y="735" on="1"/>
        <pt x="516" y="735" on="0"/>
        <pt x="551" y="775" on="0"/>
        <pt x="551" y="801" on="1"/>
        <pt x="551" y="828" on="0"/>
        <pt x="524" y="860" on="0"/>
      </contour>
    </TTGlyph>
    <TTGlyph name="Agrave" xMin="-40" yMin="-8" xMax="545" yMax="921">
      <contour>
        <pt x="-40" y="19" on="1"/>
        <pt x="75" y="-8" on="1"/>
        <pt x="169" y="180" on="1"/>
        <pt x="394" y="180" on="1"/>
        <pt x="422" y="0" on="1"/>
        <pt x="545" y="0" on="1"/>
        <pt x="417" y="669" on="1"/>
        <pt x="325" y="669" on="1"/>
      </contour>
      <contour>
        <pt x="381" y="263" on="1"/>
        <pt x="210" y="263" on="1"/>
        <pt x="252" y="347" on="0"/>
        <pt x="324" y="485" on="0"/>
        <pt x="347" y="529" on="1"/>
        <pt x="352" y="487" on="0"/>
        <pt x="368" y="348" on="0"/>
      </contour>
      <contour>
        <pt x="411" y="766" on="1"/>
        <pt x="379" y="786" on="0"/>
        <pt x="347" y="811" on="1"/>
        <pt x="320" y="832" on="0"/>
        <pt x="258" y="888" on="0"/>
        <pt x="233" y="921" on="1"/>
        <pt x="216" y="908" on="0"/>
        <pt x="194" y="881" on="0"/>
        <pt x="186" y="870" on="1"/>
        <pt x="177" y="857" on="0"/>
        <pt x="172" y="843" on="1"/>
        <pt x="195" y="811" on="0"/>
        <pt x="265" y="763" on="0"/>
        <pt x="297" y="746" on="1"/>
        <pt x="335" y="727" on="0"/>
        <pt x="375" y="712" on="1"/>
      </contour>
    </TTGlyph>
    <TTGlyph name="Aring" xMin="-40" yMin="-8" xMax="545" yMax="820">
      <contour>
        <pt x="-40" y="19" on="1"/>
        <pt x="75" y="-8" on="1"/>
        <pt x="169" y="180" on="1"/>
        <pt x="394" y="180" on="1"/>
        <pt x="422" y="0" on="1"/>
        <pt x="545" y="0" on="1"/>
        <pt x="423" y="637" on="1"/>
        <pt x="449" y="654" on="0"/>
        <pt x="478" y="710" on="0"/>
        <pt x="478" y="742" on="1"/>
        <pt x="478" y="777" on="0"/>
        <pt x="436" y="820" on="0"/>
        <pt x="400" y="820" on="1"/>
        <pt x="374" y="820" on="0"/>
        <pt x="330" y="799" on="0"/>
        <pt x="299" y="765" on="0"/>
        <pt x="282" y="720" on="0"/>
        <pt x="282" y="696" on="1"/>
        <pt x="282" y="658" on="0"/>
        <pt x="307" y="636" on="1"/>
      </contour>
      <contour>
        <pt x="381" y="263" on="1"/>
        <pt x="210" y="263" on="1"/>
        <pt x="252" y="347" on="0"/>
        <pt x="324" y="485" on="0"/>
        <pt x="347" y="529" on="1"/>
        <pt x="352" y="487" on="0"/>
        <pt x="368" y="348" on="0"/>
      </contour>
      <contour>
        <pt x="389" y="769" on="1"/>
        <pt x="406" y="769" on="0"/>
        <pt x="424" y="749" on="0"/>
        <pt x="424" y="733" on="1"/>
        <pt x="424" y="707" on="0"/>
        <pt x="393" y="669" on="0"/>
        <pt x="370" y="669" on="1"/>
        <pt x="354" y="669" on="0"/>
        <pt x="336" y="689" on="0"/>
        <pt x="336" y="705" on="1"/>
        <pt x="336" y="729" on="0"/>
        <pt x="364" y="769" on="0"/>
      </contour>
    </TTGlyph>
    <TTGlyph name="Atilde" xMin="-40" yMin="-8" xMax="566" yMax="860">
      <contour>
        <pt x="-40" y="19" on="1"/>
        <pt x="75" y="-8" on="1"/>
        <pt x="169" y="180" on="1"/>
        <pt x="394" y="180" on="1"/>
        <pt x="422" y="0" on="1"/>
        <pt x="545" y="0" on="1"/>
        <pt x="417" y="669" on="1"/>
        <pt x="325" y="669" on="1"/>
      </contour>
      <contour>
        <pt x="381" y="263" on="1"/>
        <pt x="210" y="263" on="1"/>
        <pt x="252" y="347" on="0"/>
        <pt x="324" y="485" on="0"/>
        <pt x="347" y="529" on="1"/>
        <pt x="352" y="487" on="0"/>
        <pt x="368" y="348" on="0"/>
      </contour>
      <contour>
        <pt x="228" y="756" on="1"/>
        <pt x="240" y="759" on="0"/>
        <pt x="253" y="763" on="1"/>
        <pt x="264" y="766" on="0"/>
        <pt x="295" y="771" on="0"/>
        <pt x="312" y="771" on="1"/>
        <pt x="350" y="771" on="0"/>
        <pt x="427" y="750" on="0"/>
        <pt x="464" y="750" on="1"/>
        <pt x="481" y="750" on="0"/>
        <pt x="513" y="757" on="0"/>
        <pt x="525" y="762" on="1"/>
        <pt x="539" y="767" on="0"/>
        <pt x="550" y="774" on="1"/>
        <pt x="566" y="854" on="1"/>
        <pt x="554" y="850" on="0"/>
        <pt x="541" y="846" on="1"/>
        <pt x="530" y="843" on="0"/>
        <pt x="498" y="839" on="0"/>
        <pt x="481" y="839" on="1"/>
        <pt x="444" y="839" on="0"/>
        <pt x="367" y="860" on="0"/>
        <pt x="329" y="860" on="1"/>
        <pt x="312" y="860" on="0"/>
        <pt x="280" y="853" on="0"/>
        <pt x="269" y="848" on="1"/>
        <pt x="255" y="843" on="0"/>
        <pt x="244" y="836" on="1"/>
      </contour>
    </TTGlyph>
    <TTGlyph name="B" xMin="15" yMin="-1" xMax="534" yMax="675">
      <contour>
        <pt x="145" y="673" on="1"/>
        <pt x="237" y="665" on="1"/>
        <pt x="254" y="669" on="0"/>
        <pt x="304" y="675" on="0"/>
        <pt x="334" y="675" on="1"/>
        <pt x="378" y="675" on="0"/>
        <pt x="452" y="660" on="0"/>
        <pt x="505" y="626" on="0"/>
        <pt x="534" y="570" on="0"/>
        <pt x="534" y="529" on="1"/>
        <pt x="534" y="467" on="0"/>
        <pt x="464" y="379" on="0"/>
        <pt x="410" y="353" on="1"/>
        <pt x="455" y="334" on="0"/>
        <pt x="498" y="266" on="0"/>
        <pt x="498" y="219" on="1"/>
        <pt x="498" y="167" on="0"/>
        <pt x="453" y="86" on="0"/>
        <pt x="374" y="29" on="0"/>
        <pt x="267" y="-1" on="0"/>
        <pt x="205" y="-1" on="1"/>
        <pt x="179" y="-1" on="0"/>
        <pt x="121" y="-1" on="0"/>
        <pt x="71" y="0" on="0"/>
        <pt x="37" y="0" on="0"/>
        <pt x="36" y="0" on="1"/>
        <pt x="15" y="0" on="1"/>
      </contour>
      <contour>
        <pt x="189" y="304" on="1"/>
        <pt x="146" y="79" on="1"/>
        <pt x="196" y="79" on="1"/>
        <pt x="277" y="79" on="0"/>
        <pt x="373" y="148" on="0"/>
        <pt x="373" y="206" on="1"/>
        <pt x="373" y="228" on="0"/>
        <pt x="363" y="264" on="0"/>
        <pt x="337" y="290" on="0"/>
        <pt x="293" y="304" on="0"/>
        <pt x="260" y="304" on="1"/>
      </contour>
      <contour>
        <pt x="287" y="595" on="0"/>
        <pt x="258" y="593" on="0"/>
        <pt x="245" y="591" on="1"/>
        <pt x="206" y="389" on="1"/>
        <pt x="246" y="389" on="1"/>
        <pt x="292" y="389" on="0"/>
        <pt x="354" y="407" on="0"/>
        <pt x="393" y="439" on="0"/>
        <pt x="410" y="481" on="0"/>
        <pt x="410" y="505" on="1"/>
        <pt x="410" y="545" on="0"/>
        <pt x="362" y="595" on="0"/>
        <pt x="304" y="595" on="1"/>
      </contour>
    </TTGlyph>
    <TTGlyph name="C" xMin="40" yMin="-13" xMax="528" yMax="682">
      <contour>
        <pt x="439" y="538" on="1"/>
        <pt x="437" y="547" on="0"/>
        <pt x="429" y="568" on="0"/>
        <pt x="414" y="584" on="0"/>
        <pt x="391" y="595" on="0"/>
        <pt x="374" y="595" on="1"/>
        <pt x="320" y="595" on="0"/>
        <pt x="243" y="522" on="0"/>
        <pt x="192" y="412" on="0"/>
        <pt x="168" y="283" on="0"/>
        <pt x="168" y="226" on="1"/>
        <pt x="168" y="193" on="0"/>
        <pt x="180" y="138" on="0"/>
        <pt x="210" y="97" on="0"/>
        <pt x="258" y="74" on="0"/>
        <pt x="294" y="74" on="1"/>
        <pt x="316" y="74" on="0"/>
        <pt x="349" y="77" on="0"/>
        <pt x="377" y="83" on="0"/>
        <pt x="403" y="91" on="0"/>
        <pt x="419" y="97" on="1"/>
        <pt x="437" y="21" on="1"/>
        <pt x="403" y="6" on="0"/>
        <pt x="324" y="-13" on="0"/>
        <pt x="260" y="-13" on="1"/>
        <pt x="144" y="-13" on="0"/>
        <pt x="40" y="103" on="0"/>
        <pt x="40" y="208" on="1"/>
        <pt x="40" y="298" on="0"/>
        <pt x="84" y="469" on="0"/>
        <pt x="172" y="602" on="0"/>
        <pt x="304" y="682" on="0"/>
        <pt x="393" y="682" on="1"/>
        <pt x="427" y="682" on="0"/>
        <pt x="476" y="664" on="0"/>
        <pt x="507" y="635" on="0"/>
        <pt x="525" y="598" on="0"/>
        <pt x="528" y="578" on="1"/>
      </contour>
    </TTGlyph>
    <TTGlyph name="Ccedilla" xMin="40" yMin="-219" xMax="528" yMax="682">
      <contour>
        <pt x="528" y="578" on="1"/>
        <pt x="525" y="598" on="0"/>
        <pt x="507" y="635" on="0"/>
        <pt x="476" y="664" on="0"/>
        <pt x="427" y="682" on="0"/>
        <pt x="393" y="682" on="1"/>
        <pt x="304" y="682" on="0"/>
        <pt x="172" y="602" on="0"/>
        <pt x="84" y="469" on="0"/>
        <pt x="40" y="298" on="0"/>
        <pt x="40" y="208" on="1"/>
        <pt x="40" y="109" on="0"/>
        <pt x="129" y="-4" on="0"/>
        <pt x="231" y="-12" on="1"/>
        <pt x="215" y="-39" on="0"/>
        <pt x="215" y="-54" on="1"/>
        <pt x="215" y="-71" on="0"/>
        <pt x="237" y="-89" on="0"/>
        <pt x="262" y="-102" on="0"/>
        <pt x="284" y="-117" on="0"/>
        <pt x="284" y="-132" on="1"/>
        <pt x="284" y="-146" on="0"/>
        <pt x="255" y="-159" on="0"/>
        <pt x="236" y="-159" on="1"/>
        <pt x="214" y="-159" on="0"/>
        <pt x="181" y="-144" on="0"/>
        <pt x="169" y="-136" on="1"/>
        <pt x="140" y="-191" on="1"/>
        <pt x="160" y="-205" on="0"/>
        <pt x="210" y="-219" on="0"/>
        <pt x="235" y="-219" on="1"/>
        <pt x="259" y="-219" on="0"/>
        <pt x="304" y="-209" on="0"/>
        <pt x="340" y="-186" on="0"/>
        <pt x="362" y="-148" on="0"/>
        <pt x="362" y="-121" on="1"/>
        <pt x="362" y="-101" on="0"/>
        <pt x="339" y="-77" on="0"/>
        <pt x="311" y="-59" on="0"/>
        <pt x="288" y="-44" on="0"/>
        <pt x="288" y="-33" on="1"/>
        <pt x="288" y="-29" on="0"/>
        <pt x="290" y="-18" on="0"/>
        <pt x="293" y="-12" on="1"/>
        <pt x="342" y="-10" on="0"/>
        <pt x="408" y="8" on="0"/>
        <pt x="437" y="21" on="1"/>
        <pt x="419" y="97" on="1"/>
        <pt x="403" y="91" on="0"/>
        <pt x="377" y="83" on="0"/>
        <pt x="349" y="77" on="0"/>
        <pt x="316" y="74" on="0"/>
        <pt x="294" y="74" on="1"/>
        <pt x="258" y="74" on="0"/>
        <pt x="210" y="97" on="0"/>
        <pt x="180" y="138" on="0"/>
        <pt x="168" y="193" on="0"/>
        <pt x="168" y="226" on="1"/>
        <pt x="168" y="283" on="0"/>
        <pt x="192" y="412" on="0"/>
        <pt x="243" y="522" on="0"/>
        <pt x="320" y="595" on="0"/>
        <pt x="374" y="595" on="1"/>
        <pt x="391" y="595" on="0"/>
        <pt x="414" y="584" on="0"/>
        <pt x="429" y="568" on="0"/>
        <pt x="437" y="547" on="0"/>
        <pt x="439" y="538" on="1"/>
      </contour>
    </TTGlyph>
    <TTGlyph name="D" xMin="15" yMin="-2" xMax="607" yMax="682">
      <contour>
        <pt x="145" y="673" on="1"/>
        <pt x="234" y="666" on="1"/>
        <pt x="269" y="674" on="0"/>
        <pt x="349" y="682" on="0"/>
        <pt x="387" y="682" on="1"/>
        <pt x="503" y="682" on="0"/>
        <pt x="607" y="566" on="0"/>
        <pt x="607" y="461" on="1"/>
        <pt x="607" y="360" on="0"/>
        <pt x="567" y="191" on="0"/>
        <pt x="471" y="67" on="0"/>
        <pt x="314" y="-2" on="0"/>
        <pt x="197" y="-2" on="1"/>
        <pt x="167" y="-2" on="0"/>
        <pt x="112" y="-1" on="0"/>
        <pt x="69" y="-1" on="0"/>
        <pt x="42" y="0" on="0"/>
        <pt x="41" y="0" on="1"/>
        <pt x="15" y="0" on="1"/>
      </contour>
      <contour>
        <pt x="321" y="595" on="0"/>
        <pt x="266" y="589" on="0"/>
        <pt x="243" y="581" on="1"/>
        <pt x="147" y="88" on="1"/>
        <pt x="217" y="88" on="1"/>
        <pt x="292" y="88" on="0"/>
        <pt x="392" y="148" on="0"/>
        <pt x="453" y="247" on="0"/>
        <pt x="479" y="376" on="0"/>
        <pt x="479" y="444" on="1"/>
        <pt x="479" y="477" on="0"/>
        <pt x="467" y="532" on="0"/>
        <pt x="437" y="572" on="0"/>
        <pt x="389" y="595" on="0"/>
        <pt x="353" y="595" on="1"/>
      </contour>
    </TTGlyph>
    <TTGlyph name="E" xMin="15" yMin="0" xMax="530" yMax="669">
      <contour>
        <pt x="145" y="669" on="1"/>
        <pt x="530" y="669" on="1"/>
        <pt x="513" y="585" on="1"/>
        <pt x="244" y="585" on="1"/>
        <pt x="207" y="393" on="1"/>
        <pt x="424" y="393" on="1"/>
        <pt x="406" y="310" on="1"/>
        <pt x="191" y="310" on="1"/>
        <pt x="147" y="84" on="1"/>
        <pt x="424" y="84" on="1"/>
        <pt x="424" y="0" on="1"/>
        <pt x="15" y="0" on="1"/>
      </contour>
    </TTGlyph>
    <TTGlyph name="Eacute" xMin="15" yMin="0" xMax="541" yMax="921">
      <contour>
        <pt x="15" y="0" on="1"/>
        <pt x="424" y="0" on="1"/>
        <pt x="424" y="84" on="1"/>
        <pt x="147" y="84" on="1"/>
        <pt x="191" y="310" on="1"/>
        <pt x="406" y="310" on="1"/>
        <pt x="424" y="393" on="1"/>
        <pt x="207" y="393" on="1"/>
        <pt x="244" y="585" on="1"/>
        <pt x="513" y="585" on="1"/>
        <pt x="530" y="669" on="1"/>
        <pt x="145" y="669" on="1"/>
      </contour>
      <contour>
        <pt x="323" y="713" on="1"/>
        <pt x="361" y="739" on="0"/>
        <pt x="400" y="764" on="1"/>
        <pt x="433" y="785" on="0"/>
        <pt x="509" y="828" on="0"/>
        <pt x="541" y="842" on="1"/>
        <pt x="539" y="856" on="0"/>
        <pt x="522" y="884" on="0"/>
        <pt x="514" y="895" on="1"/>
        <pt x="503" y="908" on="0"/>
        <pt x="492" y="921" on="1"/>
        <pt x="458" y="905" on="0"/>
        <pt x="386" y="854" on="0"/>
        <pt x="356" y="830" on="1"/>
        <pt x="321" y="802" on="0"/>
        <pt x="287" y="771" on="1"/>
      </contour>
    </TTGlyph>
    <TTGlyph name="Ecircumflex" xMin="15" yMin="0" xMax="530" yMax="913">
      <contour>
        <pt x="15" y="0" on="1"/>
        <pt x="424" y="0" on="1"/>
        <pt x="424" y="84" on="1"/>
        <pt x="147" y="84" on="1"/>
        <pt x="191" y="310" on="1"/>
        <pt x="406" y="310" on="1"/>
        <pt x="424" y="393" on="1"/>
        <pt x="207" y="393" on="1"/>
        <pt x="244" y="585" on="1"/>
        <pt x="513" y="585" on="1"/>
        <pt x="530" y="669" on="1"/>
        <pt x="145" y="669" on="1"/>
      </contour>
      <contour>
        <pt x="190" y="705" on="1"/>
        <pt x="215" y="720" on="0"/>
        <pt x="241" y="736" on="1"/>
        <pt x="264" y="750" on="0"/>
        <pt x="320" y="781" on="0"/>
        <pt x="349" y="797" on="1"/>
        <pt x="373" y="774" on="0"/>
        <pt x="423" y="740" on="0"/>
        <pt x="444" y="728" on="1"/>
        <pt x="468" y="714" on="0"/>
        <pt x="491" y="703" on="1"/>
        <pt x="528" y="758" on="1"/>
        <pt x="502" y="779" on="0"/>
        <pt x="475" y="805" on="1"/>
        <pt x="452" y="827" on="0"/>
        <pt x="395" y="882" on="0"/>
        <pt x="369" y="913" on="1"/>
        <pt x="335" y="897" on="0"/>
        <pt x="260" y="846" on="0"/>
        <pt x="228" y="822" on="1"/>
        <pt x="190" y="794" on="0"/>
        <pt x="154" y="763" on="1"/>
      </contour>
    </TTGlyph>
    <TTGlyph name="Edieresis" xMin="15" yMin="0" xMax="530" yMax="860">
      <contour>
        <pt x="15" y="0" on="1"/>
        <pt x="424" y="0" on="1"/>
        <pt x="424" y="84" on="1"/>
        <pt x="147" y="84" on="1"/>
        <pt x="191" y="310" on="1"/>
        <pt x="406" y="310" on="1"/>
        <pt x="424" y="393" on="1"/>
        <pt x="207" y="393" on="1"/>
        <pt x="244" y="585" on="1"/>
        <pt x="513" y="585" on="1"/>
        <pt x="530" y="669" on="1"/>
        <pt x="145" y="669" on="1"/>
      </contour>
      <contour>
        <pt x="263" y="860" on="1"/>
        <pt x="233" y="860" on="0"/>
        <pt x="198" y="819" on="0"/>
        <pt x="198" y="792" on="1"/>
        <pt x="198" y="767" on="0"/>
        <pt x="224" y="735" on="0"/>
        <pt x="253" y="735" on="1"/>
        <pt x="284" y="735" on="0"/>
        <pt x="320" y="775" on="0"/>
        <pt x="320" y="801" on="1"/>
        <pt x="320" y="828" on="0"/>
        <pt x="292" y="860" on="0"/>
      </contour>
      <contour>
        <pt x="452" y="860" on="1"/>
        <pt x="422" y="860" on="0"/>
        <pt x="387" y="819" on="0"/>
        <pt x="387" y="792" on="1"/>
        <pt x="387" y="767" on="0"/>
        <pt x="413" y="735" on="0"/>
        <pt x="442" y="735" on="1"/>
        <pt x="473" y="735" on="0"/>
        <pt x="509" y="775" on="0"/>
        <pt x="509" y="801" on="1"/>
        <pt x="509" y="828" on="0"/>
        <pt x="481" y="860" on="0"/>
      </contour>
    </TTGlyph>
    <TTGlyph name="Egrave" xMin="15" yMin="0" xMax="530" yMax="921">
      <contour>
        <pt x="15" y="0" on="1"/>
        <pt x="424" y="0" on="1"/>
        <pt x="424" y="84" on="1"/>
        <pt x="147" y="84" on="1"/>
        <pt x="191" y="310" on="1"/>
        <pt x="406" y="310" on="1"/>
        <pt x="424" y="393" on="1"/>
        <pt x="207" y="393" on="1"/>
        <pt x="244" y="585" on="1"/>
        <pt x="513" y="585" on="1"/>
        <pt x="530" y="669" on="1"/>
        <pt x="145" y="669" on="1"/>
      </contour>
      <contour>
        <pt x="368" y="766" on="1"/>
        <pt x="336" y="786" on="0"/>
        <pt x="304" y="811" on="1"/>
        <pt x="277" y="832" on="0"/>
        <pt x="215" y="888" on="0"/>
        <pt x="190" y="921" on="1"/>
        <pt x="173" y="908" on="0"/>
        <pt x="151" y="881" on="0"/>
        <pt x="143" y="870" on="1"/>
        <pt x="134" y="857" on="0"/>
        <pt x="129" y="843" on="1"/>
        <pt x="153" y="811" on="0"/>
        <pt x="222" y="763" on="0"/>
        <pt x="254" y="746" on="1"/>
        <pt x="292" y="727" on="0"/>
        <pt x="332" y="712" on="1"/>
      </contour>
    </TTGlyph>
    <TTGlyph name="Eth" xMin="6" yMin="-2" xMax="606" yMax="682">
      <contour>
        <pt x="6" y="304" on="1"/>
        <pt x="73" y="304" on="1"/>
        <pt x="15" y="0" on="1"/>
        <pt x="41" y="0" on="1"/>
        <pt x="42" y="0" on="0"/>
        <pt x="69" y="-1" on="0"/>
        <pt x="112" y="-1" on="0"/>
        <pt x="167" y="-2" on="0"/>
        <pt x="197" y="-2" on="1"/>
        <pt x="314" y="-2" on="0"/>
        <pt x="471" y="67" on="0"/>
        <pt x="566" y="191" on="0"/>
        <pt x="606" y="360" on="0"/>
        <pt x="606" y="461" on="1"/>
        <pt x="606" y="566" on="0"/>
        <pt x="503" y="682" on="0"/>
        <pt x="387" y="682" on="1"/>
        <pt x="349" y="682" on="0"/>
        <pt x="269" y="674" on="0"/>
        <pt x="234" y="666" on="1"/>
        <pt x="145" y="673" on="1"/>
        <pt x="90" y="391" on="1"/>
        <pt x="23" y="391" on="1"/>
      </contour>
      <contour>
        <pt x="353" y="595" on="1"/>
        <pt x="389" y="595" on="0"/>
        <pt x="437" y="572" on="0"/>
        <pt x="467" y="532" on="0"/>
        <pt x="479" y="477" on="0"/>
        <pt x="479" y="444" on="1"/>
        <pt x="479" y="376" on="0"/>
        <pt x="453" y="247" on="0"/>
        <pt x="392" y="148" on="0"/>
        <pt x="292" y="88" on="0"/>
        <pt x="217" y="88" on="1"/>
        <pt x="147" y="88" on="1"/>
        <pt x="189" y="304" on="1"/>
        <pt x="364" y="304" on="1"/>
        <pt x="380" y="391" on="1"/>
        <pt x="206" y="391" on="1"/>
        <pt x="243" y="581" on="1"/>
        <pt x="266" y="589" on="0"/>
        <pt x="320" y="595" on="0"/>
      </contour>
    </TTGlyph>
    <TTGlyph name="Euro" xMin="25" yMin="-6" xMax="545" yMax="643">
      <contour>
        <pt x="54" y="336" on="1"/>
        <pt x="104" y="336" on="1"/>
        <pt x="100" y="319" on="0"/>
        <pt x="96" y="289" on="0"/>
        <pt x="94" y="273" on="1"/>
        <pt x="42" y="273" on="1"/>
        <pt x="25" y="186" on="1"/>
        <pt x="91" y="186" on="1"/>
        <pt x="97" y="92" on="0"/>
        <pt x="190" y="-6" on="0"/>
        <pt x="270" y="-6" on="1"/>
        <pt x="327" y="-6" on="0"/>
        <pt x="412" y="16" on="0"/>
        <pt x="446" y="30" on="1"/>
        <pt x="426" y="100" on="1"/>
        <pt x="403" y="89" on="0"/>
        <pt x="344" y="74" on="0"/>
        <pt x="307" y="74" on="1"/>
        <pt x="263" y="74" on="0"/>
        <pt x="213" y="137" on="0"/>
        <pt x="205" y="186" on="1"/>
        <pt x="369" y="186" on="1"/>
        <pt x="399" y="273" on="1"/>
        <pt x="204" y="273" on="1"/>
        <pt x="206" y="288" on="0"/>
        <pt x="211" y="319" on="0"/>
        <pt x="215" y="336" on="1"/>
        <pt x="422" y="336" on="1"/>
        <pt x="452" y="423" on="1"/>
        <pt x="244" y="423" on="1"/>
        <pt x="255" y="450" on="0"/>
        <pt x="284" y="498" on="0"/>
        <pt x="320" y="535" on="0"/>
        <pt x="362" y="556" on="0"/>
        <pt x="387" y="556" on="1"/>
        <pt x="419" y="556" on="0"/>
        <pt x="455" y="532" on="0"/>
        <pt x="469" y="506" on="1"/>
        <pt x="545" y="555" on="1"/>
        <pt x="531" y="596" on="0"/>
        <pt x="469" y="643" on="0"/>
        <pt x="414" y="643" on="1"/>
        <pt x="361" y="643" on="0"/>
        <pt x="273" y="608" on="0"/>
        <pt x="203" y="548" on="0"/>
        <pt x="150" y="468" on="0"/>
        <pt x="132" y="423" on="1"/>
        <pt x="71" y="423" on="1"/>
      </contour>
    </TTGlyph>
    <TTGlyph name="F" xMin="15" yMin="0" xMax="530" yMax="669">
      <contour>
        <pt x="145" y="669" on="1"/>
        <pt x="530" y="669" on="1"/>
        <pt x="513" y="585" on="1"/>
        <pt x="244" y="585" on="1"/>
        <pt x="206" y="384" on="1"/>
        <pt x="424" y="384" on="1"/>
        <pt x="406" y="301" on="1"/>
        <pt x="189" y="301" on="1"/>
        <pt x="131" y="0" on="1"/>
        <pt x="15" y="0" on="1"/>
      </contour>
    </TTGlyph>
    <TTGlyph name="G" xMin="36" yMin="-222" xMax="554" yMax="682">
      <contour>
        <pt x="404" y="83" on="1"/>
        <pt x="375" y="38" on="0"/>
        <pt x="278" y="-13" on="0"/>
        <pt x="221" y="-13" on="1"/>
        <pt x="133" y="-13" on="0"/>
        <pt x="40" y="102" on="0"/>
        <pt x="40" y="208" on="1"/>
        <pt x="40" y="298" on="0"/>
        <pt x="85" y="469" on="0"/>
        <pt x="178" y="602" on="0"/>
        <pt x="320" y="682" on="0"/>
        <pt x="418" y="682" on="1"/>
        <pt x="452" y="682" on="0"/>
        <pt x="499" y="666" on="0"/>
        <pt x="531" y="639" on="0"/>
        <pt x="549" y="604" on="0"/>
        <pt x="554" y="584" on="1"/>
        <pt x="466" y="544" on="1"/>
        <pt x="462" y="553" on="0"/>
        <pt x="452" y="572" on="0"/>
        <pt x="434" y="586" on="0"/>
        <pt x="406" y="595" on="0"/>
        <pt x="385" y="595" on="1"/>
        <pt x="347" y="595" on="0"/>
        <pt x="284" y="561" on="0"/>
        <pt x="236" y="504" on="0"/>
        <pt x="201" y="429" on="0"/>
        <pt x="179" y="347" on="0"/>
        <pt x="168" y="263" on="0"/>
        <pt x="168" y="226" on="1"/>
        <pt x="168" y="193" on="0"/>
        <pt x="180" y="138" on="0"/>
        <pt x="204" y="97" on="0"/>
        <pt x="243" y="74" on="0"/>
        <pt x="270" y="74" on="1"/>
        <pt x="291" y="74" on="0"/>
        <pt x="338" y="95" on="0"/>
        <pt x="378" y="134" on="0"/>
        <pt x="410" y="188" on="0"/>
        <pt x="416" y="221" on="1"/>
        <pt x="437" y="328" on="1"/>
        <pt x="550" y="328" on="1"/>
        <pt x="480" y="-37" on="1"/>
        <pt x="472" y="-76" on="0"/>
        <pt x="433" y="-143" on="0"/>
        <pt x="371" y="-193" on="0"/>
        <pt x="290" y="-222" on="0"/>
        <pt x="242" y="-222" on="1"/>
        <pt x="213" y="-222" on="0"/>
        <pt x="154" y="-210" on="0"/>
        <pt x="100" y="-192" on="0"/>
        <pt x="53" y="-171" on="0"/>
        <pt x="36" y="-162" on="1"/>
        <pt x="77" y="-73" on="1"/>
        <pt x="96" y="-81" on="0"/>
        <pt x="139" y="-100" on="0"/>
        <pt x="184" y="-117" on="0"/>
        <pt x="232" y="-128" on="0"/>
        <pt x="255" y="-128" on="1"/>
        <pt x="302" y="-128" on="0"/>
        <pt x="369" y="-79" on="0"/>
        <pt x="377" y="-45" on="1"/>
      </contour>
    </TTGlyph>
    <TTGlyph name="H" xMin="5" yMin="0" xMax="631" yMax="669">
      <contour>
        <pt x="446" y="310" on="1"/>
        <pt x="181" y="310" on="1"/>
        <pt x="120" y="0" on="1"/>
        <pt x="5" y="0" on="1"/>
        <pt x="135" y="669" on="1"/>
        <pt x="250" y="669" on="1"/>
        <pt x="196" y="393" on="1"/>
        <pt x="462" y="393" on="1"/>
        <pt x="516" y="669" on="1"/>
        <pt x="631" y="669" on="1"/>
        <pt x="501" y="0" on="1"/>
        <pt x="386" y="0" on="1"/>
      </contour>
    </TTGlyph>
    <TTGlyph name="I" xMin="15" yMin="0" xMax="261" yMax="669">
      <contour>
        <pt x="145" y="669" on="1"/>
        <pt x="261" y="669" on="1"/>
        <pt x="131" y="0" on="1"/>
        <pt x="15" y="0" on="1"/>
      </contour>
    </TTGlyph>
    <TTGlyph name="Iacute" xMin="15" yMin="0" xMax="413" yMax="921">
      <contour>
        <pt x="15" y="0" on="1"/>
        <pt x="131" y="0" on="1"/>
        <pt x="261" y="669" on="1"/>
        <pt x="145" y="669" on="1"/>
      </contour>
      <contour>
        <pt x="195" y="713" on="1"/>
        <pt x="233" y="739" on="0"/>
        <pt x="272" y="764" on="1"/>
        <pt x="305" y="785" on="0"/>
        <pt x="381" y="828" on="0"/>
        <pt x="413" y="842" on="1"/>
        <pt x="411" y="856" on="0"/>
        <pt x="394" y="884" on="0"/>
        <pt x="386" y="895" on="1"/>
        <pt x="375" y="908" on="0"/>
        <pt x="364" y="921" on="1"/>
        <pt x="330" y="905" on="0"/>
        <pt x="258" y="854" on="0"/>
        <pt x="228" y="830" on="1"/>
        <pt x="193" y="802" on="0"/>
        <pt x="159" y="771" on="1"/>
      </contour>
    </TTGlyph>
    <TTGlyph name="Icircumflex" xMin="15" yMin="0" xMax="399" yMax="913">
      <contour>
        <pt x="15" y="0" on="1"/>
        <pt x="131" y="0" on="1"/>
        <pt x="261" y="669" on="1"/>
        <pt x="145" y="669" on="1"/>
      </contour>
      <contour>
        <pt x="62" y="705" on="1"/>
        <pt x="87" y="720" on="0"/>
        <pt x="113" y="736" on="1"/>
        <pt x="136" y="750" on="0"/>
        <pt x="192" y="781" on="0"/>
        <pt x="221" y="797" on="1"/>
        <pt x="245" y="774" on="0"/>
        <pt x="295" y="740" on="0"/>
        <pt x="316" y="728" on="1"/>
        <pt x="340" y="714" on="0"/>
        <pt x="363" y="703" on="1"/>
        <pt x="399" y="758" on="1"/>
        <pt x="373" y="779" on="0"/>
        <pt x="346" y="805" on="1"/>
        <pt x="323" y="827" on="0"/>
        <pt x="267" y="882" on="0"/>
        <pt x="241" y="913" on="1"/>
        <pt x="207" y="897" on="0"/>
        <pt x="132" y="846" on="0"/>
        <pt x="100" y="822" on="1"/>
        <pt x="62" y="794" on="0"/>
        <pt x="26" y="763" on="1"/>
      </contour>
    </TTGlyph>
    <TTGlyph name="Idieresis" xMin="15" yMin="0" xMax="381" yMax="860">
      <contour>
        <pt x="15" y="0" on="1"/>
        <pt x="131" y="0" on="1"/>
        <pt x="261" y="669" on="1"/>
        <pt x="145" y="669" on="1"/>
      </contour>
      <contour>
        <pt x="135" y="860" on="1"/>
        <pt x="105" y="860" on="0"/>
        <pt x="70" y="819" on="0"/>
        <pt x="70" y="792" on="1"/>
        <pt x="70" y="767" on="0"/>
        <pt x="96" y="735" on="0"/>
        <pt x="125" y="735" on="1"/>
        <pt x="156" y="735" on="0"/>
        <pt x="192" y="775" on="0"/>
        <pt x="192" y="801" on="1"/>
        <pt x="192" y="828" on="0"/>
        <pt x="164" y="860" on="0"/>
      </contour>
      <contour>
        <pt x="324" y="860" on="1"/>
        <pt x="294" y="860" on="0"/>
        <pt x="259" y="819" on="0"/>
        <pt x="259" y="792" on="1"/>
        <pt x="259" y="767" on="0"/>
        <pt x="285" y="735" on="0"/>
        <pt x="314" y="735" on="1"/>
        <pt x="345" y="735" on="0"/>
        <pt x="381" y="775" on="0"/>
        <pt x="381" y="801" on="1"/>
        <pt x="381" y="828" on="0"/>
        <pt x="353" y="860" on="0"/>
      </contour>
    </TTGlyph>
    <TTGlyph name="Igrave" xMin="1" yMin="0" xMax="261" yMax="921">
      <contour>
        <pt x="15" y="0" on="1"/>
        <pt x="131" y="0" on="1"/>
        <pt x="261" y="669" on="1"/>
        <pt x="145" y="669" on="1"/>
      </contour>
      <contour>
        <pt x="240" y="766" on="1"/>
        <pt x="208" y="786" on="0"/>
        <pt x="176" y="811" on="1"/>
        <pt x="149" y="832" on="0"/>
        <pt x="87" y="888" on="0"/>
        <pt x="62" y="921" on="1"/>
        <pt x="45" y="908" on="0"/>
        <pt x="23" y="881" on="0"/>
        <pt x="15" y="870" on="1"/>
        <pt x="6" y="857" on="0"/>
        <pt x="1" y="843" on="1"/>
        <pt x="25" y="811" on="0"/>
        <pt x="94" y="763" on="0"/>
        <pt x="126" y="746" on="1"/>
        <pt x="164" y="727" on="0"/>
        <pt x="204" y="712" on="1"/>
      </contour>
    </TTGlyph>
    <TTGlyph name="J" xMin="-115" yMin="-223" xMax="262" yMax="669">
      <contour>
        <pt x="147" y="669" on="1"/>
        <pt x="262" y="669" on="1"/>
        <pt x="137" y="25" on="1"/>
        <pt x="126" y="-30" on="0"/>
        <pt x="88" y="-106" on="0"/>
        <pt x="35" y="-161" on="0"/>
        <pt x="-34" y="-202" on="0"/>
        <pt x="-76" y="-223" on="1"/>
        <pt x="-115" y="-147" on="1"/>
        <pt x="-84" y="-132" on="0"/>
        <pt x="-39" y="-102" on="0"/>
        <pt x="-7" y="-64" on="0"/>
        <pt x="13" y="-17" on="0"/>
        <pt x="19" y="13" on="1"/>
      </contour>
    </TTGlyph>
    <TTGlyph name="K" xMin="15" yMin="-103" xMax="581" yMax="679">
      <contour>
        <pt x="576" y="665" on="0"/>
        <pt x="581" y="634" on="0"/>
        <pt x="581" y="619" on="1"/>
        <pt x="581" y="569" on="0"/>
        <pt x="531" y="478" on="0"/>
        <pt x="459" y="403" on="0"/>
        <pt x="378" y="349" on="0"/>
        <pt x="347" y="337" on="1"/>
        <pt x="356" y="298" on="0"/>
        <pt x="396" y="196" on="0"/>
        <pt x="450" y="90" on="0"/>
        <pt x="514" y="-13" on="0"/>
        <pt x="547" y="-52" on="1"/>
        <pt x="451" y="-103" on="1"/>
        <pt x="400" y="-38" on="0"/>
        <pt x="330" y="76" on="0"/>
        <pt x="277" y="187" on="0"/>
        <pt x="235" y="301" on="0"/>
        <pt x="213" y="366" on="1"/>
        <pt x="216" y="373" on="1"/>
        <pt x="258" y="388" on="0"/>
        <pt x="348" y="444" on="0"/>
        <pt x="422" y="511" on="0"/>
        <pt x="470" y="586" on="0"/>
        <pt x="470" y="621" on="1"/>
        <pt x="470" y="630" on="0"/>
        <pt x="466" y="648" on="0"/>
        <pt x="464" y="656" on="1"/>
        <pt x="568" y="679" on="1"/>
      </contour>
      <contour>
        <pt x="145" y="669" on="1"/>
        <pt x="262" y="669" on="1"/>
        <pt x="132" y="0" on="1"/>
        <pt x="15" y="0" on="1"/>
      </contour>
    </TTGlyph>
    <TTGlyph name="L" xMin="20" yMin="0" xMax="390" yMax="669">
      <contour>
        <pt x="150" y="669" on="1"/>
        <pt x="266" y="669" on="1"/>
        <pt x="151" y="84" on="1"/>
        <pt x="390" y="84" on="1"/>
        <pt x="390" y="0" on="1"/>
        <pt x="20" y="0" on="1"/>
      </contour>
    </TTGlyph>
    <TTGlyph name="M" xMin="10" yMin="-3" xMax="764" yMax="669">
      <contour>
        <pt x="609" y="255" on="1"/>
        <pt x="611" y="270" on="0"/>
        <pt x="619" y="313" on="0"/>
        <pt x="629" y="364" on="0"/>
        <pt x="640" y="420" on="0"/>
        <pt x="645" y="446" on="1"/>
        <pt x="631" y="420" on="0"/>
        <pt x="602" y="363" on="0"/>
        <pt x="573" y="312" on="0"/>
        <pt x="549" y="270" on="0"/>
        <pt x="542" y="258" on="1"/>
        <pt x="386" y="0" on="1"/>
        <pt x="305" y="0" on="1"/>
        <pt x="248" y="255" on="1"/>
        <pt x="245" y="268" on="0"/>
        <pt x="237" y="311" on="0"/>
        <pt x="227" y="362" on="0"/>
        <pt x="217" y="419" on="0"/>
        <pt x="212" y="445" on="1"/>
        <pt x="208" y="418" on="0"/>
        <pt x="200" y="361" on="0"/>
        <pt x="193" y="310" on="0"/>
        <pt x="186" y="269" on="0"/>
        <pt x="183" y="258" on="1"/>
        <pt x="126" y="-3" on="1"/>
        <pt x="10" y="14" on="1"/>
        <pt x="171" y="669" on="1"/>
        <pt x="265" y="669" on="1"/>
        <pt x="348" y="256" on="1"/>
        <pt x="353" y="230" on="0"/>
        <pt x="363" y="172" on="0"/>
        <pt x="367" y="143" on="1"/>
        <pt x="382" y="171" on="0"/>
        <pt x="412" y="229" on="0"/>
        <pt x="428" y="256" on="1"/>
        <pt x="671" y="669" on="1"/>
        <pt x="764" y="669" on="1"/>
        <pt x="689" y="0" on="1"/>
        <pt x="571" y="0" on="1"/>
      </contour>
    </TTGlyph>
    <TTGlyph name="N" xMin="15" yMin="-4" xMax="638" yMax="674">
      <contour>
        <pt x="527" y="674" on="1"/>
        <pt x="638" y="656" on="1"/>
        <pt x="514" y="-1" on="1"/>
        <pt x="425" y="-1" on="1"/>
        <pt x="264" y="343" on="1"/>
        <pt x="250" y="371" on="0"/>
        <pt x="220" y="444" on="0"/>
        <pt x="207" y="476" on="1"/>
        <pt x="204" y="444" on="0"/>
        <pt x="196" y="373" on="0"/>
        <pt x="190" y="341" on="1"/>
        <pt x="126" y="-4" on="1"/>
        <pt x="15" y="14" on="1"/>
        <pt x="139" y="669" on="1"/>
        <pt x="229" y="669" on="1"/>
        <pt x="386" y="329" on="1"/>
        <pt x="400" y="300" on="0"/>
        <pt x="431" y="225" on="0"/>
        <pt x="445" y="193" on="1"/>
        <pt x="449" y="228" on="0"/>
        <pt x="458" y="300" on="0"/>
        <pt x="463" y="326" on="1"/>
      </contour>
    </TTGlyph>
    <TTGlyph name="Ntilde" xMin="15" yMin="-4" xMax="638" yMax="860">
      <contour>
        <pt x="463" y="326" on="1"/>
        <pt x="458" y="300" on="0"/>
        <pt x="449" y="228" on="0"/>
        <pt x="445" y="193" on="1"/>
        <pt x="431" y="225" on="0"/>
        <pt x="400" y="300" on="0"/>
        <pt x="386" y="329" on="1"/>
        <pt x="229" y="669" on="1"/>
        <pt x="139" y="669" on="1"/>
        <pt x="15" y="14" on="1"/>
        <pt x="126" y="-4" on="1"/>
        <pt x="190" y="341" on="1"/>
        <pt x="196" y="373" on="0"/>
        <pt x="204" y="444" on="0"/>
        <pt x="207" y="476" on="1"/>
        <pt x="220" y="444" on="0"/>
        <pt x="250" y="371" on="0"/>
        <pt x="264" y="343" on="1"/>
        <pt x="425" y="-1" on="1"/>
        <pt x="514" y="-1" on="1"/>
        <pt x="638" y="656" on="1"/>
        <pt x="527" y="674" on="1"/>
      </contour>
      <contour>
        <pt x="245" y="756" on="1"/>
        <pt x="256" y="759" on="0"/>
        <pt x="270" y="763" on="1"/>
        <pt x="281" y="766" on="0"/>
        <pt x="313" y="771" on="0"/>
        <pt x="330" y="771" on="1"/>
        <pt x="367" y="771" on="0"/>
        <pt x="445" y="750" on="0"/>
        <pt x="482" y="750" on="1"/>
        <pt x="499" y="750" on="0"/>
        <pt x="530" y="757" on="0"/>
        <pt x="542" y="762" on="1"/>
        <pt x="555" y="767" on="0"/>
        <pt x="567" y="774" on="1"/>
        <pt x="583" y="854" on="1"/>
        <pt x="571" y="850" on="0"/>
        <pt x="558" y="846" on="1"/>
        <pt x="547" y="843" on="0"/>
        <pt x="516" y="839" on="0"/>
        <pt x="499" y="839" on="1"/>
        <pt x="461" y="839" on="0"/>
        <pt x="384" y="860" on="0"/>
        <pt x="347" y="860" on="1"/>
        <pt x="329" y="860" on="0"/>
        <pt x="298" y="853" on="0"/>
        <pt x="286" y="848" on="1"/>
        <pt x="272" y="843" on="0"/>
        <pt x="261" y="836" on="1"/>
      </contour>
    </TTGlyph>
    <TTGlyph name="O" xMin="40" yMin="-13" xMax="628" yMax="682">
      <contour>
        <pt x="524" y="682" on="0"/>
        <pt x="628" y="566" on="0"/>
        <pt x="628" y="461" on="1"/>
        <pt x="628" y="371" on="0"/>
        <pt x="584" y="200" on="0"/>
        <pt x="493" y="67" on="0"/>
        <pt x="354" y="-13" on="0"/>
        <pt x="260" y="-13" on="1"/>
        <pt x="144" y="-13" on="0"/>
        <pt x="40" y="103" on="0"/>
        <pt x="40" y="208" on="1"/>
        <pt x="40" y="298" on="0"/>
        <pt x="84" y="469" on="0"/>
        <pt x="175" y="602" on="0"/>
        <pt x="314" y="682" on="0"/>
        <pt x="408" y="682" on="1"/>
      </contour>
      <contour>
        <pt x="320" y="595" on="0"/>
        <pt x="243" y="522" on="0"/>
        <pt x="192" y="412" on="0"/>
        <pt x="168" y="283" on="0"/>
        <pt x="168" y="226" on="1"/>
        <pt x="168" y="193" on="0"/>
        <pt x="180" y="138" on="0"/>
        <pt x="210" y="97" on="0"/>
        <pt x="258" y="74" on="0"/>
        <pt x="294" y="74" on="1"/>
        <pt x="348" y="74" on="0"/>
        <pt x="425" y="147" on="0"/>
        <pt x="476" y="257" on="0"/>
        <pt x="500" y="387" on="0"/>
        <pt x="500" y="444" on="1"/>
        <pt x="500" y="476" on="0"/>
        <pt x="488" y="531" on="0"/>
        <pt x="458" y="572" on="0"/>
        <pt x="410" y="595" on="0"/>
        <pt x="374" y="595" on="1"/>
      </contour>
    </TTGlyph>
    <TTGlyph name="OE" xMin="40" yMin="-13" xMax="841" yMax="679">
      <contour>
        <pt x="350" y="0" on="1"/>
        <pt x="329" y="-6" on="0"/>
        <pt x="284" y="-13" on="0"/>
        <pt x="260" y="-13" on="1"/>
        <pt x="144" y="-13" on="0"/>
        <pt x="40" y="103" on="0"/>
        <pt x="40" y="208" on="1"/>
        <pt x="40" y="298" on="0"/>
        <pt x="84" y="468" on="0"/>
        <pt x="175" y="600" on="0"/>
        <pt x="314" y="679" on="0"/>
        <pt x="408" y="679" on="1"/>
        <pt x="431" y="679" on="0"/>
        <pt x="466" y="674" on="0"/>
        <pt x="480" y="669" on="1"/>
        <pt x="841" y="669" on="1"/>
        <pt x="823" y="585" on="1"/>
        <pt x="575" y="585" on="1"/>
        <pt x="538" y="393" on="1"/>
        <pt x="735" y="393" on="1"/>
        <pt x="717" y="310" on="1"/>
        <pt x="522" y="310" on="1"/>
        <pt x="478" y="84" on="1"/>
        <pt x="735" y="84" on="1"/>
        <pt x="735" y="0" on="1"/>
      </contour>
      <contour>
        <pt x="329" y="74" on="0"/>
        <pt x="362" y="83" on="1"/>
        <pt x="461" y="586" on="1"/>
        <pt x="438" y="590" on="0"/>
        <pt x="394" y="595" on="0"/>
        <pt x="374" y="595" on="1"/>
        <pt x="320" y="595" on="0"/>
        <pt x="243" y="522" on="0"/>
        <pt x="192" y="412" on="0"/>
        <pt x="168" y="283" on="0"/>
        <pt x="168" y="226" on="1"/>
        <pt x="168" y="193" on="0"/>
        <pt x="180" y="138" on="0"/>
        <pt x="210" y="97" on="0"/>
        <pt x="258" y="74" on="0"/>
        <pt x="294" y="74" on="1"/>
      </contour>
    </TTGlyph>
    <TTGlyph name="Oacute" xMin="40" yMin="-13" xMax="628" yMax="921">
      <contour>
        <pt x="408" y="682" on="1"/>
        <pt x="314" y="682" on="0"/>
        <pt x="175" y="602" on="0"/>
        <pt x="84" y="469" on="0"/>
        <pt x="40" y="298" on="0"/>
        <pt x="40" y="208" on="1"/>
        <pt x="40" y="103" on="0"/>
        <pt x="144" y="-13" on="0"/>
        <pt x="260" y="-13" on="1"/>
        <pt x="354" y="-13" on="0"/>
        <pt x="493" y="67" on="0"/>
        <pt x="584" y="200" on="0"/>
        <pt x="628" y="371" on="0"/>
        <pt x="628" y="461" on="1"/>
        <pt x="628" y="566" on="0"/>
        <pt x="524" y="682" on="0"/>
      </contour>
      <contour>
        <pt x="374" y="595" on="1"/>
        <pt x="410" y="595" on="0"/>
        <pt x="458" y="572" on="0"/>
        <pt x="488" y="531" on="0"/>
        <pt x="500" y="476" on="0"/>
        <pt x="500" y="444" on="1"/>
        <pt x="500" y="387" on="0"/>
        <pt x="476" y="257" on="0"/>
        <pt x="425" y="147" on="0"/>
        <pt x="348" y="74" on="0"/>
        <pt x="294" y="74" on="1"/>
        <pt x="258" y="74" on="0"/>
        <pt x="210" y="97" on="0"/>
        <pt x="180" y="138" on="0"/>
        <pt x="168" y="193" on="0"/>
        <pt x="168" y="226" on="1"/>
        <pt x="168" y="283" on="0"/>
        <pt x="192" y="412" on="0"/>
        <pt x="243" y="522" on="0"/>
        <pt x="320" y="595" on="0"/>
      </contour>
      <contour>
        <pt x="391" y="713" on="1"/>
        <pt x="430" y="739" on="0"/>
        <pt x="469" y="764" on="1"/>
        <pt x="502" y="785" on="0"/>
        <pt x="578" y="828" on="0"/>
        <pt x="610" y="842" on="1"/>
        <pt x="607" y="856" on="0"/>
        <pt x="591" y="884" on="0"/>
        <pt x="582" y="895" on="1"/>
        <pt x="571" y="908" on="0"/>
        <pt x="560" y="921" on="1"/>
        <pt x="526" y="905" on="0"/>
        <pt x="454" y="854" on="0"/>
        <pt x="424" y="830" on="1"/>
        <pt x="389" y="802" on="0"/>
        <pt x="355" y="771" on="1"/>
      </contour>
    </TTGlyph>
    <TTGlyph name="Ocircumflex" xMin="40" yMin="-13" xMax="628" yMax="913">
      <contour>
        <pt x="408" y="682" on="1"/>
        <pt x="314" y="682" on="0"/>
        <pt x="175" y="602" on="0"/>
        <pt x="84" y="469" on="0"/>
        <pt x="40" y="298" on="0"/>
        <pt x="40" y="208" on="1"/>
        <pt x="40" y="103" on="0"/>
        <pt x="144" y="-13" on="0"/>
        <pt x="260" y="-13" on="1"/>
        <pt x="354" y="-13" on="0"/>
        <pt x="493" y="67" on="0"/>
        <pt x="584" y="200" on="0"/>
        <pt x="628" y="371" on="0"/>
        <pt x="628" y="461" on="1"/>
        <pt x="628" y="566" on="0"/>
        <pt x="524" y="682" on="0"/>
      </contour>
      <contour>
        <pt x="374" y="595" on="1"/>
        <pt x="410" y="595" on="0"/>
        <pt x="458" y="572" on="0"/>
        <pt x="488" y="531" on="0"/>
        <pt x="500" y="476" on="0"/>
        <pt x="500" y="444" on="1"/>
        <pt x="500" y="387" on="0"/>
        <pt x="476" y="257" on="0"/>
        <pt x="425" y="147" on="0"/>
        <pt x="348" y="74" on="0"/>
        <pt x="294" y="74" on="1"/>
        <pt x="258" y="74" on="0"/>
        <pt x="210" y="97" on="0"/>
        <pt x="180" y="138" on="0"/>
        <pt x="168" y="193" on="0"/>
        <pt x="168" y="226" on="1"/>
        <pt x="168" y="283" on="0"/>
        <pt x="192" y="412" on="0"/>
        <pt x="243" y="522" on="0"/>
        <pt x="320" y="595" on="0"/>
      </contour>
      <contour>
        <pt x="258" y="705" on="1"/>
        <pt x="283" y="720" on="0"/>
        <pt x="309" y="736" on="1"/>
        <pt x="332" y="750" on="0"/>
        <pt x="388" y="781" on="0"/>
        <pt x="417" y="797" on="1"/>
        <pt x="441" y="774" on="0"/>
        <pt x="491" y="740" on="0"/>
        <pt x="512" y="728" on="1"/>
        <pt x="536" y="714" on="0"/>
        <pt x="559" y="703" on="1"/>
        <pt x="596" y="758" on="1"/>
        <pt x="570" y="779" on="0"/>
        <pt x="543" y="805" on="1"/>
        <pt x="520" y="827" on="0"/>
        <pt x="464" y="882" on="0"/>
        <pt x="438" y="913" on="1"/>
        <pt x="404" y="897" on="0"/>
        <pt x="328" y="846" on="0"/>
        <pt x="296" y="822" on="1"/>
        <pt x="258" y="794" on="0"/>
        <pt x="222" y="763" on="1"/>
      </contour>
    </TTGlyph>
    <TTGlyph name="Odieresis" xMin="40" yMin="-13" xMax="628" yMax="860">
      <contour>
        <pt x="408" y="682" on="1"/>
        <pt x="314" y="682" on="0"/>
        <pt x="175" y="602" on="0"/>
        <pt x="84" y="469" on="0"/>
        <pt x="40" y="298" on="0"/>
        <pt x="40" y="208" on="1"/>
        <pt x="40" y="103" on="0"/>
        <pt x="144" y="-13" on="0"/>
        <pt x="260" y="-13" on="1"/>
        <pt x="354" y="-13" on="0"/>
        <pt x="493" y="67" on="0"/>
        <pt x="584" y="200" on="0"/>
        <pt x="628" y="371" on="0"/>
        <pt x="628" y="461" on="1"/>
        <pt x="628" y="566" on="0"/>
        <pt x="524" y="682" on="0"/>
      </contour>
      <contour>
        <pt x="374" y="595" on="1"/>
        <pt x="410" y="595" on="0"/>
        <pt x="458" y="572" on="0"/>
        <pt x="488" y="531" on="0"/>
        <pt x="500" y="476" on="0"/>
        <pt x="500" y="444" on="1"/>
        <pt x="500" y="387" on="0"/>
        <pt x="476" y="257" on="0"/>
        <pt x="425" y="147" on="0"/>
        <pt x="348" y="74" on="0"/>
        <pt x="294" y="74" on="1"/>
        <pt x="258" y="74" on="0"/>
        <pt x="210" y="97" on="0"/>
        <pt x="180" y="138" on="0"/>
        <pt x="168" y="193" on="0"/>
        <pt x="168" y="226" on="1"/>
        <pt x="168" y="283" on="0"/>
        <pt x="192" y="412" on="0"/>
        <pt x="243" y="522" on="0"/>
        <pt x="320" y="595" on="0"/>
      </contour>
      <contour>
        <pt x="331" y="860" on="1"/>
        <pt x="301" y="860" on="0"/>
        <pt x="266" y="819" on="0"/>
        <pt x="266" y="792" on="1"/>
        <pt x="266" y="767" on="0"/>
        <pt x="292" y="735" on="0"/>
        <pt x="321" y="735" on="1"/>
        <pt x="352" y="735" on="0"/>
        <pt x="388" y="775" on="0"/>
        <pt x="388" y="801" on="1"/>
        <pt x="388" y="828" on="0"/>
        <pt x="360" y="860" on="0"/>
      </contour>
      <contour>
        <pt x="521" y="860" on="1"/>
        <pt x="490" y="860" on="0"/>
        <pt x="455" y="819" on="0"/>
        <pt x="455" y="792" on="1"/>
        <pt x="455" y="767" on="0"/>
        <pt x="482" y="735" on="0"/>
        <pt x="511" y="735" on="1"/>
        <pt x="541" y="735" on="0"/>
        <pt x="577" y="775" on="0"/>
        <pt x="577" y="801" on="1"/>
        <pt x="577" y="828" on="0"/>
        <pt x="550" y="860" on="0"/>
      </contour>
    </TTGlyph>
    <TTGlyph name="Ograve" xMin="40" yMin="-13" xMax="628" yMax="921">
      <contour>
        <pt x="408" y="682" on="1"/>
        <pt x="314" y="682" on="0"/>
        <pt x="175" y="602" on="0"/>
        <pt x="84" y="469" on="0"/>
        <pt x="40" y="298" on="0"/>
        <pt x="40" y="208" on="1"/>
        <pt x="40" y="103" on="0"/>
        <pt x="144" y="-13" on="0"/>
        <pt x="260" y="-13" on="1"/>
        <pt x="354" y="-13" on="0"/>
        <pt x="493" y="67" on="0"/>
        <pt x="584" y="200" on="0"/>
        <pt x="628" y="371" on="0"/>
        <pt x="628" y="461" on="1"/>
        <pt x="628" y="566" on="0"/>
        <pt x="524" y="682" on="0"/>
      </contour>
      <contour>
        <pt x="374" y="595" on="1"/>
        <pt x="410" y="595" on="0"/>
        <pt x="458" y="572" on="0"/>
        <pt x="488" y="531" on="0"/>
        <pt x="500" y="476" on="0"/>
        <pt x="500" y="444" on="1"/>
        <pt x="500" y="387" on="0"/>
        <pt x="476" y="257" on="0"/>
        <pt x="425" y="147" on="0"/>
        <pt x="348" y="74" on="0"/>
        <pt x="294" y="74" on="1"/>
        <pt x="258" y="74" on="0"/>
        <pt x="210" y="97" on="0"/>
        <pt x="180" y="138" on="0"/>
        <pt x="168" y="193" on="0"/>
        <pt x="168" y="226" on="1"/>
        <pt x="168" y="283" on="0"/>
        <pt x="192" y="412" on="0"/>
        <pt x="243" y="522" on="0"/>
        <pt x="320" y="595" on="0"/>
      </contour>
      <contour>
        <pt x="437" y="766" on="1"/>
        <pt x="404" y="786" on="0"/>
        <pt x="372" y="811" on="1"/>
        <pt x="345" y="832" on="0"/>
        <pt x="283" y="888" on="0"/>
        <pt x="259" y="921" on="1"/>
        <pt x="242" y="908" on="0"/>
        <pt x="220" y="881" on="0"/>
        <pt x="212" y="870" on="1"/>
        <pt x="203" y="857" on="0"/>
        <pt x="198" y="843" on="1"/>
        <pt x="221" y="811" on="0"/>
        <pt x="291" y="763" on="0"/>
        <pt x="323" y="746" on="1"/>
        <pt x="361" y="727" on="0"/>
        <pt x="400" y="712" on="1"/>
      </contour>
    </TTGlyph>
    <TTGlyph name="Oslash" xMin="40" yMin="-73" xMax="628" yMax="742">
      <contour>
        <pt x="408" y="682" on="1"/>
        <pt x="314" y="682" on="0"/>
        <pt x="175" y="602" on="0"/>
        <pt x="84" y="469" on="0"/>
        <pt x="40" y="298" on="0"/>
        <pt x="40" y="208" on="1"/>
        <pt x="40" y="150" on="0"/>
        <pt x="70" y="63" on="0"/>
        <pt x="102" y="35" on="1"/>
        <pt x="66" y="-27" on="1"/>
        <pt x="151" y="-73" on="1"/>
        <pt x="190" y="-6" on="1"/>
        <pt x="206" y="-9" on="0"/>
        <pt x="240" y="-13" on="0"/>
        <pt x="260" y="-13" on="1"/>
        <pt x="354" y="-13" on="0"/>
        <pt x="493" y="67" on="0"/>
        <pt x="584" y="200" on="0"/>
        <pt x="628" y="371" on="0"/>
        <pt x="628" y="461" on="1"/>
        <pt x="628" y="518" on="0"/>
        <pt x="598" y="605" on="0"/>
        <pt x="566" y="634" on="1"/>
        <pt x="602" y="696" on="1"/>
        <pt x="517" y="742" on="1"/>
        <pt x="478" y="675" on="1"/>
        <pt x="462" y="678" on="0"/>
        <pt x="428" y="682" on="0"/>
      </contour>
      <contour>
        <pt x="500" y="446" on="1"/>
        <pt x="500" y="389" on="0"/>
        <pt x="476" y="257" on="0"/>
        <pt x="426" y="146" on="0"/>
        <pt x="348" y="72" on="0"/>
        <pt x="294" y="72" on="1"/>
        <pt x="277" y="72" on="0"/>
        <pt x="250" y="74" on="0"/>
        <pt x="238" y="76" on="1"/>
        <pt x="499" y="522" on="1"/>
      </contour>
      <contour>
        <pt x="168" y="225" on="1"/>
        <pt x="168" y="263" on="0"/>
        <pt x="179" y="348" on="0"/>
        <pt x="201" y="430" on="0"/>
        <pt x="234" y="506" on="0"/>
        <pt x="280" y="563" on="0"/>
        <pt x="338" y="597" on="0"/>
        <pt x="374" y="597" on="1"/>
        <pt x="390" y="597" on="0"/>
        <pt x="418" y="595" on="0"/>
        <pt x="430" y="593" on="1"/>
        <pt x="168" y="147" on="1"/>
      </contour>
    </TTGlyph>
    <TTGlyph name="Otilde" xMin="40" yMin="-13" xMax="628" yMax="860">
      <contour>
        <pt x="408" y="682" on="1"/>
        <pt x="314" y="682" on="0"/>
        <pt x="175" y="602" on="0"/>
        <pt x="84" y="469" on="0"/>
        <pt x="40" y="298" on="0"/>
        <pt x="40" y="208" on="1"/>
        <pt x="40" y="103" on="0"/>
        <pt x="144" y="-13" on="0"/>
        <pt x="260" y="-13" on="1"/>
        <pt x="354" y="-13" on="0"/>
        <pt x="493" y="67" on="0"/>
        <pt x="584" y="200" on="0"/>
        <pt x="628" y="371" on="0"/>
        <pt x="628" y="461" on="1"/>
        <pt x="628" y="566" on="0"/>
        <pt x="524" y="682" on="0"/>
      </contour>
      <contour>
        <pt x="374" y="595" on="1"/>
        <pt x="410" y="595" on="0"/>
        <pt x="458" y="572" on="0"/>
        <pt x="488" y="531" on="0"/>
        <pt x="500" y="476" on="0"/>
        <pt x="500" y="444" on="1"/>
        <pt x="500" y="387" on="0"/>
        <pt x="476" y="257" on="0"/>
        <pt x="425" y="147" on="0"/>
        <pt x="348" y="74" on="0"/>
        <pt x="294" y="74" on="1"/>
        <pt x="258" y="74" on="0"/>
        <pt x="210" y="97" on="0"/>
        <pt x="180" y="138" on="0"/>
        <pt x="168" y="193" on="0"/>
        <pt x="168" y="226" on="1"/>
        <pt x="168" y="283" on="0"/>
        <pt x="192" y="412" on="0"/>
        <pt x="243" y="522" on="0"/>
        <pt x="320" y="595" on="0"/>
      </contour>
      <contour>
        <pt x="253" y="756" on="1"/>
        <pt x="264" y="759" on="0"/>
        <pt x="278" y="763" on="1"/>
        <pt x="289" y="766" on="0"/>
        <pt x="321" y="771" on="0"/>
        <pt x="338" y="771" on="1"/>
        <pt x="376" y="771" on="0"/>
        <pt x="453" y="750" on="0"/>
        <pt x="490" y="750" on="1"/>
        <pt x="507" y="750" on="0"/>
        <pt x="538" y="757" on="0"/>
        <pt x="550" y="762" on="1"/>
        <pt x="564" y="767" on="0"/>
        <pt x="576" y="774" on="1"/>
        <pt x="591" y="854" on="1"/>
        <pt x="579" y="850" on="0"/>
        <pt x="566" y="846" on="1"/>
        <pt x="555" y="843" on="0"/>
        <pt x="524" y="839" on="0"/>
        <pt x="507" y="839" on="1"/>
        <pt x="469" y="839" on="0"/>
        <pt x="392" y="860" on="0"/>
        <pt x="355" y="860" on="1"/>
        <pt x="337" y="860" on="0"/>
        <pt x="306" y="853" on="0"/>
        <pt x="294" y="848" on="1"/>
        <pt x="280" y="843" on="0"/>
        <pt x="269" y="836" on="1"/>
      </contour>
    </TTGlyph>
    <TTGlyph name="P" xMin="15" yMin="0" xMax="534" yMax="675">
      <contour>
        <pt x="145" y="673" on="1"/>
        <pt x="238" y="665" on="1"/>
        <pt x="255" y="669" on="0"/>
        <pt x="305" y="675" on="0"/>
        <pt x="335" y="675" on="1"/>
        <pt x="379" y="675" on="0"/>
        <pt x="452" y="660" on="0"/>
        <pt x="505" y="626" on="0"/>
        <pt x="534" y="570" on="0"/>
        <pt x="534" y="529" on="1"/>
        <pt x="534" y="467" on="0"/>
        <pt x="490" y="369" on="0"/>
        <pt x="413" y="301" on="0"/>
        <pt x="308" y="266" on="0"/>
        <pt x="248" y="266" on="1"/>
        <pt x="234" y="266" on="0"/>
        <pt x="200" y="266" on="0"/>
        <pt x="182" y="268" on="1"/>
        <pt x="131" y="0" on="1"/>
        <pt x="15" y="0" on="1"/>
      </contour>
      <contour>
        <pt x="287" y="595" on="0"/>
        <pt x="258" y="593" on="0"/>
        <pt x="245" y="591" on="1"/>
        <pt x="199" y="354" on="1"/>
        <pt x="224" y="354" on="1"/>
        <pt x="320" y="354" on="0"/>
        <pt x="410" y="434" on="0"/>
        <pt x="410" y="505" on="1"/>
        <pt x="410" y="545" on="0"/>
        <pt x="362" y="595" on="0"/>
        <pt x="304" y="595" on="1"/>
      </contour>
    </TTGlyph>
    <TTGlyph name="Q" xMin="55" yMin="-258" xMax="626" yMax="682">
      <contour>
        <pt x="568" y="-174" on="1"/>
        <pt x="544" y="-190" on="0"/>
        <pt x="487" y="-220" on="0"/>
        <pt x="423" y="-244" on="0"/>
        <pt x="355" y="-258" on="0"/>
        <pt x="321" y="-258" on="1"/>
        <pt x="280" y="-258" on="0"/>
        <pt x="204" y="-238" on="0"/>
        <pt x="143" y="-191" on="0"/>
        <pt x="100" y="-117" on="0"/>
        <pt x="91" y="-63" on="1"/>
        <pt x="125" y="3" on="1"/>
        <pt x="148" y="-2" on="0"/>
        <pt x="169" y="-2" on="1"/>
        <pt x="232" y="-2" on="0"/>
        <pt x="350" y="72" on="0"/>
        <pt x="442" y="195" on="0"/>
        <pt x="498" y="356" on="0"/>
        <pt x="498" y="444" on="1"/>
        <pt x="498" y="477" on="0"/>
        <pt x="486" y="532" on="0"/>
        <pt x="456" y="572" on="0"/>
        <pt x="408" y="595" on="0"/>
        <pt x="372" y="595" on="1"/>
        <pt x="330" y="595" on="0"/>
        <pt x="261" y="550" on="0"/>
        <pt x="212" y="479" on="0"/>
        <pt x="185" y="394" on="0"/>
        <pt x="185" y="355" on="1"/>
        <pt x="185" y="330" on="0"/>
        <pt x="196" y="298" on="0"/>
        <pt x="217" y="278" on="0"/>
        <pt x="249" y="267" on="0"/>
        <pt x="270" y="264" on="1"/>
        <pt x="261" y="180" on="1"/>
        <pt x="253" y="178" on="0"/>
        <pt x="232" y="177" on="0"/>
        <pt x="224" y="177" on="1"/>
        <pt x="191" y="177" on="0"/>
        <pt x="129" y="200" on="0"/>
        <pt x="83" y="244" on="0"/>
        <pt x="55" y="308" on="0"/>
        <pt x="55" y="349" on="1"/>
        <pt x="55" y="407" on="0"/>
        <pt x="103" y="525" on="0"/>
        <pt x="194" y="621" on="0"/>
        <pt x="324" y="682" on="0"/>
        <pt x="406" y="682" on="1"/>
        <pt x="522" y="682" on="0"/>
        <pt x="626" y="566" on="0"/>
        <pt x="626" y="461" on="1"/>
        <pt x="626" y="353" on="0"/>
        <pt x="556" y="163" on="0"/>
        <pt x="439" y="18" on="0"/>
        <pt x="289" y="-70" on="0"/>
        <pt x="208" y="-75" on="1"/>
        <pt x="225" y="-123" on="0"/>
        <pt x="290" y="-161" on="0"/>
        <pt x="331" y="-161" on="1"/>
        <pt x="384" y="-161" on="0"/>
        <pt x="486" y="-113" on="0"/>
        <pt x="530" y="-86" on="1"/>
      </contour>
    </TTGlyph>
    <TTGlyph name="R" xMin="15" yMin="-103" xMax="545" yMax="675">
      <contour>
        <pt x="145" y="673" on="1"/>
        <pt x="238" y="665" on="1"/>
        <pt x="255" y="669" on="0"/>
        <pt x="305" y="675" on="0"/>
        <pt x="335" y="675" on="1"/>
        <pt x="379" y="675" on="0"/>
        <pt x="452" y="660" on="0"/>
        <pt x="505" y="626" on="0"/>
        <pt x="534" y="570" on="0"/>
        <pt x="534" y="529" on="1"/>
        <pt x="534" y="480" on="0"/>
        <pt x="505" y="405" on="0"/>
        <pt x="454" y="350" on="0"/>
        <pt x="382" y="315" on="0"/>
        <pt x="340" y="306" on="1"/>
        <pt x="352" y="267" on="0"/>
        <pt x="395" y="172" on="0"/>
        <pt x="451" y="76" on="0"/>
        <pt x="514" y="-16" on="0"/>
        <pt x="545" y="-53" on="1"/>
        <pt x="451" y="-103" on="1"/>
        <pt x="404" y="-43" on="0"/>
        <pt x="339" y="55" on="0"/>
        <pt x="292" y="147" on="0"/>
        <pt x="255" y="242" on="0"/>
        <pt x="236" y="298" on="1"/>
        <pt x="225" y="298" on="0"/>
        <pt x="201" y="298" on="0"/>
        <pt x="188" y="299" on="1"/>
        <pt x="131" y="0" on="1"/>
        <pt x="15" y="0" on="1"/>
      </contour>
      <contour>
        <pt x="287" y="595" on="0"/>
        <pt x="258" y="593" on="0"/>
        <pt x="245" y="591" on="1"/>
        <pt x="204" y="379" on="1"/>
        <pt x="224" y="379" on="1"/>
        <pt x="314" y="379" on="0"/>
        <pt x="410" y="434" on="0"/>
        <pt x="410" y="505" on="1"/>
        <pt x="410" y="545" on="0"/>
        <pt x="362" y="595" on="0"/>
        <pt x="304" y="595" on="1"/>
      </contour>
    </TTGlyph>
    <TTGlyph name="S" xMin="-15" yMin="-14" xMax="470" yMax="682">
      <contour>
        <pt x="307" y="682" on="1"/>
        <pt x="352" y="682" on="0"/>
        <pt x="410" y="660" on="0"/>
        <pt x="446" y="625" on="0"/>
        <pt x="465" y="583" on="0"/>
        <pt x="470" y="563" on="1"/>
        <pt x="386" y="524" on="1"/>
        <pt x="382" y="533" on="0"/>
        <pt x="372" y="557" on="0"/>
        <pt x="356" y="580" on="0"/>
        <pt x="329" y="595" on="0"/>
        <pt x="307" y="595" on="1"/>
        <pt x="287" y="595" on="0"/>
        <pt x="252" y="582" on="0"/>
        <pt x="226" y="560" on="0"/>
        <pt x="211" y="530" on="0"/>
        <pt x="211" y="512" on="1"/>
        <pt x="211" y="494" on="0"/>
        <pt x="220" y="466" on="0"/>
        <pt x="237" y="444" on="0"/>
        <pt x="259" y="426" on="0"/>
        <pt x="273" y="416" on="1"/>
        <pt x="353" y="357" on="1"/>
        <pt x="389" y="330" on="0"/>
        <pt x="441" y="252" on="0"/>
        <pt x="441" y="193" on="1"/>
        <pt x="441" y="142" on="0"/>
        <pt x="398" y="65" on="0"/>
        <pt x="328" y="12" on="0"/>
        <pt x="239" y="-14" on="0"/>
        <pt x="192" y="-14" on="1"/>
        <pt x="155" y="-14" on="0"/>
        <pt x="93" y="-2" on="0"/>
        <pt x="42" y="15" on="0"/>
        <pt x="1" y="35" on="0"/>
        <pt x="-15" y="44" on="1"/>
        <pt x="35" y="132" on="1"/>
        <pt x="69" y="112" on="0"/>
        <pt x="146" y="74" on="0"/>
        <pt x="188" y="74" on="1"/>
        <pt x="244" y="74" on="0"/>
        <pt x="313" y="125" on="0"/>
        <pt x="313" y="179" on="1"/>
        <pt x="313" y="214" on="0"/>
        <pt x="281" y="258" on="0"/>
        <pt x="250" y="281" on="1"/>
        <pt x="175" y="337" on="1"/>
        <pt x="131" y="369" on="0"/>
        <pt x="82" y="439" on="0"/>
        <pt x="82" y="498" on="1"/>
        <pt x="82" y="542" on="0"/>
        <pt x="116" y="610" on="0"/>
        <pt x="177" y="657" on="0"/>
        <pt x="259" y="682" on="0"/>
      </contour>
    </TTGlyph>
    <TTGlyph name="T" xMin="55" yMin="0" xMax="524" yMax="669">
      <contour>
        <pt x="55" y="669" on="1"/>
        <pt x="524" y="669" on="1"/>
        <pt x="506" y="585" on="1"/>
        <pt x="337" y="585" on="1"/>
        <pt x="224" y="0" on="1"/>
        <pt x="108" y="0" on="1"/>
        <pt x="222" y="585" on="1"/>
        <pt x="55" y="585" on="1"/>
      </contour>
    </TTGlyph>
    <TTGlyph name="Thorn" xMin="15" yMin="0" xMax="513" yMax="669">
      <contour>
        <pt x="15" y="0" on="1"/>
        <pt x="130" y="0" on="1"/>
        <pt x="156" y="137" on="1"/>
        <pt x="214" y="137" on="1"/>
        <pt x="280" y="137" on="0"/>
        <pt x="390" y="173" on="0"/>
        <pt x="469" y="240" on="0"/>
        <pt x="513" y="335" on="0"/>
        <pt x="513" y="394" on="1"/>
        <pt x="513" y="466" on="0"/>
        <pt x="417" y="551" on="0"/>
        <pt x="314" y="551" on="1"/>
        <pt x="298" y="551" on="0"/>
        <pt x="255" y="548" on="0"/>
        <pt x="232" y="546" on="1"/>
        <pt x="256" y="669" on="1"/>
        <pt x="141" y="669" on="1"/>
      </contour>
      <contour>
        <pt x="283" y="466" on="1"/>
        <pt x="313" y="466" on="0"/>
        <pt x="353" y="451" on="0"/>
        <pt x="377" y="426" on="0"/>
        <pt x="387" y="392" on="0"/>
        <pt x="387" y="374" on="1"/>
        <pt x="387" y="343" on="0"/>
        <pt x="366" y="289" on="0"/>
        <pt x="328" y="248" on="0"/>
        <pt x="272" y="225" on="0"/>
        <pt x="238" y="225" on="1"/>
        <pt x="171" y="225" on="1"/>
        <pt x="216" y="459" on="1"/>
        <pt x="228" y="461" on="0"/>
        <pt x="262" y="466" on="0"/>
      </contour>
    </TTGlyph>
    <TTGlyph name="U" xMin="45" yMin="-8" xMax="637" yMax="669">
      <contour>
        <pt x="250" y="669" on="1"/>
        <pt x="170" y="259" on="1"/>
        <pt x="164" y="226" on="0"/>
        <pt x="164" y="200" on="1"/>
        <pt x="164" y="139" on="0"/>
        <pt x="225" y="74" on="0"/>
        <pt x="279" y="74" on="1"/>
        <pt x="312" y="74" on="0"/>
        <pt x="364" y="101" on="0"/>
        <pt x="405" y="150" on="0"/>
        <pt x="433" y="218" on="0"/>
        <pt x="441" y="259" on="1"/>
        <pt x="521" y="669" on="1"/>
        <pt x="637" y="669" on="1"/>
        <pt x="556" y="250" on="1"/>
        <pt x="546" y="198" on="0"/>
        <pt x="502" y="104" on="0"/>
        <pt x="428" y="34" on="0"/>
        <pt x="322" y="-8" on="0"/>
        <pt x="250" y="-8" on="1"/>
        <pt x="194" y="-8" on="0"/>
        <pt x="116" y="20" on="0"/>
        <pt x="67" y="70" on="0"/>
        <pt x="45" y="138" on="0"/>
        <pt x="45" y="177" on="1"/>
        <pt x="45" y="210" on="0"/>
        <pt x="53" y="250" on="1"/>
        <pt x="134" y="669" on="1"/>
      </contour>
    </TTGlyph>
    <TTGlyph name="Uacute" xMin="45" yMin="-8" xMax="637" yMax="921">
      <contour>
        <pt x="134" y="669" on="1"/>
        <pt x="53" y="250" on="1"/>
        <pt x="45" y="210" on="0"/>
        <pt x="45" y="177" on="1"/>
        <pt x="45" y="138" on="0"/>
        <pt x="67" y="70" on="0"/>
        <pt x="116" y="20" on="0"/>
        <pt x="194" y="-8" on="0"/>
        <pt x="250" y="-8" on="1"/>
        <pt x="322" y="-8" on="0"/>
        <pt x="428" y="34" on="0"/>
        <pt x="502" y="104" on="0"/>
        <pt x="546" y="198" on="0"/>
        <pt x="556" y="250" on="1"/>
        <pt x="637" y="669" on="1"/>
        <pt x="521" y="669" on="1"/>
        <pt x="441" y="259" on="1"/>
        <pt x="433" y="218" on="0"/>
        <pt x="405" y="150" on="0"/>
        <pt x="364" y="101" on="0"/>
        <pt x="312" y="74" on="0"/>
        <pt x="279" y="74" on="1"/>
        <pt x="225" y="74" on="0"/>
        <pt x="164" y="139" on="0"/>
        <pt x="164" y="200" on="1"/>
        <pt x="164" y="226" on="0"/>
        <pt x="170" y="259" on="1"/>
        <pt x="250" y="669" on="1"/>
      </contour>
      <contour>
        <pt x="382" y="713" on="1"/>
        <pt x="421" y="739" on="0"/>
        <pt x="460" y="764" on="1"/>
        <pt x="493" y="785" on="0"/>
        <pt x="569" y="828" on="0"/>
        <pt x="601" y="842" on="1"/>
        <pt x="598" y="856" on="0"/>
        <pt x="582" y="884" on="0"/>
        <pt x="573" y="895" on="1"/>
        <pt x="562" y="908" on="0"/>
        <pt x="551" y="921" on="1"/>
        <pt x="517" y="905" on="0"/>
        <pt x="445" y="854" on="0"/>
        <pt x="415" y="830" on="1"/>
        <pt x="380" y="802" on="0"/>
        <pt x="346" y="771" on="1"/>
      </contour>
    </TTGlyph>
    <TTGlyph name="Ucircumflex" xMin="45" yMin="-8" xMax="637" yMax="913">
      <contour>
        <pt x="134" y="669" on="1"/>
        <pt x="53" y="250" on="1"/>
        <pt x="45" y="210" on="0"/>
        <pt x="45" y="177" on="1"/>
        <pt x="45" y="138" on="0"/>
        <pt x="67" y="70" on="0"/>
        <pt x="116" y="20" on="0"/>
        <pt x="194" y="-8" on="0"/>
        <pt x="250" y="-8" on="1"/>
        <pt x="322" y="-8" on="0"/>
        <pt x="428" y="34" on="0"/>
        <pt x="502" y="104" on="0"/>
        <pt x="546" y="198" on="0"/>
        <pt x="556" y="250" on="1"/>
        <pt x="637" y="669" on="1"/>
        <pt x="521" y="669" on="1"/>
        <pt x="441" y="259" on="1"/>
        <pt x="433" y="218" on="0"/>
        <pt x="405" y="150" on="0"/>
        <pt x="364" y="101" on="0"/>
        <pt x="312" y="74" on="0"/>
        <pt x="279" y="74" on="1"/>
        <pt x="225" y="74" on="0"/>
        <pt x="164" y="139" on="0"/>
        <pt x="164" y="200" on="1"/>
        <pt x="164" y="226" on="0"/>
        <pt x="170" y="259" on="1"/>
        <pt x="250" y="669" on="1"/>
      </contour>
      <contour>
        <pt x="249" y="705" on="1"/>
        <pt x="274" y="720" on="0"/>
        <pt x="300" y="736" on="1"/>
        <pt x="323" y="750" on="0"/>
        <pt x="379" y="781" on="0"/>
        <pt x="408" y="797" on="1"/>
        <pt x="432" y="774" on="0"/>
        <pt x="482" y="740" on="0"/>
        <pt x="503" y="728" on="1"/>
        <pt x="527" y="714" on="0"/>
        <pt x="550" y="703" on="1"/>
        <pt x="587" y="758" on="1"/>
        <pt x="561" y="779" on="0"/>
        <pt x="534" y="805" on="1"/>
        <pt x="511" y="827" on="0"/>
        <pt x="455" y="882" on="0"/>
        <pt x="429" y="913" on="1"/>
        <pt x="395" y="897" on="0"/>
        <pt x="319" y="846" on="0"/>
        <pt x="287" y="822" on="1"/>
        <pt x="249" y="794" on="0"/>
        <pt x="213" y="763" on="1"/>
      </contour>
    </TTGlyph>
    <TTGlyph name="Udieresis" xMin="45" yMin="-8" xMax="637" yMax="860">
      <contour>
        <pt x="134" y="669" on="1"/>
        <pt x="53" y="250" on="1"/>
        <pt x="45" y="210" on="0"/>
        <pt x="45" y="177" on="1"/>
        <pt x="45" y="138" on="0"/>
        <pt x="67" y="70" on="0"/>
        <pt x="116" y="20" on="0"/>
        <pt x="194" y="-8" on="0"/>
        <pt x="250" y="-8" on="1"/>
        <pt x="322" y="-8" on="0"/>
        <pt x="428" y="34" on="0"/>
        <pt x="502" y="104" on="0"/>
        <pt x="546" y="198" on="0"/>
        <pt x="556" y="250" on="1"/>
        <pt x="637" y="669" on="1"/>
        <pt x="521" y="669" on="1"/>
        <pt x="441" y="259" on="1"/>
        <pt x="433" y="218" on="0"/>
        <pt x="405" y="150" on="0"/>
        <pt x="364" y="101" on="0"/>
        <pt x="312" y="74" on="0"/>
        <pt x="279" y="74" on="1"/>
        <pt x="225" y="74" on="0"/>
        <pt x="164" y="139" on="0"/>
        <pt x="164" y="200" on="1"/>
        <pt x="164" y="226" on="0"/>
        <pt x="170" y="259" on="1"/>
        <pt x="250" y="669" on="1"/>
      </contour>
      <contour>
        <pt x="322" y="860" on="1"/>
        <pt x="292" y="860" on="0"/>
        <pt x="257" y="819" on="0"/>
        <pt x="257" y="792" on="1"/>
        <pt x="257" y="767" on="0"/>
        <pt x="283" y="735" on="0"/>
        <pt x="312" y="735" on="1"/>
        <pt x="343" y="735" on="0"/>
        <pt x="379" y="775" on="0"/>
        <pt x="379" y="801" on="1"/>
        <pt x="379" y="828" on="0"/>
        <pt x="351" y="860" on="0"/>
      </contour>
      <contour>
        <pt x="512" y="860" on="1"/>
        <pt x="481" y="860" on="0"/>
        <pt x="446" y="819" on="0"/>
        <pt x="446" y="792" on="1"/>
        <pt x="446" y="767" on="0"/>
        <pt x="473" y="735" on="0"/>
        <pt x="502" y="735" on="1"/>
        <pt x="532" y="735" on="0"/>
        <pt x="568" y="775" on="0"/>
        <pt x="568" y="801" on="1"/>
        <pt x="568" y="828" on="0"/>
        <pt x="541" y="860" on="0"/>
      </contour>
    </TTGlyph>
    <TTGlyph name="Ugrave" xMin="45" yMin="-8" xMax="637" yMax="921">
      <contour>
        <pt x="134" y="669" on="1"/>
        <pt x="53" y="250" on="1"/>
        <pt x="45" y="210" on="0"/>
        <pt x="45" y="177" on="1"/>
        <pt x="45" y="138" on="0"/>
        <pt x="67" y="70" on="0"/>
        <pt x="116" y="20" on="0"/>
        <pt x="194" y="-8" on="0"/>
        <pt x="250" y="-8" on="1"/>
        <pt x="322" y="-8" on="0"/>
        <pt x="428" y="34" on="0"/>
        <pt x="502" y="104" on="0"/>
        <pt x="546" y="198" on="0"/>
        <pt x="556" y="250" on="1"/>
        <pt x="637" y="669" on="1"/>
        <pt x="521" y="669" on="1"/>
        <pt x="441" y="259" on="1"/>
        <pt x="433" y="218" on="0"/>
        <pt x="405" y="150" on="0"/>
        <pt x="364" y="101" on="0"/>
        <pt x="312" y="74" on="0"/>
        <pt x="279" y="74" on="1"/>
        <pt x="225" y="74" on="0"/>
        <pt x="164" y="139" on="0"/>
        <pt x="164" y="200" on="1"/>
        <pt x="164" y="226" on="0"/>
        <pt x="170" y="259" on="1"/>
        <pt x="250" y="669" on="1"/>
      </contour>
      <contour>
        <pt x="428" y="766" on="1"/>
        <pt x="395" y="786" on="0"/>
        <pt x="363" y="811" on="1"/>
        <pt x="336" y="832" on="0"/>
        <pt x="274" y="888" on="0"/>
        <pt x="250" y="921" on="1"/>
        <pt x="233" y="908" on="0"/>
        <pt x="211" y="881" on="0"/>
        <pt x="203" y="870" on="1"/>
        <pt x="194" y="857" on="0"/>
        <pt x="189" y="843" on="1"/>
        <pt x="212" y="811" on="0"/>
        <pt x="282" y="763" on="0"/>
        <pt x="314" y="746" on="1"/>
        <pt x="352" y="727" on="0"/>
        <pt x="391" y="712" on="1"/>
      </contour>
    </TTGlyph>
    <TTGlyph name="V" xMin="35" yMin="0" xMax="620" yMax="677">
      <contour>
        <pt x="255" y="0" on="1"/>
        <pt x="163" y="0" on="1"/>
        <pt x="35" y="669" on="1"/>
        <pt x="158" y="669" on="1"/>
        <pt x="218" y="300" on="1"/>
        <pt x="226" y="253" on="0"/>
        <pt x="235" y="187" on="0"/>
        <pt x="238" y="161" on="1"/>
        <pt x="250" y="186" on="0"/>
        <pt x="284" y="252" on="0"/>
        <pt x="309" y="300" on="1"/>
        <pt x="505" y="677" on="1"/>
        <pt x="620" y="650" on="1"/>
      </contour>
    </TTGlyph>
    <TTGlyph name="W" xMin="45" yMin="0" xMax="899" yMax="677">
      <contour>
        <pt x="434" y="366" on="1"/>
        <pt x="432" y="391" on="0"/>
        <pt x="429" y="453" on="0"/>
        <pt x="428" y="485" on="1"/>
        <pt x="417" y="453" on="0"/>
        <pt x="393" y="392" on="0"/>
        <pt x="382" y="370" on="1"/>
        <pt x="201" y="0" on="1"/>
        <pt x="109" y="0" on="1"/>
        <pt x="45" y="669" on="1"/>
        <pt x="168" y="669" on="1"/>
        <pt x="193" y="299" on="1"/>
        <pt x="195" y="279" on="0"/>
        <pt x="196" y="209" on="0"/>
        <pt x="196" y="174" on="1"/>
        <pt x="205" y="201" on="0"/>
        <pt x="230" y="262" on="0"/>
        <pt x="248" y="299" on="1"/>
        <pt x="421" y="669" on="1"/>
        <pt x="523" y="669" on="1"/>
        <pt x="553" y="300" on="1"/>
        <pt x="555" y="267" on="0"/>
        <pt x="557" y="205" on="0"/>
        <pt x="557" y="178" on="1"/>
        <pt x="569" y="207" on="0"/>
        <pt x="594" y="270" on="0"/>
        <pt x="608" y="300" on="1"/>
        <pt x="784" y="677" on="1"/>
        <pt x="899" y="650" on="1"/>
        <pt x="561" y="0" on="1"/>
        <pt x="469" y="0" on="1"/>
      </contour>
    </TTGlyph>
    <TTGlyph name="X" xMin="-40" yMin="-8" xMax="593" yMax="679">
      <contour>
        <pt x="-40" y="19" on="1"/>
        <pt x="226" y="367" on="1"/>
        <pt x="94" y="669" on="1"/>
        <pt x="218" y="669" on="1"/>
        <pt x="289" y="506" on="1"/>
        <pt x="294" y="494" on="0"/>
        <pt x="308" y="458" on="0"/>
        <pt x="316" y="438" on="1"/>
        <pt x="329" y="458" on="0"/>
        <pt x="353" y="493" on="0"/>
        <pt x="362" y="505" on="1"/>
        <pt x="490" y="679" on="1"/>
        <pt x="593" y="643" on="1"/>
        <pt x="368" y="348" on="1"/>
        <pt x="510" y="0" on="1"/>
        <pt x="385" y="0" on="1"/>
        <pt x="305" y="200" on="1"/>
        <pt x="300" y="213" on="0"/>
        <pt x="285" y="253" on="0"/>
        <pt x="277" y="276" on="1"/>
        <pt x="262" y="253" on="0"/>
        <pt x="234" y="213" on="0"/>
        <pt x="224" y="200" on="1"/>
        <pt x="72" y="-8" on="1"/>
      </contour>
    </TTGlyph>
    <TTGlyph name="Y" xMin="40" yMin="0" xMax="518" yMax="685">
      <contour>
        <pt x="115" y="0" on="1"/>
        <pt x="115" y="40" on="1"/>
        <pt x="115" y="106" on="0"/>
        <pt x="138" y="224" on="0"/>
        <pt x="159" y="275" on="1"/>
        <pt x="40" y="669" on="1"/>
        <pt x="158" y="669" on="1"/>
        <pt x="224" y="410" on="1"/>
        <pt x="245" y="461" on="0"/>
        <pt x="300" y="546" on="0"/>
        <pt x="360" y="614" on="0"/>
        <pt x="421" y="667" on="0"/>
        <pt x="448" y="685" on="1"/>
        <pt x="518" y="629" on="1"/>
        <pt x="458" y="572" on="0"/>
        <pt x="353" y="463" on="0"/>
        <pt x="275" y="330" on="0"/>
        <pt x="230" y="158" on="0"/>
        <pt x="230" y="38" on="1"/>
        <pt x="230" y="0" on="1"/>
      </contour>
    </TTGlyph>
    <TTGlyph name="Yacute" xMin="40" yMin="0" xMax="518" yMax="921">
      <contour>
        <pt x="230" y="0" on="1"/>
        <pt x="230" y="38" on="1"/>
        <pt x="230" y="158" on="0"/>
        <pt x="275" y="330" on="0"/>
        <pt x="353" y="463" on="0"/>
        <pt x="458" y="572" on="0"/>
        <pt x="518" y="629" on="1"/>
        <pt x="448" y="685" on="1"/>
        <pt x="421" y="667" on="0"/>
        <pt x="360" y="614" on="0"/>
        <pt x="300" y="546" on="0"/>
        <pt x="245" y="461" on="0"/>
        <pt x="224" y="410" on="1"/>
        <pt x="158" y="669" on="1"/>
        <pt x="40" y="669" on="1"/>
        <pt x="159" y="275" on="1"/>
        <pt x="138" y="224" on="0"/>
        <pt x="115" y="106" on="0"/>
        <pt x="115" y="40" on="1"/>
        <pt x="115" y="0" on="1"/>
      </contour>
      <contour>
        <pt x="276" y="713" on="1"/>
        <pt x="314" y="739" on="0"/>
        <pt x="353" y="764" on="1"/>
        <pt x="386" y="785" on="0"/>
        <pt x="462" y="828" on="0"/>
        <pt x="494" y="842" on="1"/>
        <pt x="492" y="856" on="0"/>
        <pt x="475" y="884" on="0"/>
        <pt x="467" y="895" on="1"/>
        <pt x="456" y="908" on="0"/>
        <pt x="445" y="921" on="1"/>
        <pt x="411" y="905" on="0"/>
        <pt x="339" y="854" on="0"/>
        <pt x="309" y="830" on="1"/>
        <pt x="274" y="802" on="0"/>
        <pt x="240" y="771" on="1"/>
      </contour>
    </TTGlyph>
    <TTGlyph name="Ydieresis" xMin="40" yMin="0" xMax="518" yMax="860">
      <contour>
        <pt x="230" y="0" on="1"/>
        <pt x="230" y="38" on="1"/>
        <pt x="230" y="158" on="0"/>
        <pt x="275" y="330" on="0"/>
        <pt x="353" y="463" on="0"/>
        <pt x="458" y="572" on="0"/>
        <pt x="518" y="629" on="1"/>
        <pt x="448" y="685" on="1"/>
        <pt x="421" y="667" on="0"/>
        <pt x="360" y="614" on="0"/>
        <pt x="300" y="546" on="0"/>
        <pt x="245" y="461" on="0"/>
        <pt x="224" y="410" on="1"/>
        <pt x="158" y="669" on="1"/>
        <pt x="40" y="669" on="1"/>
        <pt x="159" y="275" on="1"/>
        <pt x="138" y="224" on="0"/>
        <pt x="115" y="106" on="0"/>
        <pt x="115" y="40" on="1"/>
        <pt x="115" y="0" on="1"/>
      </contour>
      <contour>
        <pt x="217" y="860" on="1"/>
        <pt x="186" y="860" on="0"/>
        <pt x="151" y="819" on="0"/>
        <pt x="151" y="792" on="1"/>
        <pt x="151" y="767" on="0"/>
        <pt x="178" y="735" on="0"/>
        <pt x="207" y="735" on="1"/>
        <pt x="237" y="735" on="0"/>
        <pt x="273" y="775" on="0"/>
        <pt x="273" y="801" on="1"/>
        <pt x="273" y="828" on="0"/>
        <pt x="246" y="860" on="0"/>
      </contour>
      <contour>
        <pt x="406" y="860" on="1"/>
        <pt x="375" y="860" on="0"/>
        <pt x="340" y="819" on="0"/>
        <pt x="340" y="792" on="1"/>
        <pt x="340" y="767" on="0"/>
        <pt x="367" y="735" on="0"/>
        <pt x="396" y="735" on="1"/>
        <pt x="426" y="735" on="0"/>
        <pt x="462" y="775" on="0"/>
        <pt x="462" y="801" on="1"/>
        <pt x="462" y="828" on="0"/>
        <pt x="435" y="860" on="0"/>
      </contour>
    </TTGlyph>
    <TTGlyph name="Z" xMin="-10" yMin="0" xMax="522" yMax="669">
      <contour>
        <pt x="-10" y="0" on="1"/>
        <pt x="-10" y="62" on="1"/>
        <pt x="360" y="585" on="1"/>
        <pt x="357" y="585" on="0"/>
        <pt x="332" y="584" on="0"/>
        <pt x="327" y="584" on="1"/>
        <pt x="101" y="584" on="1"/>
        <pt x="117" y="669" on="1"/>
        <pt x="522" y="669" on="1"/>
        <pt x="522" y="606" on="1"/>
        <pt x="150" y="83" on="1"/>
        <pt x="162" y="83" on="0"/>
        <pt x="187" y="84" on="0"/>
        <pt x="201" y="84" on="1"/>
        <pt x="436" y="84" on="1"/>
        <pt x="436" y="0" on="1"/>
      </contour>
    </TTGlyph>
    <TTGlyph name="a" xMin="30" yMin="-10" xMax="493" yMax="498">
      <contour>
        <pt x="225" y="74" on="0"/>
        <pt x="275" y="130" on="0"/>
        <pt x="317" y="211" on="0"/>
        <pt x="348" y="304" on="0"/>
        <pt x="356" y="342" on="1"/>
        <pt x="370" y="411" on="1"/>
        <pt x="358" y="417" on="0"/>
        <pt x="327" y="421" on="0"/>
        <pt x="313" y="421" on="1"/>
        <pt x="268" y="421" on="0"/>
        <pt x="205" y="370" on="0"/>
        <pt x="166" y="291" on="0"/>
        <pt x="149" y="196" on="0"/>
        <pt x="149" y="153" on="1"/>
        <pt x="149" y="109" on="0"/>
        <pt x="174" y="74" on="0"/>
        <pt x="200" y="74" on="1"/>
      </contour>
      <contour>
        <pt x="127" y="-8" on="0"/>
        <pt x="77" y="20" on="0"/>
        <pt x="45" y="67" on="0"/>
        <pt x="30" y="126" on="0"/>
        <pt x="30" y="157" on="1"/>
        <pt x="30" y="228" on="0"/>
        <pt x="67" y="352" on="0"/>
        <pt x="139" y="445" on="0"/>
        <pt x="243" y="498" on="0"/>
        <pt x="311" y="498" on="1"/>
        <pt x="328" y="498" on="0"/>
        <pt x="390" y="491" on="0"/>
        <pt x="430" y="474" on="1"/>
        <pt x="493" y="470" on="1"/>
        <pt x="448" y="237" on="1"/>
        <pt x="438" y="184" on="0"/>
        <pt x="438" y="144" on="1"/>
        <pt x="438" y="95" on="0"/>
        <pt x="463" y="42" on="0"/>
        <pt x="474" y="26" on="1"/>
        <pt x="384" y="-10" on="1"/>
        <pt x="369" y="7" on="0"/>
        <pt x="350" y="57" on="0"/>
        <pt x="350" y="89" on="1"/>
        <pt x="350" y="102" on="0"/>
        <pt x="354" y="143" on="0"/>
        <pt x="357" y="169" on="1"/>
        <pt x="340" y="129" on="1"/>
        <pt x="323" y="90" on="0"/>
        <pt x="283" y="37" on="0"/>
        <pt x="238" y="5" on="0"/>
        <pt x="189" y="-8" on="0"/>
        <pt x="163" y="-8" on="1"/>
      </contour>
    </TTGlyph>
    <TTGlyph name="aacute" xMin="30" yMin="-10" xMax="508" yMax="770">
      <contour>
        <pt x="200" y="74" on="1"/>
        <pt x="174" y="74" on="0"/>
        <pt x="149" y="109" on="0"/>
        <pt x="149" y="153" on="1"/>
        <pt x="149" y="196" on="0"/>
        <pt x="166" y="291" on="0"/>
        <pt x="205" y="370" on="0"/>
        <pt x="268" y="421" on="0"/>
        <pt x="313" y="421" on="1"/>
        <pt x="327" y="421" on="0"/>
        <pt x="358" y="417" on="0"/>
        <pt x="370" y="411" on="1"/>
        <pt x="356" y="342" on="1"/>
        <pt x="348" y="304" on="0"/>
        <pt x="317" y="211" on="0"/>
        <pt x="275" y="130" on="0"/>
        <pt x="225" y="74" on="0"/>
      </contour>
      <contour>
        <pt x="163" y="-8" on="1"/>
        <pt x="189" y="-8" on="0"/>
        <pt x="238" y="5" on="0"/>
        <pt x="283" y="37" on="0"/>
        <pt x="323" y="90" on="0"/>
        <pt x="340" y="129" on="1"/>
        <pt x="357" y="169" on="1"/>
        <pt x="354" y="143" on="0"/>
        <pt x="350" y="102" on="0"/>
        <pt x="350" y="89" on="1"/>
        <pt x="350" y="57" on="0"/>
        <pt x="369" y="7" on="0"/>
        <pt x="384" y="-10" on="1"/>
        <pt x="474" y="26" on="1"/>
        <pt x="463" y="42" on="0"/>
        <pt x="438" y="95" on="0"/>
        <pt x="438" y="144" on="1"/>
        <pt x="438" y="184" on="0"/>
        <pt x="448" y="237" on="1"/>
        <pt x="493" y="470" on="1"/>
        <pt x="430" y="474" on="1"/>
        <pt x="390" y="491" on="0"/>
        <pt x="328" y="498" on="0"/>
        <pt x="311" y="498" on="1"/>
        <pt x="243" y="498" on="0"/>
        <pt x="139" y="445" on="0"/>
        <pt x="67" y="352" on="0"/>
        <pt x="30" y="228" on="0"/>
        <pt x="30" y="157" on="1"/>
        <pt x="30" y="126" on="0"/>
        <pt x="45" y="67" on="0"/>
        <pt x="77" y="20" on="0"/>
        <pt x="127" y="-8" on="0"/>
      </contour>
      <contour>
        <pt x="316" y="535" on="1"/>
        <pt x="349" y="568" on="0"/>
        <pt x="383" y="599" on="1"/>
        <pt x="412" y="625" on="0"/>
        <pt x="479" y="682" on="0"/>
        <pt x="508" y="701" on="1"/>
        <pt x="503" y="714" on="0"/>
        <pt x="483" y="739" on="0"/>
        <pt x="472" y="749" on="1"/>
        <pt x="460" y="760" on="0"/>
        <pt x="446" y="770" on="1"/>
        <pt x="415" y="748" on="0"/>
        <pt x="354" y="686" on="0"/>
        <pt x="328" y="657" on="1"/>
        <pt x="298" y="623" on="0"/>
        <pt x="271" y="587" on="1"/>
      </contour>
    </TTGlyph>
    <TTGlyph name="acircumflex" xMin="30" yMin="-10" xMax="493" yMax="778">
      <contour>
        <pt x="200" y="74" on="1"/>
        <pt x="174" y="74" on="0"/>
        <pt x="149" y="109" on="0"/>
        <pt x="149" y="153" on="1"/>
        <pt x="149" y="196" on="0"/>
        <pt x="166" y="291" on="0"/>
        <pt x="205" y="370" on="0"/>
        <pt x="268" y="421" on="0"/>
        <pt x="313" y="421" on="1"/>
        <pt x="327" y="421" on="0"/>
        <pt x="358" y="417" on="0"/>
        <pt x="370" y="411" on="1"/>
        <pt x="356" y="342" on="1"/>
        <pt x="348" y="304" on="0"/>
        <pt x="317" y="211" on="0"/>
        <pt x="275" y="130" on="0"/>
        <pt x="225" y="74" on="0"/>
      </contour>
      <contour>
        <pt x="163" y="-8" on="1"/>
        <pt x="189" y="-8" on="0"/>
        <pt x="238" y="5" on="0"/>
        <pt x="283" y="37" on="0"/>
        <pt x="323" y="90" on="0"/>
        <pt x="340" y="129" on="1"/>
        <pt x="357" y="169" on="1"/>
        <pt x="354" y="143" on="0"/>
        <pt x="350" y="102" on="0"/>
        <pt x="350" y="89" on="1"/>
        <pt x="350" y="57" on="0"/>
        <pt x="369" y="7" on="0"/>
        <pt x="384" y="-10" on="1"/>
        <pt x="474" y="26" on="1"/>
        <pt x="463" y="42" on="0"/>
        <pt x="438" y="95" on="0"/>
        <pt x="438" y="144" on="1"/>
        <pt x="438" y="184" on="0"/>
        <pt x="448" y="237" on="1"/>
        <pt x="493" y="470" on="1"/>
        <pt x="430" y="474" on="1"/>
        <pt x="390" y="491" on="0"/>
        <pt x="328" y="498" on="0"/>
        <pt x="311" y="498" on="1"/>
        <pt x="243" y="498" on="0"/>
        <pt x="139" y="445" on="0"/>
        <pt x="67" y="352" on="0"/>
        <pt x="30" y="228" on="0"/>
        <pt x="30" y="157" on="1"/>
        <pt x="30" y="126" on="0"/>
        <pt x="45" y="67" on="0"/>
        <pt x="77" y="20" on="0"/>
        <pt x="127" y="-8" on="0"/>
      </contour>
      <contour>
        <pt x="202" y="543" on="1"/>
        <pt x="221" y="557" on="0"/>
        <pt x="241" y="573" on="1"/>
        <pt x="258" y="587" on="0"/>
        <pt x="302" y="622" on="0"/>
        <pt x="325" y="640" on="1"/>
        <pt x="345" y="618" on="0"/>
        <pt x="386" y="584" on="0"/>
        <pt x="403" y="571" on="1"/>
        <pt x="423" y="556" on="0"/>
        <pt x="442" y="544" on="1"/>
        <pt x="490" y="589" on="1"/>
        <pt x="466" y="618" on="0"/>
        <pt x="442" y="650" on="1"/>
        <pt x="421" y="677" on="0"/>
        <pt x="373" y="745" on="0"/>
        <pt x="351" y="778" on="1"/>
        <pt x="321" y="757" on="0"/>
        <pt x="251" y="693" on="0"/>
        <pt x="221" y="663" on="1"/>
        <pt x="186" y="628" on="0"/>
        <pt x="152" y="591" on="1"/>
      </contour>
    </TTGlyph>
    <TTGlyph name="acute" xMin="121" yMin="535" xMax="358" yMax="770">
      <contour>
        <pt x="167" y="535" on="1"/>
        <pt x="201" y="568" on="0"/>
        <pt x="234" y="599" on="1"/>
        <pt x="263" y="625" on="0"/>
        <pt x="329" y="682" on="0"/>
        <pt x="358" y="701" on="1"/>
        <pt x="353" y="714" on="0"/>
        <pt x="333" y="739" on="0"/>
        <pt x="322" y="749" on="1"/>
        <pt x="310" y="760" on="0"/>
        <pt x="296" y="770" on="1"/>
        <pt x="266" y="748" on="0"/>
        <pt x="204" y="686" on="0"/>
        <pt x="178" y="657" on="1"/>
        <pt x="148" y="623" on="0"/>
        <pt x="121" y="587" on="1"/>
      </contour>
    </TTGlyph>
    <TTGlyph name="adieresis" xMin="30" yMin="-10" xMax="493" yMax="689">
      <contour>
        <pt x="200" y="74" on="1"/>
        <pt x="174" y="74" on="0"/>
        <pt x="149" y="109" on="0"/>
        <pt x="149" y="153" on="1"/>
        <pt x="149" y="196" on="0"/>
        <pt x="166" y="291" on="0"/>
        <pt x="205" y="370" on="0"/>
        <pt x="268" y="421" on="0"/>
        <pt x="313" y="421" on="1"/>
        <pt x="327" y="421" on="0"/>
        <pt x="358" y="417" on="0"/>
        <pt x="370" y="411" on="1"/>
        <pt x="356" y="342" on="1"/>
        <pt x="348" y="304" on="0"/>
        <pt x="317" y="211" on="0"/>
        <pt x="275" y="130" on="0"/>
        <pt x="225" y="74" on="0"/>
      </contour>
      <contour>
        <pt x="163" y="-8" on="1"/>
        <pt x="189" y="-8" on="0"/>
        <pt x="238" y="5" on="0"/>
        <pt x="283" y="37" on="0"/>
        <pt x="323" y="90" on="0"/>
        <pt x="340" y="129" on="1"/>
        <pt x="357" y="169" on="1"/>
        <pt x="354" y="143" on="0"/>
        <pt x="350" y="102" on="0"/>
        <pt x="350" y="89" on="1"/>
        <pt x="350" y="57" on="0"/>
        <pt x="369" y="7" on="0"/>
        <pt x="384" y="-10" on="1"/>
        <pt x="474" y="26" on="1"/>
        <pt x="463" y="42" on="0"/>
        <pt x="438" y="95" on="0"/>
        <pt x="438" y="144" on="1"/>
        <pt x="438" y="184" on="0"/>
        <pt x="448" y="237" on="1"/>
        <pt x="493" y="470" on="1"/>
        <pt x="430" y="474" on="1"/>
        <pt x="390" y="491" on="0"/>
        <pt x="328" y="498" on="0"/>
        <pt x="311" y="498" on="1"/>
        <pt x="243" y="498" on="0"/>
        <pt x="139" y="445" on="0"/>
        <pt x="67" y="352" on="0"/>
        <pt x="30" y="228" on="0"/>
        <pt x="30" y="157" on="1"/>
        <pt x="30" y="126" on="0"/>
        <pt x="45" y="67" on="0"/>
        <pt x="77" y="20" on="0"/>
        <pt x="127" y="-8" on="0"/>
      </contour>
      <contour>
        <pt x="241" y="689" on="1"/>
        <pt x="210" y="689" on="0"/>
        <pt x="175" y="648" on="0"/>
        <pt x="175" y="621" on="1"/>
        <pt x="175" y="596" on="0"/>
        <pt x="202" y="564" on="0"/>
        <pt x="231" y="564" on="1"/>
        <pt x="262" y="564" on="0"/>
        <pt x="297" y="604" on="0"/>
        <pt x="297" y="630" on="1"/>
        <pt x="297" y="657" on="0"/>
        <pt x="270" y="689" on="0"/>
      </contour>
      <contour>
        <pt x="430" y="689" on="1"/>
        <pt x="399" y="689" on="0"/>
        <pt x="365" y="648" on="0"/>
        <pt x="365" y="621" on="1"/>
        <pt x="365" y="596" on="0"/>
        <pt x="391" y="564" on="0"/>
        <pt x="420" y="564" on="1"/>
        <pt x="451" y="564" on="0"/>
        <pt x="486" y="604" on="0"/>
        <pt x="486" y="630" on="1"/>
        <pt x="486" y="657" on="0"/>
        <pt x="459" y="689" on="0"/>
      </contour>
    </TTGlyph>
    <TTGlyph name="ae" xMin="30" yMin="-11" xMax="749" yMax="502">
      <contour>
        <pt x="127" y="-8" on="0"/>
        <pt x="77" y="20" on="0"/>
        <pt x="45" y="67" on="0"/>
        <pt x="30" y="126" on="0"/>
        <pt x="30" y="157" on="1"/>
        <pt x="30" y="228" on="0"/>
        <pt x="67" y="352" on="0"/>
        <pt x="139" y="445" on="0"/>
        <pt x="243" y="498" on="0"/>
        <pt x="311" y="498" on="1"/>
        <pt x="349" y="498" on="0"/>
        <pt x="433" y="476" on="0"/>
        <pt x="459" y="458" on="1"/>
        <pt x="489" y="479" on="0"/>
        <pt x="562" y="502" on="0"/>
        <pt x="605" y="502" on="1"/>
        <pt x="683" y="502" on="0"/>
        <pt x="749" y="444" on="0"/>
        <pt x="749" y="394" on="1"/>
        <pt x="749" y="351" on="0"/>
        <pt x="704" y="279" on="0"/>
        <pt x="625" y="225" on="0"/>
        <pt x="515" y="192" on="0"/>
        <pt x="449" y="188" on="1"/>
        <pt x="448" y="184" on="0"/>
        <pt x="443" y="163" on="0"/>
        <pt x="443" y="153" on="1"/>
        <pt x="443" y="106" on="0"/>
        <pt x="483" y="70" on="0"/>
        <pt x="515" y="70" on="1"/>
        <pt x="535" y="70" on="0"/>
        <pt x="587" y="82" on="0"/>
        <pt x="611" y="90" on="1"/>
        <pt x="639" y="99" on="0"/>
        <pt x="668" y="111" on="1"/>
        <pt x="691" y="39" on="1"/>
        <pt x="661" y="25" on="0"/>
        <pt x="628" y="14" on="1"/>
        <pt x="600" y="4" on="0"/>
        <pt x="529" y="-11" on="0"/>
        <pt x="493" y="-11" on="1"/>
        <pt x="454" y="-11" on="0"/>
        <pt x="397" y="8" on="0"/>
        <pt x="358" y="41" on="0"/>
        <pt x="335" y="85" on="0"/>
        <pt x="330" y="110" on="1"/>
        <pt x="313" y="76" on="0"/>
        <pt x="275" y="31" on="0"/>
        <pt x="233" y="4" on="0"/>
        <pt x="187" y="-8" on="0"/>
        <pt x="163" y="-8" on="1"/>
      </contour>
      <contour>
        <pt x="225" y="74" on="0"/>
        <pt x="275" y="130" on="0"/>
        <pt x="317" y="211" on="0"/>
        <pt x="348" y="304" on="0"/>
        <pt x="356" y="342" on="1"/>
        <pt x="370" y="411" on="1"/>
        <pt x="358" y="417" on="0"/>
        <pt x="327" y="421" on="0"/>
        <pt x="313" y="421" on="1"/>
        <pt x="268" y="421" on="0"/>
        <pt x="205" y="370" on="0"/>
        <pt x="166" y="291" on="0"/>
        <pt x="149" y="196" on="0"/>
        <pt x="149" y="153" on="1"/>
        <pt x="149" y="109" on="0"/>
        <pt x="174" y="74" on="0"/>
        <pt x="200" y="74" on="1"/>
      </contour>
      <contour>
        <pt x="559" y="425" on="0"/>
        <pt x="519" y="397" on="0"/>
        <pt x="487" y="351" on="0"/>
        <pt x="464" y="291" on="0"/>
        <pt x="457" y="260" on="1"/>
        <pt x="501" y="263" on="0"/>
        <pt x="568" y="287" on="0"/>
        <pt x="613" y="320" on="0"/>
        <pt x="636" y="359" on="0"/>
        <pt x="636" y="376" on="1"/>
        <pt x="636" y="399" on="0"/>
        <pt x="611" y="425" on="0"/>
        <pt x="582" y="425" on="1"/>
      </contour>
    </TTGlyph>
    <TTGlyph name="agrave" xMin="30" yMin="-10" xMax="493" yMax="770">
      <contour>
        <pt x="200" y="74" on="1"/>
        <pt x="174" y="74" on="0"/>
        <pt x="149" y="109" on="0"/>
        <pt x="149" y="153" on="1"/>
        <pt x="149" y="196" on="0"/>
        <pt x="166" y="291" on="0"/>
        <pt x="205" y="370" on="0"/>
        <pt x="268" y="421" on="0"/>
        <pt x="313" y="421" on="1"/>
        <pt x="327" y="421" on="0"/>
        <pt x="358" y="417" on="0"/>
        <pt x="370" y="411" on="1"/>
        <pt x="356" y="342" on="1"/>
        <pt x="348" y="304" on="0"/>
        <pt x="317" y="211" on="0"/>
        <pt x="275" y="130" on="0"/>
        <pt x="225" y="74" on="0"/>
      </contour>
      <contour>
        <pt x="163" y="-8" on="1"/>
        <pt x="189" y="-8" on="0"/>
        <pt x="238" y="5" on="0"/>
        <pt x="283" y="37" on="0"/>
        <pt x="323" y="90" on="0"/>
        <pt x="340" y="129" on="1"/>
        <pt x="357" y="169" on="1"/>
        <pt x="354" y="143" on="0"/>
        <pt x="350" y="102" on="0"/>
        <pt x="350" y="89" on="1"/>
        <pt x="350" y="57" on="0"/>
        <pt x="369" y="7" on="0"/>
        <pt x="384" y="-10" on="1"/>
        <pt x="474" y="26" on="1"/>
        <pt x="463" y="42" on="0"/>
        <pt x="438" y="95" on="0"/>
        <pt x="438" y="144" on="1"/>
        <pt x="438" y="184" on="0"/>
        <pt x="448" y="237" on="1"/>
        <pt x="493" y="470" on="1"/>
        <pt x="430" y="474" on="1"/>
        <pt x="390" y="491" on="0"/>
        <pt x="328" y="498" on="0"/>
        <pt x="311" y="498" on="1"/>
        <pt x="243" y="498" on="0"/>
        <pt x="139" y="445" on="0"/>
        <pt x="67" y="352" on="0"/>
        <pt x="30" y="228" on="0"/>
        <pt x="30" y="157" on="1"/>
        <pt x="30" y="126" on="0"/>
        <pt x="45" y="67" on="0"/>
        <pt x="77" y="20" on="0"/>
        <pt x="127" y="-8" on="0"/>
      </contour>
      <contour>
        <pt x="350" y="581" on="1"/>
        <pt x="323" y="607" on="0"/>
        <pt x="297" y="638" on="1"/>
        <pt x="275" y="664" on="0"/>
        <pt x="228" y="732" on="0"/>
        <pt x="211" y="770" on="1"/>
        <pt x="191" y="762" on="0"/>
        <pt x="163" y="742" on="0"/>
        <pt x="153" y="732" on="1"/>
        <pt x="142" y="721" on="0"/>
        <pt x="134" y="709" on="1"/>
        <pt x="150" y="672" on="0"/>
        <pt x="206" y="609" on="0"/>
        <pt x="234" y="586" on="1"/>
        <pt x="267" y="559" on="0"/>
        <pt x="302" y="536" on="1"/>
      </contour>
    </TTGlyph>
    <TTGlyph name="ampersand" xMin="5" yMin="-6" xMax="514" yMax="595">
      <contour>
        <pt x="460" y="513" on="1"/>
        <pt x="442" y="547" on="0"/>
        <pt x="387" y="595" on="0"/>
        <pt x="338" y="595" on="1"/>
        <pt x="288" y="595" on="0"/>
        <pt x="215" y="566" on="0"/>
        <pt x="167" y="517" on="0"/>
        <pt x="143" y="454" on="0"/>
        <pt x="143" y="420" on="1"/>
        <pt x="143" y="406" on="0"/>
        <pt x="146" y="380" on="0"/>
        <pt x="151" y="366" on="1"/>
        <pt x="84" y="330" on="0"/>
        <pt x="5" y="226" on="0"/>
        <pt x="5" y="141" on="1"/>
        <pt x="5" y="107" on="0"/>
        <pt x="29" y="53" on="0"/>
        <pt x="71" y="15" on="0"/>
        <pt x="129" y="-6" on="0"/>
        <pt x="164" y="-6" on="1"/>
        <pt x="228" y="-6" on="0"/>
        <pt x="330" y="37" on="0"/>
        <pt x="372" y="72" on="1"/>
        <pt x="392" y="52" on="0"/>
        <pt x="430" y="15" on="0"/>
        <pt x="449" y="-5" on="1"/>
        <pt x="514" y="62" on="1"/>
        <pt x="494" y="82" on="0"/>
        <pt x="457" y="121" on="0"/>
        <pt x="439" y="141" on="1"/>
        <pt x="460" y="169" on="0"/>
        <pt x="496" y="228" on="0"/>
        <pt x="512" y="258" on="1"/>
        <pt x="439" y="307" on="1"/>
        <pt x="425" y="286" on="0"/>
        <pt x="391" y="239" on="0"/>
        <pt x="373" y="216" on="1"/>
        <pt x="321" y="277" on="0"/>
        <pt x="257" y="385" on="0"/>
        <pt x="257" y="429" on="1"/>
        <pt x="257" y="460" on="0"/>
        <pt x="293" y="502" on="0"/>
        <pt x="330" y="502" on="1"/>
        <pt x="352" y="502" on="0"/>
        <pt x="382" y="478" on="0"/>
        <pt x="390" y="462" on="1"/>
      </contour>
      <contour>
        <pt x="304" y="142" on="1"/>
        <pt x="279" y="119" on="0"/>
        <pt x="228" y="92" on="0"/>
        <pt x="202" y="92" on="1"/>
        <pt x="164" y="92" on="0"/>
        <pt x="125" y="135" on="0"/>
        <pt x="125" y="167" on="1"/>
        <pt x="125" y="208" on="0"/>
        <pt x="156" y="263" on="0"/>
        <pt x="185" y="290" on="1"/>
        <pt x="207" y="253" on="0"/>
        <pt x="269" y="179" on="0"/>
      </contour>
    </TTGlyph>
    <TTGlyph name="apostrophe" xMin="86" yMin="436" xMax="294" yMax="723">
      <contour>
        <pt x="176" y="639" on="1"/>
        <pt x="176" y="622" on="0"/>
        <pt x="169" y="585" on="0"/>
        <pt x="149" y="548" on="0"/>
        <pt x="114" y="509" on="0"/>
        <pt x="86" y="491" on="1"/>
        <pt x="119" y="436" on="1"/>
        <pt x="148" y="449" on="0"/>
        <pt x="210" y="498" on="0"/>
        <pt x="261" y="561" on="0"/>
        <pt x="294" y="632" on="0"/>
        <pt x="294" y="668" on="1"/>
        <pt x="294" y="694" on="0"/>
        <pt x="270" y="723" on="0"/>
        <pt x="241" y="723" on="1"/>
        <pt x="224" y="723" on="0"/>
        <pt x="198" y="717" on="0"/>
        <pt x="190" y="714" on="1"/>
        <pt x="180" y="710" on="0"/>
        <pt x="173" y="705" on="1"/>
        <pt x="176" y="679" on="0"/>
      </contour>
    </TTGlyph>
    <TTGlyph name="aring" xMin="64" yMin="-10" xMax="526" yMax="744">
      <contour>
        <pt x="234" y="74" on="1"/>
        <pt x="208" y="74" on="0"/>
        <pt x="183" y="109" on="0"/>
        <pt x="183" y="153" on="1"/>
        <pt x="183" y="196" on="0"/>
        <pt x="200" y="291" on="0"/>
        <pt x="239" y="370" on="0"/>
        <pt x="302" y="421" on="0"/>
        <pt x="347" y="421" on="1"/>
        <pt x="361" y="421" on="0"/>
        <pt x="392" y="417" on="0"/>
        <pt x="404" y="411" on="1"/>
        <pt x="390" y="342" on="1"/>
        <pt x="382" y="304" on="0"/>
        <pt x="350" y="211" on="0"/>
        <pt x="308" y="130" on="0"/>
        <pt x="259" y="74" on="0"/>
      </contour>
      <contour>
        <pt x="197" y="-8" on="1"/>
        <pt x="223" y="-8" on="0"/>
        <pt x="272" y="5" on="0"/>
        <pt x="316" y="37" on="0"/>
        <pt x="356" y="90" on="0"/>
        <pt x="373" y="129" on="1"/>
        <pt x="391" y="169" on="1"/>
        <pt x="388" y="143" on="0"/>
        <pt x="383" y="102" on="0"/>
        <pt x="383" y="89" on="1"/>
        <pt x="383" y="57" on="0"/>
        <pt x="402" y="7" on="0"/>
        <pt x="417" y="-10" on="1"/>
        <pt x="508" y="26" on="1"/>
        <pt x="497" y="42" on="0"/>
        <pt x="471" y="95" on="0"/>
        <pt x="471" y="144" on="1"/>
        <pt x="471" y="184" on="0"/>
        <pt x="481" y="237" on="1"/>
        <pt x="526" y="470" on="1"/>
        <pt x="464" y="474" on="1"/>
        <pt x="424" y="491" on="0"/>
        <pt x="362" y="498" on="0"/>
        <pt x="345" y="498" on="1"/>
        <pt x="277" y="498" on="0"/>
        <pt x="173" y="445" on="0"/>
        <pt x="101" y="352" on="0"/>
        <pt x="64" y="228" on="0"/>
        <pt x="64" y="157" on="1"/>
        <pt x="64" y="126" on="0"/>
        <pt x="79" y="67" on="0"/>
        <pt x="111" y="20" on="0"/>
        <pt x="161" y="-8" on="0"/>
      </contour>
      <contour>
        <pt x="395" y="694" on="1"/>
        <pt x="412" y="694" on="0"/>
        <pt x="430" y="674" on="0"/>
        <pt x="430" y="658" on="1"/>
        <pt x="430" y="631" on="0"/>
        <pt x="399" y="593" on="0"/>
        <pt x="376" y="593" on="1"/>
        <pt x="360" y="593" on="0"/>
        <pt x="342" y="613" on="0"/>
        <pt x="342" y="629" on="1"/>
        <pt x="342" y="654" on="0"/>
        <pt x="370" y="694" on="0"/>
      </contour>
      <contour>
        <pt x="365" y="543" on="1"/>
        <pt x="392" y="543" on="0"/>
        <pt x="435" y="564" on="0"/>
        <pt x="467" y="598" on="0"/>
        <pt x="484" y="643" on="0"/>
        <pt x="484" y="667" on="1"/>
        <pt x="484" y="701" on="0"/>
        <pt x="442" y="744" on="0"/>
        <pt x="406" y="744" on="1"/>
        <pt x="380" y="744" on="0"/>
        <pt x="336" y="723" on="0"/>
        <pt x="305" y="689" on="0"/>
        <pt x="288" y="644" on="0"/>
        <pt x="288" y="620" on="1"/>
        <pt x="288" y="586" on="0"/>
        <pt x="330" y="543" on="0"/>
      </contour>
    </TTGlyph>
    <TTGlyph name="asciicircum" xMin="45" yMin="283" xMax="466" yMax="670">
      <contour>
        <pt x="466" y="308" on="1"/>
        <pt x="360" y="670" on="1"/>
        <pt x="279" y="670" on="1"/>
        <pt x="45" y="328" on="1"/>
        <pt x="131" y="283" on="1"/>
        <pt x="260" y="488" on="1"/>
        <pt x="273" y="508" on="0"/>
        <pt x="292" y="551" on="0"/>
        <pt x="297" y="564" on="1"/>
        <pt x="299" y="551" on="0"/>
        <pt x="306" y="509" on="0"/>
        <pt x="312" y="489" on="1"/>
        <pt x="359" y="295" on="1"/>
      </contour>
    </TTGlyph>
    <TTGlyph name="asciitilde" xMin="45" yMin="248" xMax="458" yMax="391">
      <contour>
        <pt x="184" y="391" on="1"/>
        <pt x="160" y="391" on="0"/>
        <pt x="118" y="375" on="0"/>
        <pt x="83" y="349" on="0"/>
        <pt x="55" y="319" on="0"/>
        <pt x="45" y="306" on="1"/>
        <pt x="85" y="262" on="1"/>
        <pt x="110" y="285" on="0"/>
        <pt x="142" y="308" on="0"/>
        <pt x="171" y="308" on="1"/>
        <pt x="193" y="308" on="0"/>
        <pt x="224" y="289" on="0"/>
        <pt x="254" y="267" on="0"/>
        <pt x="291" y="248" on="0"/>
        <pt x="319" y="248" on="1"/>
        <pt x="343" y="248" on="0"/>
        <pt x="385" y="264" on="0"/>
        <pt x="420" y="289" on="0"/>
        <pt x="447" y="319" on="0"/>
        <pt x="458" y="332" on="1"/>
        <pt x="418" y="377" on="1"/>
        <pt x="405" y="365" on="0"/>
        <pt x="386" y="348" on="0"/>
        <pt x="367" y="336" on="0"/>
        <pt x="346" y="331" on="0"/>
        <pt x="332" y="331" on="1"/>
        <pt x="310" y="331" on="0"/>
        <pt x="279" y="350" on="0"/>
        <pt x="249" y="372" on="0"/>
        <pt x="212" y="391" on="0"/>
      </contour>
    </TTGlyph>
    <TTGlyph name="asterisk" xMin="80" yMin="346" xMax="417" yMax="679">
      <contour>
        <pt x="80" y="526" on="1"/>
        <pt x="176" y="492" on="1"/>
        <pt x="85" y="405" on="1"/>
        <pt x="149" y="349" on="1"/>
        <pt x="227" y="448" on="1"/>
        <pt x="279" y="346" on="1"/>
        <pt x="355" y="394" on="1"/>
        <pt x="294" y="490" on="1"/>
        <pt x="417" y="525" on="1"/>
        <pt x="395" y="606" on="1"/>
        <pt x="284" y="562" on="1"/>
        <pt x="314" y="670" on="1"/>
        <pt x="227" y="679" on="1"/>
        <pt x="211" y="562" on="1"/>
        <pt x="113" y="604" on="1"/>
      </contour>
    </TTGlyph>
    <TTGlyph name="at" xMin="20" yMin="-162" xMax="819" yMax="616">
      <contour>
        <pt x="601" y="239" on="1"/>
        <pt x="634" y="430" on="1"/>
        <pt x="573" y="434" on="1"/>
        <pt x="534" y="450" on="0"/>
        <pt x="483" y="456" on="0"/>
        <pt x="466" y="456" on="1"/>
        <pt x="400" y="456" on="0"/>
        <pt x="299" y="407" on="0"/>
        <pt x="229" y="323" on="0"/>
        <pt x="193" y="209" on="0"/>
        <pt x="193" y="145" on="1"/>
        <pt x="193" y="116" on="0"/>
        <pt x="207" y="62" on="0"/>
        <pt x="239" y="20" on="0"/>
        <pt x="287" y="-6" on="0"/>
        <pt x="322" y="-6" on="1"/>
        <pt x="348" y="-6" on="0"/>
        <pt x="398" y="7" on="0"/>
        <pt x="444" y="39" on="0"/>
        <pt x="485" y="92" on="0"/>
        <pt x="502" y="132" on="1"/>
        <pt x="519" y="171" on="1"/>
        <pt x="515" y="148" on="0"/>
        <pt x="510" y="119" on="0"/>
        <pt x="510" y="99" on="1"/>
        <pt x="510" y="85" on="0"/>
        <pt x="515" y="48" on="0"/>
        <pt x="531" y="16" on="0"/>
        <pt x="562" y="-6" on="0"/>
        <pt x="588" y="-6" on="1"/>
        <pt x="642" y="-6" on="0"/>
        <pt x="728" y="62" on="0"/>
        <pt x="788" y="167" on="0"/>
        <pt x="819" y="295" on="0"/>
        <pt x="819" y="356" on="1"/>
        <pt x="819" y="422" on="0"/>
        <pt x="773" y="520" on="0"/>
        <pt x="695" y="584" on="0"/>
        <pt x="591" y="616" on="0"/>
        <pt x="532" y="616" on="1"/>
        <pt x="430" y="616" on="0"/>
        <pt x="244" y="547" on="0"/>
        <pt x="103" y="415" on="0"/>
        <pt x="20" y="222" on="0"/>
        <pt x="20" y="98" on="1"/>
        <pt x="20" y="23" on="0"/>
        <pt x="68" y="-77" on="0"/>
        <pt x="147" y="-137" on="0"/>
        <pt x="251" y="-162" on="0"/>
        <pt x="307" y="-162" on="1"/>
        <pt x="343" y="-162" on="0"/>
        <pt x="415" y="-148" on="0"/>
        <pt x="444" y="-139" on="1"/>
        <pt x="477" y="-128" on="0"/>
        <pt x="509" y="-115" on="1"/>
        <pt x="490" y="-48" on="1"/>
        <pt x="463" y="-59" on="0"/>
        <pt x="434" y="-67" on="1"/>
        <pt x="409" y="-74" on="0"/>
        <pt x="350" y="-85" on="0"/>
        <pt x="321" y="-85" on="1"/>
        <pt x="259" y="-85" on="0"/>
        <pt x="176" y="-57" on="0"/>
        <pt x="126" y="-6" on="0"/>
        <pt x="105" y="68" on="0"/>
        <pt x="105" y="115" on="1"/>
        <pt x="105" y="215" on="0"/>
        <pt x="172" y="373" on="0"/>
        <pt x="283" y="481" on="0"/>
        <pt x="428" y="538" on="0"/>
        <pt x="507" y="538" on="1"/>
        <pt x="616" y="538" on="0"/>
        <pt x="734" y="439" on="0"/>
        <pt x="734" y="334" on="1"/>
        <pt x="734" y="303" on="0"/>
        <pt x="714" y="214" on="0"/>
        <pt x="680" y="131" on="0"/>
        <pt x="635" y="73" on="0"/>
        <pt x="609" y="73" on="1"/>
        <pt x="592" y="73" on="0"/>
        <pt x="584" y="99" on="0"/>
        <pt x="584" y="117" on="1"/>
        <pt x="584" y="141" on="0"/>
        <pt x="594" y="201" on="0"/>
      </contour>
      <contour>
        <pt x="358" y="76" on="1"/>
        <pt x="335" y="76" on="0"/>
        <pt x="311" y="108" on="0"/>
        <pt x="311" y="146" on="1"/>
        <pt x="311" y="184" on="0"/>
        <pt x="327" y="268" on="0"/>
        <pt x="363" y="338" on="0"/>
        <pt x="421" y="383" on="0"/>
        <pt x="463" y="383" on="1"/>
        <pt x="475" y="383" on="0"/>
        <pt x="503" y="379" on="0"/>
        <pt x="514" y="374" on="1"/>
        <pt x="501" y="313" on="1"/>
        <pt x="494" y="280" on="0"/>
        <pt x="465" y="198" on="0"/>
        <pt x="426" y="125" on="0"/>
        <pt x="381" y="76" on="0"/>
      </contour>
    </TTGlyph>
    <TTGlyph name="atilde" xMin="30" yMin="-10" xMax="493" yMax="686">
      <contour>
        <pt x="200" y="74" on="1"/>
        <pt x="174" y="74" on="0"/>
        <pt x="149" y="109" on="0"/>
        <pt x="149" y="153" on="1"/>
        <pt x="149" y="196" on="0"/>
        <pt x="166" y="291" on="0"/>
        <pt x="205" y="370" on="0"/>
        <pt x="268" y="421" on="0"/>
        <pt x="313" y="421" on="1"/>
        <pt x="327" y="421" on="0"/>
        <pt x="358" y="417" on="0"/>
        <pt x="370" y="411" on="1"/>
        <pt x="356" y="342" on="1"/>
        <pt x="348" y="304" on="0"/>
        <pt x="317" y="211" on="0"/>
        <pt x="275" y="130" on="0"/>
        <pt x="225" y="74" on="0"/>
      </contour>
      <contour>
        <pt x="163" y="-8" on="1"/>
        <pt x="189" y="-8" on="0"/>
        <pt x="238" y="5" on="0"/>
        <pt x="283" y="37" on="0"/>
        <pt x="323" y="90" on="0"/>
        <pt x="340" y="129" on="1"/>
        <pt x="357" y="169" on="1"/>
        <pt x="354" y="143" on="0"/>
        <pt x="350" y="102" on="0"/>
        <pt x="350" y="89" on="1"/>
        <pt x="350" y="57" on="0"/>
        <pt x="369" y="7" on="0"/>
        <pt x="384" y="-10" on="1"/>
        <pt x="474" y="26" on="1"/>
        <pt x="463" y="42" on="0"/>
        <pt x="438" y="95" on="0"/>
        <pt x="438" y="144" on="1"/>
        <pt x="438" y="184" on="0"/>
        <pt x="448" y="237" on="1"/>
        <pt x="493" y="470" on="1"/>
        <pt x="430" y="474" on="1"/>
        <pt x="390" y="491" on="0"/>
        <pt x="328" y="498" on="0"/>
        <pt x="311" y="498" on="1"/>
        <pt x="243" y="498" on="0"/>
        <pt x="139" y="445" on="0"/>
        <pt x="67" y="352" on="0"/>
        <pt x="30" y="228" on="0"/>
        <pt x="30" y="157" on="1"/>
        <pt x="30" y="126" on="0"/>
        <pt x="45" y="67" on="0"/>
        <pt x="77" y="20" on="0"/>
        <pt x="127" y="-8" on="0"/>
      </contour>
      <contour>
        <pt x="492" y="680" on="1"/>
        <pt x="480" y="676" on="0"/>
        <pt x="468" y="673" on="1"/>
        <pt x="457" y="670" on="0"/>
        <pt x="429" y="666" on="0"/>
        <pt x="412" y="666" on="1"/>
        <pt x="377" y="666" on="0"/>
        <pt x="302" y="686" on="0"/>
        <pt x="267" y="686" on="1"/>
        <pt x="250" y="686" on="0"/>
        <pt x="221" y="679" on="0"/>
        <pt x="210" y="674" on="1"/>
        <pt x="197" y="669" on="0"/>
        <pt x="187" y="663" on="1"/>
        <pt x="172" y="589" on="1"/>
        <pt x="183" y="592" on="0"/>
        <pt x="195" y="596" on="1"/>
        <pt x="206" y="598" on="0"/>
        <pt x="234" y="603" on="0"/>
        <pt x="251" y="603" on="1"/>
        <pt x="286" y="603" on="0"/>
        <pt x="362" y="583" on="0"/>
        <pt x="397" y="583" on="1"/>
        <pt x="413" y="583" on="0"/>
        <pt x="442" y="589" on="0"/>
        <pt x="453" y="594" on="1"/>
        <pt x="466" y="599" on="0"/>
        <pt x="477" y="606" on="1"/>
      </contour>
    </TTGlyph>
    <TTGlyph name="b" xMin="24" yMin="-8" xMax="484" yMax="725">
      <contour>
        <pt x="484" y="262" on="0"/>
        <pt x="447" y="138" on="0"/>
        <pt x="375" y="45" on="0"/>
        <pt x="270" y="-8" on="0"/>
        <pt x="203" y="-8" on="1"/>
        <pt x="167" y="-8" on="0"/>
        <pt x="101" y="8" on="0"/>
        <pt x="52" y="26" on="0"/>
        <pt x="24" y="41" on="0"/>
        <pt x="25" y="41" on="1"/>
        <pt x="155" y="705" on="1"/>
        <pt x="268" y="725" on="1"/>
        <pt x="237" y="558" on="1"/>
        <pt x="231" y="526" on="0"/>
        <pt x="205" y="436" on="0"/>
        <pt x="192" y="396" on="1"/>
        <pt x="224" y="454" on="0"/>
        <pt x="305" y="498" on="0"/>
        <pt x="351" y="498" on="1"/>
        <pt x="387" y="498" on="0"/>
        <pt x="437" y="470" on="0"/>
        <pt x="469" y="423" on="0"/>
        <pt x="484" y="364" on="0"/>
        <pt x="484" y="333" on="1"/>
      </contour>
      <contour>
        <pt x="290" y="416" on="0"/>
        <pt x="243" y="368" on="0"/>
        <pt x="200" y="289" on="0"/>
        <pt x="165" y="188" on="0"/>
        <pt x="155" y="134" on="1"/>
        <pt x="144" y="78" on="1"/>
        <pt x="159" y="73" on="0"/>
        <pt x="190" y="69" on="0"/>
        <pt x="201" y="69" on="1"/>
        <pt x="246" y="69" on="0"/>
        <pt x="308" y="120" on="0"/>
        <pt x="347" y="199" on="0"/>
        <pt x="365" y="294" on="0"/>
        <pt x="365" y="337" on="1"/>
        <pt x="365" y="381" on="0"/>
        <pt x="340" y="416" on="0"/>
        <pt x="314" y="416" on="1"/>
      </contour>
    </TTGlyph>
    <TTGlyph name="backslash" xMin="100" yMin="-126" xMax="354" yMax="729">
      <contour>
        <pt x="354" y="-126" on="1"/>
        <pt x="248" y="-126" on="1"/>
        <pt x="100" y="729" on="1"/>
        <pt x="205" y="729" on="1"/>
      </contour>
    </TTGlyph>
    <TTGlyph name="bar" xMin="20" yMin="-126" xMax="289" yMax="729">
      <contour>
        <pt x="187" y="729" on="1"/>
        <pt x="20" y="-126" on="1"/>
        <pt x="122" y="-126" on="1"/>
        <pt x="289" y="729" on="1"/>
      </contour>
    </TTGlyph>
    <TTGlyph name="braceleft" xMin="25" yMin="-192" xMax="383" yMax="724">
      <contour>
        <pt x="33" y="-55" on="1"/>
        <pt x="31" y="-64" on="0"/>
        <pt x="25" y="-88" on="0"/>
        <pt x="25" y="-94" on="1"/>
        <pt x="25" y="-147" on="0"/>
        <pt x="92" y="-192" on="0"/>
        <pt x="145" y="-192" on="1"/>
        <pt x="164" y="-192" on="0"/>
        <pt x="192" y="-189" on="0"/>
        <pt x="210" y="-186" on="1"/>
        <pt x="228" y="-97" on="1"/>
        <pt x="214" y="-102" on="0"/>
        <pt x="187" y="-107" on="0"/>
        <pt x="178" y="-107" on="1"/>
        <pt x="161" y="-107" on="0"/>
        <pt x="139" y="-87" on="0"/>
        <pt x="139" y="-70" on="1"/>
        <pt x="139" y="-67" on="0"/>
        <pt x="140" y="-61" on="0"/>
        <pt x="141" y="-57" on="1"/>
        <pt x="184" y="110" on="1"/>
        <pt x="188" y="125" on="0"/>
        <pt x="195" y="163" on="0"/>
        <pt x="195" y="178" on="1"/>
        <pt x="195" y="207" on="0"/>
        <pt x="162" y="246" on="0"/>
        <pt x="130" y="262" on="1"/>
        <pt x="161" y="278" on="0"/>
        <pt x="203" y="315" on="0"/>
        <pt x="229" y="355" on="0"/>
        <pt x="242" y="397" on="0"/>
        <pt x="245" y="420" on="1"/>
        <pt x="265" y="593" on="1"/>
        <pt x="267" y="606" on="0"/>
        <pt x="291" y="637" on="0"/>
        <pt x="318" y="637" on="1"/>
        <pt x="326" y="637" on="0"/>
        <pt x="354" y="631" on="0"/>
        <pt x="366" y="626" on="1"/>
        <pt x="383" y="716" on="1"/>
        <pt x="364" y="720" on="0"/>
        <pt x="334" y="724" on="0"/>
        <pt x="315" y="724" on="1"/>
        <pt x="248" y="724" on="0"/>
        <pt x="164" y="661" on="0"/>
        <pt x="157" y="609" on="1"/>
        <pt x="132" y="406" on="1"/>
        <pt x="129" y="383" on="0"/>
        <pt x="110" y="348" on="0"/>
        <pt x="82" y="322" on="0"/>
        <pt x="48" y="306" on="0"/>
        <pt x="30" y="302" on="1"/>
        <pt x="30" y="224" on="1"/>
        <pt x="62" y="219" on="0"/>
        <pt x="84" y="176" on="0"/>
        <pt x="84" y="150" on="1"/>
        <pt x="84" y="140" on="0"/>
        <pt x="80" y="124" on="0"/>
        <pt x="78" y="116" on="1"/>
      </contour>
    </TTGlyph>
    <TTGlyph name="braceright" xMin="-70" yMin="-192" xMax="288" yMax="724">
      <contour>
        <pt x="280" y="587" on="1"/>
        <pt x="282" y="596" on="0"/>
        <pt x="288" y="620" on="0"/>
        <pt x="288" y="626" on="1"/>
        <pt x="288" y="653" on="0"/>
        <pt x="270" y="690" on="0"/>
        <pt x="238" y="713" on="0"/>
        <pt x="194" y="724" on="0"/>
        <pt x="168" y="724" on="1"/>
        <pt x="149" y="724" on="0"/>
        <pt x="121" y="721" on="0"/>
        <pt x="103" y="718" on="1"/>
        <pt x="85" y="629" on="1"/>
        <pt x="99" y="634" on="0"/>
        <pt x="126" y="639" on="0"/>
        <pt x="135" y="639" on="1"/>
        <pt x="152" y="639" on="0"/>
        <pt x="174" y="619" on="0"/>
        <pt x="174" y="602" on="1"/>
        <pt x="174" y="599" on="0"/>
        <pt x="173" y="593" on="0"/>
        <pt x="172" y="589" on="1"/>
        <pt x="129" y="422" on="1"/>
        <pt x="125" y="407" on="0"/>
        <pt x="118" y="369" on="0"/>
        <pt x="118" y="354" on="1"/>
        <pt x="118" y="325" on="0"/>
        <pt x="151" y="286" on="0"/>
        <pt x="183" y="270" on="1"/>
        <pt x="151" y="254" on="0"/>
        <pt x="110" y="217" on="0"/>
        <pt x="84" y="177" on="0"/>
        <pt x="71" y="134" on="0"/>
        <pt x="68" y="112" on="1"/>
        <pt x="48" y="-61" on="1"/>
        <pt x="46" y="-75" on="0"/>
        <pt x="22" y="-105" on="0"/>
        <pt x="-5" y="-105" on="1"/>
        <pt x="-13" y="-105" on="0"/>
        <pt x="-41" y="-99" on="0"/>
        <pt x="-53" y="-94" on="1"/>
        <pt x="-70" y="-184" on="1"/>
        <pt x="-51" y="-188" on="0"/>
        <pt x="-21" y="-192" on="0"/>
        <pt x="-2" y="-192" on="1"/>
        <pt x="65" y="-192" on="0"/>
        <pt x="149" y="-129" on="0"/>
        <pt x="156" y="-77" on="1"/>
        <pt x="181" y="126" on="1"/>
        <pt x="184" y="149" on="0"/>
        <pt x="203" y="184" on="0"/>
        <pt x="231" y="210" on="0"/>
        <pt x="265" y="226" on="0"/>
        <pt x="283" y="230" on="1"/>
        <pt x="283" y="307" on="1"/>
        <pt x="251" y="312" on="0"/>
        <pt x="229" y="356" on="0"/>
        <pt x="229" y="382" on="1"/>
        <pt x="229" y="392" on="0"/>
        <pt x="233" y="408" on="0"/>
        <pt x="235" y="416" on="1"/>
      </contour>
    </TTGlyph>
    <TTGlyph name="bracketleft" xMin="30" yMin="-186" xMax="425" yMax="720">
      <contour>
        <pt x="30" y="-186" on="1"/>
        <pt x="253" y="-186" on="1"/>
        <pt x="269" y="-98" on="1"/>
        <pt x="151" y="-98" on="1"/>
        <pt x="292" y="632" on="1"/>
        <pt x="408" y="632" on="1"/>
        <pt x="425" y="720" on="1"/>
        <pt x="203" y="720" on="1"/>
      </contour>
    </TTGlyph>
    <TTGlyph name="bracketright" xMin="-60" yMin="-186" xMax="335" yMax="720">
      <contour>
        <pt x="335" y="720" on="1"/>
        <pt x="112" y="720" on="1"/>
        <pt x="96" y="632" on="1"/>
        <pt x="212" y="632" on="1"/>
        <pt x="73" y="-98" on="1"/>
        <pt x="-43" y="-98" on="1"/>
        <pt x="-60" y="-186" on="1"/>
        <pt x="162" y="-186" on="1"/>
      </contour>
    </TTGlyph>
    <TTGlyph name="brokenbar" xMin="20" yMin="-126" xMax="287" yMax="729">
      <contour>
        <pt x="186" y="729" on="1"/>
        <pt x="113" y="353" on="1"/>
        <pt x="215" y="353" on="1"/>
        <pt x="287" y="729" on="1"/>
      </contour>
      <contour>
        <pt x="92" y="248" on="1"/>
        <pt x="20" y="-126" on="1"/>
        <pt x="121" y="-126" on="1"/>
        <pt x="194" y="248" on="1"/>
      </contour>
    </TTGlyph>
    <TTGlyph name="bullet" xMin="41" yMin="207" xMax="248" yMax="418">
      <contour>
        <pt x="153" y="418" on="1"/>
        <pt x="127" y="418" on="0"/>
        <pt x="85" y="399" on="0"/>
        <pt x="56" y="368" on="0"/>
        <pt x="41" y="326" on="0"/>
        <pt x="41" y="302" on="1"/>
        <pt x="41" y="259" on="0"/>
        <pt x="86" y="207" on="0"/>
        <pt x="134" y="207" on="1"/>
        <pt x="161" y="207" on="0"/>
        <pt x="203" y="225" on="0"/>
        <pt x="232" y="257" on="0"/>
        <pt x="248" y="298" on="0"/>
        <pt x="248" y="321" on="1"/>
        <pt x="248" y="366" on="0"/>
        <pt x="201" y="418" on="0"/>
      </contour>
    </TTGlyph>
    <TTGlyph name="c" xMin="30" yMin="-11" xMax="426" yMax="502">
      <contour>
        <pt x="358" y="25" on="1"/>
        <pt x="334" y="15" on="0"/>
        <pt x="308" y="7" on="1"/>
        <pt x="285" y="0" on="0"/>
        <pt x="228" y="-11" on="0"/>
        <pt x="197" y="-11" on="1"/>
        <pt x="150" y="-11" on="0"/>
        <pt x="86" y="17" on="0"/>
        <pt x="47" y="64" on="0"/>
        <pt x="30" y="124" on="0"/>
        <pt x="30" y="156" on="1"/>
        <pt x="30" y="226" on="0"/>
        <pt x="67" y="352" on="0"/>
        <pt x="138" y="447" on="0"/>
        <pt x="242" y="502" on="0"/>
        <pt x="309" y="502" on="1"/>
        <pt x="337" y="502" on="0"/>
        <pt x="378" y="485" on="0"/>
        <pt x="405" y="458" on="0"/>
        <pt x="421" y="424" on="0"/>
        <pt x="426" y="406" on="1"/>
        <pt x="343" y="370" on="1"/>
        <pt x="339" y="379" on="0"/>
        <pt x="331" y="398" on="0"/>
        <pt x="319" y="412" on="0"/>
        <pt x="301" y="421" on="0"/>
        <pt x="286" y="421" on="1"/>
        <pt x="253" y="421" on="0"/>
        <pt x="202" y="368" on="0"/>
        <pt x="167" y="289" on="0"/>
        <pt x="149" y="195" on="0"/>
        <pt x="149" y="153" on="1"/>
        <pt x="149" y="106" on="0"/>
        <pt x="187" y="70" on="0"/>
        <pt x="220" y="70" on="1"/>
        <pt x="233" y="70" on="0"/>
        <pt x="272" y="78" on="0"/>
        <pt x="309" y="89" on="0"/>
        <pt x="322" y="93" on="1"/>
        <pt x="334" y="97" on="1"/>
      </contour>
    </TTGlyph>
    <TTGlyph name="ccedilla" xMin="30" yMin="-219" xMax="426" yMax="502">
      <contour>
        <pt x="334" y="97" on="1"/>
        <pt x="333" y="96" on="0"/>
        <pt x="307" y="88" on="0"/>
        <pt x="271" y="78" on="0"/>
        <pt x="233" y="70" on="0"/>
        <pt x="220" y="70" on="1"/>
        <pt x="187" y="70" on="0"/>
        <pt x="149" y="106" on="0"/>
        <pt x="149" y="153" on="1"/>
        <pt x="149" y="195" on="0"/>
        <pt x="167" y="289" on="0"/>
        <pt x="202" y="368" on="0"/>
        <pt x="253" y="421" on="0"/>
        <pt x="286" y="421" on="1"/>
        <pt x="301" y="421" on="0"/>
        <pt x="319" y="412" on="0"/>
        <pt x="331" y="398" on="0"/>
        <pt x="339" y="379" on="0"/>
        <pt x="343" y="370" on="1"/>
        <pt x="426" y="406" on="1"/>
        <pt x="421" y="424" on="0"/>
        <pt x="405" y="458" on="0"/>
        <pt x="378" y="485" on="0"/>
        <pt x="337" y="502" on="0"/>
        <pt x="309" y="502" on="1"/>
        <pt x="242" y="502" on="0"/>
        <pt x="138" y="447" on="0"/>
        <pt x="67" y="352" on="0"/>
        <pt x="30" y="226" on="0"/>
        <pt x="30" y="156" on="1"/>
        <pt x="30" y="126" on="0"/>
        <pt x="45" y="68" on="0"/>
        <pt x="79" y="22" on="0"/>
        <pt x="136" y="-7" on="0"/>
        <pt x="178" y="-10" on="1"/>
        <pt x="161" y="-38" on="0"/>
        <pt x="161" y="-54" on="1"/>
        <pt x="161" y="-71" on="0"/>
        <pt x="183" y="-89" on="0"/>
        <pt x="208" y="-102" on="0"/>
        <pt x="230" y="-117" on="0"/>
        <pt x="230" y="-132" on="1"/>
        <pt x="230" y="-146" on="0"/>
        <pt x="201" y="-159" on="0"/>
        <pt x="182" y="-159" on="1"/>
        <pt x="161" y="-159" on="0"/>
        <pt x="127" y="-144" on="0"/>
        <pt x="115" y="-136" on="1"/>
        <pt x="86" y="-191" on="1"/>
        <pt x="106" y="-205" on="0"/>
        <pt x="156" y="-219" on="0"/>
        <pt x="181" y="-219" on="1"/>
        <pt x="205" y="-219" on="0"/>
        <pt x="250" y="-209" on="0"/>
        <pt x="286" y="-186" on="0"/>
        <pt x="308" y="-148" on="0"/>
        <pt x="308" y="-121" on="1"/>
        <pt x="308" y="-101" on="0"/>
        <pt x="285" y="-77" on="0"/>
        <pt x="257" y="-59" on="0"/>
        <pt x="234" y="-44" on="0"/>
        <pt x="234" y="-33" on="1"/>
        <pt x="234" y="-28" on="0"/>
        <pt x="237" y="-15" on="0"/>
        <pt x="241" y="-8" on="1"/>
        <pt x="265" y="-5" on="0"/>
        <pt x="306" y="6" on="0"/>
        <pt x="337" y="16" on="0"/>
        <pt x="356" y="24" on="0"/>
        <pt x="358" y="25" on="1"/>
      </contour>
    </TTGlyph>
    <TTGlyph name="cedilla" xMin="131" yMin="-219" xMax="354" yMax="3">
      <contour>
        <pt x="231" y="3" on="1"/>
        <pt x="219" y="-16" on="0"/>
        <pt x="206" y="-43" on="0"/>
        <pt x="206" y="-54" on="1"/>
        <pt x="206" y="-71" on="0"/>
        <pt x="228" y="-89" on="0"/>
        <pt x="254" y="-102" on="0"/>
        <pt x="276" y="-117" on="0"/>
        <pt x="276" y="-132" on="1"/>
        <pt x="276" y="-146" on="0"/>
        <pt x="246" y="-159" on="0"/>
        <pt x="227" y="-159" on="1"/>
        <pt x="206" y="-159" on="0"/>
        <pt x="173" y="-144" on="0"/>
        <pt x="160" y="-136" on="1"/>
        <pt x="131" y="-191" on="1"/>
        <pt x="151" y="-205" on="0"/>
        <pt x="201" y="-219" on="0"/>
        <pt x="227" y="-219" on="1"/>
        <pt x="251" y="-219" on="0"/>
        <pt x="296" y="-209" on="0"/>
        <pt x="332" y="-186" on="0"/>
        <pt x="354" y="-148" on="0"/>
        <pt x="354" y="-121" on="1"/>
        <pt x="354" y="-101" on="0"/>
        <pt x="331" y="-77" on="0"/>
        <pt x="303" y="-59" on="0"/>
        <pt x="280" y="-44" on="0"/>
        <pt x="280" y="-33" on="1"/>
        <pt x="280" y="-27" on="0"/>
        <pt x="287" y="-5" on="0"/>
        <pt x="295" y="3" on="1"/>
      </contour>
    </TTGlyph>
    <TTGlyph name="cent" xMin="55" yMin="-117" xMax="470" yMax="579">
      <contour>
        <pt x="295" y="579" on="1"/>
        <pt x="371" y="579" on="1"/>
        <pt x="357" y="492" on="1"/>
        <pt x="412" y="490" on="0"/>
        <pt x="461" y="439" on="0"/>
        <pt x="470" y="405" on="1"/>
        <pt x="386" y="368" on="1"/>
        <pt x="379" y="384" on="0"/>
        <pt x="365" y="415" on="0"/>
        <pt x="346" y="418" on="1"/>
        <pt x="293" y="81" on="1"/>
        <pt x="315" y="84" on="0"/>
        <pt x="352" y="103" on="0"/>
        <pt x="375" y="118" on="1"/>
        <pt x="406" y="46" on="1"/>
        <pt x="386" y="28" on="0"/>
        <pt x="326" y="4" on="0"/>
        <pt x="281" y="-1" on="1"/>
        <pt x="263" y="-117" on="1"/>
        <pt x="187" y="-117" on="1"/>
        <pt x="205" y="-2" on="1"/>
        <pt x="163" y="1" on="0"/>
        <pt x="105" y="30" on="0"/>
        <pt x="70" y="76" on="0"/>
        <pt x="55" y="134" on="0"/>
        <pt x="55" y="164" on="1"/>
        <pt x="55" y="230" on="0"/>
        <pt x="88" y="344" on="0"/>
        <pt x="148" y="430" on="0"/>
        <pt x="231" y="484" on="0"/>
        <pt x="281" y="491" on="1"/>
      </contour>
      <contour>
        <pt x="174" y="161" on="1"/>
        <pt x="174" y="125" on="0"/>
        <pt x="197" y="88" on="0"/>
        <pt x="218" y="82" on="1"/>
        <pt x="268" y="410" on="1"/>
        <pt x="242" y="398" on="0"/>
        <pt x="206" y="344" on="0"/>
        <pt x="184" y="275" on="0"/>
        <pt x="174" y="197" on="0"/>
      </contour>
    </TTGlyph>
    <TTGlyph name="circumflex" xMin="68" yMin="535" xMax="406" yMax="770">
      <contour>
        <pt x="118" y="535" on="1"/>
        <pt x="137" y="549" on="0"/>
        <pt x="157" y="565" on="1"/>
        <pt x="174" y="579" on="0"/>
        <pt x="219" y="614" on="0"/>
        <pt x="242" y="632" on="1"/>
        <pt x="262" y="610" on="0"/>
        <pt x="302" y="576" on="0"/>
        <pt x="319" y="563" on="1"/>
        <pt x="338" y="548" on="0"/>
        <pt x="358" y="536" on="1"/>
        <pt x="406" y="581" on="1"/>
        <pt x="382" y="610" on="0"/>
        <pt x="358" y="642" on="1"/>
        <pt x="337" y="669" on="0"/>
        <pt x="289" y="737" on="0"/>
        <pt x="267" y="770" on="1"/>
        <pt x="237" y="749" on="0"/>
        <pt x="167" y="685" on="0"/>
        <pt x="137" y="655" on="1"/>
        <pt x="102" y="620" on="0"/>
        <pt x="68" y="583" on="1"/>
      </contour>
    </TTGlyph>
    <TTGlyph name="colon" xMin="35" yMin="-11" xMax="255" yMax="498">
      <contour>
        <pt x="151" y="143" on="0"/>
        <pt x="186" y="105" on="0"/>
        <pt x="186" y="73" on="1"/>
        <pt x="186" y="39" on="0"/>
        <pt x="141" y="-11" on="0"/>
        <pt x="103" y="-11" on="1"/>
        <pt x="68" y="-11" on="0"/>
        <pt x="35" y="28" on="0"/>
        <pt x="35" y="59" on="1"/>
        <pt x="35" y="93" on="0"/>
        <pt x="78" y="143" on="0"/>
        <pt x="116" y="143" on="1"/>
      </contour>
      <contour>
        <pt x="220" y="498" on="0"/>
        <pt x="255" y="460" on="0"/>
        <pt x="255" y="427" on="1"/>
        <pt x="255" y="394" on="0"/>
        <pt x="210" y="344" on="0"/>
        <pt x="172" y="344" on="1"/>
        <pt x="137" y="344" on="0"/>
        <pt x="104" y="383" on="0"/>
        <pt x="104" y="413" on="1"/>
        <pt x="104" y="448" on="0"/>
        <pt x="147" y="498" on="0"/>
        <pt x="185" y="498" on="1"/>
      </contour>
    </TTGlyph>
    <TTGlyph name="comma" xMin="-60" yMin="-147" xMax="148" yMax="140">
      <contour>
        <pt x="30" y="96" on="0"/>
        <pt x="27" y="122" on="1"/>
        <pt x="34" y="127" on="0"/>
        <pt x="44" y="131" on="1"/>
        <pt x="52" y="134" on="0"/>
        <pt x="78" y="140" on="0"/>
        <pt x="95" y="140" on="1"/>
        <pt x="124" y="140" on="0"/>
        <pt x="148" y="111" on="0"/>
        <pt x="148" y="86" on="1"/>
        <pt x="148" y="50" on="0"/>
        <pt x="115" y="-22" on="0"/>
        <pt x="64" y="-84" on="0"/>
        <pt x="2" y="-133" on="0"/>
        <pt x="-27" y="-147" on="1"/>
        <pt x="-60" y="-92" on="1"/>
        <pt x="-32" y="-74" on="0"/>
        <pt x="3" y="-35" on="0"/>
        <pt x="23" y="2" on="0"/>
        <pt x="30" y="39" on="0"/>
        <pt x="30" y="56" on="1"/>
      </contour>
    </TTGlyph>
    <TTGlyph name="copyright" xMin="35" yMin="-6" xMax="722" yMax="686">
      <contour>
        <pt x="35" y="261" on="1"/>
        <pt x="35" y="201" on="0"/>
        <pt x="73" y="103" on="0"/>
        <pt x="144" y="33" on="0"/>
        <pt x="246" y="-6" on="0"/>
        <pt x="309" y="-6" on="1"/>
        <pt x="399" y="-6" on="0"/>
        <pt x="551" y="59" on="0"/>
        <pt x="661" y="173" on="0"/>
        <pt x="722" y="329" on="0"/>
        <pt x="722" y="419" on="1"/>
        <pt x="722" y="479" on="0"/>
        <pt x="684" y="577" on="0"/>
        <pt x="613" y="648" on="0"/>
        <pt x="511" y="686" on="0"/>
        <pt x="447" y="686" on="1"/>
        <pt x="357" y="686" on="0"/>
        <pt x="205" y="622" on="0"/>
        <pt x="96" y="508" on="0"/>
        <pt x="35" y="352" on="0"/>
      </contour>
      <contour>
        <pt x="429" y="612" on="1"/>
        <pt x="531" y="612" on="0"/>
        <pt x="635" y="494" on="0"/>
        <pt x="635" y="396" on="1"/>
        <pt x="635" y="322" on="0"/>
        <pt x="581" y="200" on="0"/>
        <pt x="493" y="114" on="0"/>
        <pt x="383" y="67" on="0"/>
        <pt x="326" y="67" on="1"/>
        <pt x="225" y="67" on="0"/>
        <pt x="120" y="186" on="0"/>
        <pt x="120" y="285" on="1"/>
        <pt x="120" y="358" on="0"/>
        <pt x="175" y="479" on="0"/>
        <pt x="263" y="565" on="0"/>
        <pt x="373" y="612" on="0"/>
      </contour>
      <contour>
        <pt x="440" y="228" on="1"/>
        <pt x="429" y="222" on="0"/>
        <pt x="399" y="213" on="0"/>
        <pt x="379" y="213" on="1"/>
        <pt x="350" y="213" on="0"/>
        <pt x="325" y="257" on="0"/>
        <pt x="325" y="292" on="1"/>
        <pt x="325" y="319" on="0"/>
        <pt x="337" y="382" on="0"/>
        <pt x="361" y="436" on="0"/>
        <pt x="397" y="472" on="0"/>
        <pt x="421" y="472" on="1"/>
        <pt x="440" y="472" on="0"/>
        <pt x="459" y="460" on="0"/>
        <pt x="467" y="447" on="1"/>
        <pt x="523" y="496" on="1"/>
        <pt x="517" y="513" on="0"/>
        <pt x="476" y="545" on="0"/>
        <pt x="444" y="545" on="1"/>
        <pt x="393" y="545" on="0"/>
        <pt x="314" y="499" on="0"/>
        <pt x="260" y="424" on="0"/>
        <pt x="232" y="325" on="0"/>
        <pt x="232" y="273" on="1"/>
        <pt x="232" y="143" on="0"/>
        <pt x="353" y="143" on="1"/>
        <pt x="386" y="143" on="0"/>
        <pt x="434" y="156" on="0"/>
        <pt x="458" y="167" on="1"/>
      </contour>
    </TTGlyph>
    <TTGlyph name="currency" xMin="10" yMin="-5" xMax="614" yMax="563">
      <contour>
        <pt x="557" y="563" on="1"/>
        <pt x="460" y="472" on="1"/>
        <pt x="417" y="498" on="0"/>
        <pt x="355" y="498" on="1"/>
        <pt x="325" y="498" on="0"/>
        <pt x="266" y="484" on="0"/>
        <pt x="238" y="471" on="1"/>
        <pt x="176" y="563" on="1"/>
        <pt x="101" y="510" on="1"/>
        <pt x="171" y="424" on="1"/>
        <pt x="134" y="389" on="0"/>
        <pt x="90" y="291" on="0"/>
        <pt x="90" y="228" on="1"/>
        <pt x="90" y="178" on="0"/>
        <pt x="110" y="140" on="1"/>
        <pt x="10" y="59" on="1"/>
        <pt x="67" y="-5" on="1"/>
        <pt x="163" y="86" on="1"/>
        <pt x="207" y="60" on="0"/>
        <pt x="269" y="60" on="1"/>
        <pt x="331" y="60" on="0"/>
        <pt x="385" y="87" on="1"/>
        <pt x="448" y="-5" on="1"/>
        <pt x="524" y="48" on="1"/>
        <pt x="452" y="134" on="1"/>
        <pt x="490" y="169" on="0"/>
        <pt x="534" y="267" on="0"/>
        <pt x="534" y="330" on="1"/>
        <pt x="534" y="380" on="0"/>
        <pt x="513" y="418" on="1"/>
        <pt x="614" y="499" on="1"/>
      </contour>
      <contour>
        <pt x="283" y="135" on="1"/>
        <pt x="223" y="135" on="0"/>
        <pt x="175" y="197" on="0"/>
        <pt x="175" y="248" on="1"/>
        <pt x="175" y="284" on="0"/>
        <pt x="202" y="347" on="0"/>
        <pt x="248" y="395" on="0"/>
        <pt x="308" y="423" on="0"/>
        <pt x="341" y="423" on="1"/>
        <pt x="401" y="423" on="0"/>
        <pt x="449" y="361" on="0"/>
        <pt x="449" y="310" on="1"/>
        <pt x="449" y="274" on="0"/>
        <pt x="422" y="211" on="0"/>
        <pt x="376" y="163" on="0"/>
        <pt x="316" y="135" on="0"/>
      </contour>
    </TTGlyph>
    <TTGlyph name="d" xMin="30" yMin="-10" xMax="542" yMax="725">
      <contour>
        <pt x="448" y="238" on="1"/>
        <pt x="443" y="210" on="0"/>
        <pt x="438" y="163" on="0"/>
        <pt x="438" y="144" on="1"/>
        <pt x="438" y="95" on="0"/>
        <pt x="463" y="42" on="0"/>
        <pt x="474" y="26" on="1"/>
        <pt x="384" y="-10" on="1"/>
        <pt x="369" y="7" on="0"/>
        <pt x="350" y="57" on="0"/>
        <pt x="350" y="89" on="1"/>
        <pt x="350" y="102" on="0"/>
        <pt x="354" y="143" on="0"/>
        <pt x="357" y="169" on="1"/>
        <pt x="340" y="129" on="1"/>
        <pt x="323" y="90" on="0"/>
        <pt x="283" y="37" on="0"/>
        <pt x="238" y="5" on="0"/>
        <pt x="189" y="-8" on="0"/>
        <pt x="163" y="-8" on="1"/>
        <pt x="127" y="-8" on="0"/>
        <pt x="77" y="20" on="0"/>
        <pt x="45" y="67" on="0"/>
        <pt x="30" y="126" on="0"/>
        <pt x="30" y="157" on="1"/>
        <pt x="30" y="228" on="0"/>
        <pt x="67" y="352" on="0"/>
        <pt x="139" y="445" on="0"/>
        <pt x="243" y="498" on="0"/>
        <pt x="311" y="498" on="1"/>
        <pt x="324" y="498" on="0"/>
        <pt x="361" y="495" on="0"/>
        <pt x="387" y="489" on="1"/>
        <pt x="429" y="705" on="1"/>
        <pt x="542" y="725" on="1"/>
      </contour>
      <contour>
        <pt x="225" y="74" on="0"/>
        <pt x="275" y="130" on="0"/>
        <pt x="317" y="211" on="0"/>
        <pt x="348" y="304" on="0"/>
        <pt x="356" y="342" on="1"/>
        <pt x="370" y="411" on="1"/>
        <pt x="358" y="417" on="0"/>
        <pt x="327" y="421" on="0"/>
        <pt x="313" y="421" on="1"/>
        <pt x="268" y="421" on="0"/>
        <pt x="205" y="370" on="0"/>
        <pt x="166" y="291" on="0"/>
        <pt x="149" y="196" on="0"/>
        <pt x="149" y="153" on="1"/>
        <pt x="149" y="109" on="0"/>
        <pt x="174" y="74" on="0"/>
        <pt x="200" y="74" on="1"/>
      </contour>
    </TTGlyph>
    <TTGlyph name="degree" xMin="50" yMin="485" xMax="278" yMax="718">
      <contour>
        <pt x="176" y="661" on="1"/>
        <pt x="196" y="661" on="0"/>
        <pt x="216" y="637" on="0"/>
        <pt x="216" y="617" on="1"/>
        <pt x="216" y="588" on="0"/>
        <pt x="182" y="542" on="0"/>
        <pt x="153" y="542" on="1"/>
        <pt x="133" y="542" on="0"/>
        <pt x="112" y="565" on="0"/>
        <pt x="112" y="585" on="1"/>
        <pt x="112" y="614" on="0"/>
        <pt x="147" y="661" on="0"/>
      </contour>
      <contour>
        <pt x="141" y="485" on="1"/>
        <pt x="171" y="485" on="0"/>
        <pt x="222" y="509" on="0"/>
        <pt x="258" y="549" on="0"/>
        <pt x="278" y="601" on="0"/>
        <pt x="278" y="628" on="1"/>
        <pt x="278" y="667" on="0"/>
        <pt x="230" y="718" on="0"/>
        <pt x="188" y="718" on="1"/>
        <pt x="157" y="718" on="0"/>
        <pt x="106" y="694" on="0"/>
        <pt x="70" y="654" on="0"/>
        <pt x="50" y="603" on="0"/>
        <pt x="50" y="575" on="1"/>
        <pt x="50" y="535" on="0"/>
        <pt x="99" y="485" on="0"/>
      </contour>
    </TTGlyph>
    <TTGlyph name="dieresis" xMin="83" yMin="564" xMax="394" yMax="689">
      <contour>
        <pt x="177" y="689" on="0"/>
        <pt x="205" y="657" on="0"/>
        <pt x="205" y="630" on="1"/>
        <pt x="205" y="604" on="0"/>
        <pt x="169" y="564" on="0"/>
        <pt x="139" y="564" on="1"/>
        <pt x="110" y="564" on="0"/>
        <pt x="83" y="596" on="0"/>
        <pt x="83" y="621" on="1"/>
        <pt x="83" y="648" on="0"/>
        <pt x="118" y="689" on="0"/>
        <pt x="148" y="689" on="1"/>
      </contour>
      <contour>
        <pt x="367" y="689" on="0"/>
        <pt x="394" y="657" on="0"/>
        <pt x="394" y="630" on="1"/>
        <pt x="394" y="604" on="0"/>
        <pt x="358" y="564" on="0"/>
        <pt x="328" y="564" on="1"/>
        <pt x="299" y="564" on="0"/>
        <pt x="272" y="596" on="0"/>
        <pt x="272" y="621" on="1"/>
        <pt x="272" y="648" on="0"/>
        <pt x="307" y="689" on="0"/>
        <pt x="338" y="689" on="1"/>
      </contour>
    </TTGlyph>
    <TTGlyph name="divide" xMin="56" yMin="71" xMax="459" yMax="519">
      <contour>
        <pt x="293" y="519" on="1"/>
        <pt x="263" y="519" on="0"/>
        <pt x="229" y="480" on="0"/>
        <pt x="229" y="454" on="1"/>
        <pt x="229" y="431" on="0"/>
        <pt x="255" y="401" on="0"/>
        <pt x="283" y="401" on="1"/>
        <pt x="312" y="401" on="0"/>
        <pt x="345" y="439" on="0"/>
        <pt x="345" y="465" on="1"/>
        <pt x="345" y="490" on="0"/>
        <pt x="319" y="519" on="0"/>
      </contour>
      <contour>
        <pt x="230" y="189" on="1"/>
        <pt x="201" y="189" on="0"/>
        <pt x="167" y="151" on="0"/>
        <pt x="167" y="124" on="1"/>
        <pt x="167" y="101" on="0"/>
        <pt x="193" y="71" on="0"/>
        <pt x="220" y="71" on="1"/>
        <pt x="249" y="71" on="0"/>
        <pt x="283" y="109" on="0"/>
        <pt x="283" y="135" on="1"/>
        <pt x="283" y="161" on="0"/>
        <pt x="257" y="189" on="0"/>
      </contour>
      <contour>
        <pt x="56" y="254" on="1"/>
        <pt x="444" y="254" on="1"/>
        <pt x="459" y="342" on="1"/>
        <pt x="73" y="342" on="1"/>
      </contour>
    </TTGlyph>
    <TTGlyph name="dollar" xMin="10" yMin="-83" xMax="471" yMax="694">
      <contour>
        <pt x="286" y="694" on="1"/>
        <pt x="271" y="616" on="1"/>
        <pt x="193" y="606" on="0"/>
        <pt x="103" y="519" on="0"/>
        <pt x="103" y="454" on="1"/>
        <pt x="103" y="408" on="0"/>
        <pt x="138" y="344" on="0"/>
        <pt x="180" y="318" on="1"/>
        <pt x="250" y="275" on="1"/>
        <pt x="309" y="239" on="0"/>
        <pt x="309" y="184" on="1"/>
        <pt x="309" y="101" on="0"/>
        <pt x="200" y="101" on="1"/>
        <pt x="163" y="101" on="0"/>
        <pt x="110" y="143" on="0"/>
        <pt x="94" y="175" on="1"/>
        <pt x="10" y="130" on="1"/>
        <pt x="26" y="84" on="0"/>
        <pt x="103" y="23" on="0"/>
        <pt x="157" y="13" on="1"/>
        <pt x="140" y="-83" on="1"/>
        <pt x="218" y="-83" on="1"/>
        <pt x="236" y="12" on="1"/>
        <pt x="276" y="17" on="0"/>
        <pt x="346" y="48" on="0"/>
        <pt x="396" y="98" on="0"/>
        <pt x="425" y="166" on="0"/>
        <pt x="425" y="208" on="1"/>
        <pt x="425" y="255" on="0"/>
        <pt x="376" y="324" on="0"/>
        <pt x="343" y="345" on="1"/>
        <pt x="268" y="391" on="1"/>
        <pt x="244" y="406" on="0"/>
        <pt x="222" y="440" on="0"/>
        <pt x="222" y="467" on="1"/>
        <pt x="222" y="494" on="0"/>
        <pt x="268" y="531" on="0"/>
        <pt x="308" y="531" on="1"/>
        <pt x="330" y="531" on="0"/>
        <pt x="357" y="519" on="0"/>
        <pt x="373" y="502" on="0"/>
        <pt x="382" y="483" on="0"/>
        <pt x="386" y="476" on="1"/>
        <pt x="471" y="522" on="1"/>
        <pt x="466" y="536" on="0"/>
        <pt x="451" y="566" on="0"/>
        <pt x="424" y="592" on="0"/>
        <pt x="381" y="612" on="0"/>
        <pt x="350" y="616" on="1"/>
        <pt x="365" y="694" on="1"/>
      </contour>
    </TTGlyph>
    <TTGlyph name="dotlessi" xMin="35" yMin="-5" xMax="224" yMax="490">
      <contour>
        <pt x="128" y="-5" on="1"/>
        <pt x="148" y="-5" on="0"/>
        <pt x="181" y="0" on="0"/>
        <pt x="193" y="4" on="1"/>
        <pt x="207" y="8" on="0"/>
        <pt x="218" y="13" on="1"/>
        <pt x="218" y="85" on="1"/>
        <pt x="210" y="83" on="0"/>
        <pt x="201" y="81" on="1"/>
        <pt x="193" y="79" on="0"/>
        <pt x="175" y="77" on="0"/>
        <pt x="167" y="77" on="1"/>
        <pt x="150" y="77" on="0"/>
        <pt x="150" y="102" on="1"/>
        <pt x="150" y="106" on="0"/>
        <pt x="151" y="113" on="0"/>
        <pt x="152" y="118" on="1"/>
        <pt x="224" y="490" on="1"/>
        <pt x="114" y="490" on="1"/>
        <pt x="38" y="108" on="1"/>
        <pt x="35" y="93" on="0"/>
        <pt x="35" y="79" on="1"/>
        <pt x="35" y="41" on="0"/>
        <pt x="83" y="-5" on="0"/>
      </contour>
    </TTGlyph>
    <TTGlyph name="e" xMin="30" yMin="-11" xMax="453" yMax="502">
      <contour>
        <pt x="30" y="227" on="0"/>
        <pt x="67" y="353" on="0"/>
        <pt x="138" y="447" on="0"/>
        <pt x="242" y="502" on="0"/>
        <pt x="309" y="502" on="1"/>
        <pt x="387" y="502" on="0"/>
        <pt x="453" y="444" on="0"/>
        <pt x="453" y="394" on="1"/>
        <pt x="453" y="350" on="0"/>
        <pt x="408" y="278" on="0"/>
        <pt x="327" y="224" on="0"/>
        <pt x="215" y="191" on="0"/>
        <pt x="148" y="188" on="1"/>
        <pt x="147" y="179" on="0"/>
        <pt x="147" y="161" on="0"/>
        <pt x="147" y="153" on="1"/>
        <pt x="147" y="106" on="0"/>
        <pt x="187" y="70" on="0"/>
        <pt x="220" y="70" on="1"/>
        <pt x="240" y="70" on="0"/>
        <pt x="291" y="82" on="0"/>
        <pt x="315" y="90" on="1"/>
        <pt x="342" y="99" on="0"/>
        <pt x="372" y="111" on="1"/>
        <pt x="395" y="39" on="1"/>
        <pt x="365" y="25" on="0"/>
        <pt x="332" y="14" on="1"/>
        <pt x="304" y="4" on="0"/>
        <pt x="233" y="-11" on="0"/>
        <pt x="197" y="-11" on="1"/>
        <pt x="150" y="-11" on="0"/>
        <pt x="86" y="17" on="0"/>
        <pt x="47" y="64" on="0"/>
        <pt x="30" y="124" on="0"/>
        <pt x="30" y="156" on="1"/>
      </contour>
      <contour>
        <pt x="263" y="425" on="0"/>
        <pt x="223" y="398" on="0"/>
        <pt x="192" y="352" on="0"/>
        <pt x="168" y="292" on="0"/>
        <pt x="160" y="260" on="1"/>
        <pt x="205" y="263" on="0"/>
        <pt x="272" y="286" on="0"/>
        <pt x="317" y="320" on="0"/>
        <pt x="340" y="358" on="0"/>
        <pt x="340" y="376" on="1"/>
        <pt x="340" y="399" on="0"/>
        <pt x="315" y="425" on="0"/>
        <pt x="286" y="425" on="1"/>
      </contour>
    </TTGlyph>
    <TTGlyph name="eacute" xMin="30" yMin="-11" xMax="502" yMax="774">
      <contour>
        <pt x="30" y="156" on="1"/>
        <pt x="30" y="124" on="0"/>
        <pt x="47" y="64" on="0"/>
        <pt x="86" y="17" on="0"/>
        <pt x="150" y="-11" on="0"/>
        <pt x="197" y="-11" on="1"/>
        <pt x="233" y="-11" on="0"/>
        <pt x="304" y="4" on="0"/>
        <pt x="332" y="14" on="1"/>
        <pt x="365" y="25" on="0"/>
        <pt x="395" y="39" on="1"/>
        <pt x="372" y="111" on="1"/>
        <pt x="342" y="99" on="0"/>
        <pt x="315" y="90" on="1"/>
        <pt x="291" y="82" on="0"/>
        <pt x="240" y="70" on="0"/>
        <pt x="220" y="70" on="1"/>
        <pt x="187" y="70" on="0"/>
        <pt x="147" y="106" on="0"/>
        <pt x="147" y="153" on="1"/>
        <pt x="147" y="161" on="0"/>
        <pt x="147" y="179" on="0"/>
        <pt x="148" y="188" on="1"/>
        <pt x="215" y="191" on="0"/>
        <pt x="327" y="224" on="0"/>
        <pt x="408" y="278" on="0"/>
        <pt x="453" y="350" on="0"/>
        <pt x="453" y="394" on="1"/>
        <pt x="453" y="444" on="0"/>
        <pt x="387" y="502" on="0"/>
        <pt x="309" y="502" on="1"/>
        <pt x="242" y="502" on="0"/>
        <pt x="138" y="447" on="0"/>
        <pt x="67" y="353" on="0"/>
        <pt x="30" y="227" on="0"/>
      </contour>
      <contour>
        <pt x="286" y="425" on="1"/>
        <pt x="315" y="425" on="0"/>
        <pt x="340" y="399" on="0"/>
        <pt x="340" y="376" on="1"/>
        <pt x="340" y="358" on="0"/>
        <pt x="317" y="320" on="0"/>
        <pt x="272" y="286" on="0"/>
        <pt x="205" y="263" on="0"/>
        <pt x="160" y="260" on="1"/>
        <pt x="168" y="292" on="0"/>
        <pt x="192" y="352" on="0"/>
        <pt x="223" y="398" on="0"/>
        <pt x="263" y="425" on="0"/>
      </contour>
      <contour>
        <pt x="311" y="539" on="1"/>
        <pt x="345" y="572" on="0"/>
        <pt x="378" y="603" on="1"/>
        <pt x="407" y="629" on="0"/>
        <pt x="473" y="686" on="0"/>
        <pt x="502" y="705" on="1"/>
        <pt x="497" y="718" on="0"/>
        <pt x="477" y="743" on="0"/>
        <pt x="466" y="753" on="1"/>
        <pt x="454" y="764" on="0"/>
        <pt x="440" y="774" on="1"/>
        <pt x="410" y="752" on="0"/>
        <pt x="348" y="690" on="0"/>
        <pt x="323" y="661" on="1"/>
        <pt x="293" y="627" on="0"/>
        <pt x="266" y="591" on="1"/>
      </contour>
    </TTGlyph>
    <TTGlyph name="ecircumflex" xMin="30" yMin="-11" xMax="490" yMax="782">
      <contour>
        <pt x="30" y="156" on="1"/>
        <pt x="30" y="124" on="0"/>
        <pt x="47" y="64" on="0"/>
        <pt x="86" y="17" on="0"/>
        <pt x="150" y="-11" on="0"/>
        <pt x="197" y="-11" on="1"/>
        <pt x="233" y="-11" on="0"/>
        <pt x="304" y="4" on="0"/>
        <pt x="332" y="14" on="1"/>
        <pt x="365" y="25" on="0"/>
        <pt x="395" y="39" on="1"/>
        <pt x="372" y="111" on="1"/>
        <pt x="342" y="99" on="0"/>
        <pt x="315" y="90" on="1"/>
        <pt x="291" y="82" on="0"/>
        <pt x="240" y="70" on="0"/>
        <pt x="220" y="70" on="1"/>
        <pt x="187" y="70" on="0"/>
        <pt x="147" y="106" on="0"/>
        <pt x="147" y="153" on="1"/>
        <pt x="147" y="161" on="0"/>
        <pt x="147" y="179" on="0"/>
        <pt x="148" y="188" on="1"/>
        <pt x="215" y="191" on="0"/>
        <pt x="327" y="224" on="0"/>
        <pt x="408" y="278" on="0"/>
        <pt x="453" y="350" on="0"/>
        <pt x="453" y="394" on="1"/>
        <pt x="453" y="444" on="0"/>
        <pt x="387" y="502" on="0"/>
        <pt x="309" y="502" on="1"/>
        <pt x="242" y="502" on="0"/>
        <pt x="138" y="447" on="0"/>
        <pt x="67" y="353" on="0"/>
        <pt x="30" y="227" on="0"/>
      </contour>
      <contour>
        <pt x="286" y="425" on="1"/>
        <pt x="315" y="425" on="0"/>
        <pt x="340" y="399" on="0"/>
        <pt x="340" y="376" on="1"/>
        <pt x="340" y="358" on="0"/>
        <pt x="317" y="320" on="0"/>
        <pt x="272" y="286" on="0"/>
        <pt x="205" y="263" on="0"/>
        <pt x="160" y="260" on="1"/>
        <pt x="168" y="292" on="0"/>
        <pt x="192" y="352" on="0"/>
        <pt x="223" y="398" on="0"/>
        <pt x="263" y="425" on="0"/>
      </contour>
      <contour>
        <pt x="203" y="547" on="1"/>
        <pt x="222" y="561" on="0"/>
        <pt x="242" y="577" on="1"/>
        <pt x="259" y="591" on="0"/>
        <pt x="303" y="626" on="0"/>
        <pt x="326" y="644" on="1"/>
        <pt x="346" y="622" on="0"/>
        <pt x="386" y="588" on="0"/>
        <pt x="403" y="575" on="1"/>
        <pt x="422" y="560" on="0"/>
        <pt x="442" y="548" on="1"/>
        <pt x="490" y="593" on="1"/>
        <pt x="466" y="622" on="0"/>
        <pt x="442" y="654" on="1"/>
        <pt x="422" y="681" on="0"/>
        <pt x="373" y="749" on="0"/>
        <pt x="352" y="782" on="1"/>
        <pt x="321" y="761" on="0"/>
        <pt x="252" y="697" on="0"/>
        <pt x="222" y="667" on="1"/>
        <pt x="187" y="632" on="0"/>
        <pt x="152" y="595" on="1"/>
      </contour>
    </TTGlyph>
    <TTGlyph name="edieresis" xMin="30" yMin="-11" xMax="487" yMax="693">
      <contour>
        <pt x="30" y="156" on="1"/>
        <pt x="30" y="124" on="0"/>
        <pt x="47" y="64" on="0"/>
        <pt x="86" y="17" on="0"/>
        <pt x="150" y="-11" on="0"/>
        <pt x="197" y="-11" on="1"/>
        <pt x="233" y="-11" on="0"/>
        <pt x="304" y="4" on="0"/>
        <pt x="332" y="14" on="1"/>
        <pt x="365" y="25" on="0"/>
        <pt x="395" y="39" on="1"/>
        <pt x="372" y="111" on="1"/>
        <pt x="342" y="99" on="0"/>
        <pt x="315" y="90" on="1"/>
        <pt x="291" y="82" on="0"/>
        <pt x="240" y="70" on="0"/>
        <pt x="220" y="70" on="1"/>
        <pt x="187" y="70" on="0"/>
        <pt x="147" y="106" on="0"/>
        <pt x="147" y="153" on="1"/>
        <pt x="147" y="161" on="0"/>
        <pt x="147" y="179" on="0"/>
        <pt x="148" y="188" on="1"/>
        <pt x="215" y="191" on="0"/>
        <pt x="327" y="224" on="0"/>
        <pt x="408" y="278" on="0"/>
        <pt x="453" y="350" on="0"/>
        <pt x="453" y="394" on="1"/>
        <pt x="453" y="444" on="0"/>
        <pt x="387" y="502" on="0"/>
        <pt x="309" y="502" on="1"/>
        <pt x="242" y="502" on="0"/>
        <pt x="138" y="447" on="0"/>
        <pt x="67" y="353" on="0"/>
        <pt x="30" y="227" on="0"/>
      </contour>
      <contour>
        <pt x="286" y="425" on="1"/>
        <pt x="315" y="425" on="0"/>
        <pt x="340" y="399" on="0"/>
        <pt x="340" y="376" on="1"/>
        <pt x="340" y="358" on="0"/>
        <pt x="317" y="320" on="0"/>
        <pt x="272" y="286" on="0"/>
        <pt x="205" y="263" on="0"/>
        <pt x="160" y="260" on="1"/>
        <pt x="168" y="292" on="0"/>
        <pt x="192" y="352" on="0"/>
        <pt x="223" y="398" on="0"/>
        <pt x="263" y="425" on="0"/>
      </contour>
      <contour>
        <pt x="241" y="693" on="1"/>
        <pt x="211" y="693" on="0"/>
        <pt x="176" y="652" on="0"/>
        <pt x="176" y="625" on="1"/>
        <pt x="176" y="600" on="0"/>
        <pt x="202" y="568" on="0"/>
        <pt x="231" y="568" on="1"/>
        <pt x="262" y="568" on="0"/>
        <pt x="298" y="608" on="0"/>
        <pt x="298" y="634" on="1"/>
        <pt x="298" y="661" on="0"/>
        <pt x="270" y="693" on="0"/>
      </contour>
      <contour>
        <pt x="431" y="693" on="1"/>
        <pt x="400" y="693" on="0"/>
        <pt x="365" y="652" on="0"/>
        <pt x="365" y="625" on="1"/>
        <pt x="365" y="600" on="0"/>
        <pt x="392" y="568" on="0"/>
        <pt x="421" y="568" on="1"/>
        <pt x="451" y="568" on="0"/>
        <pt x="487" y="608" on="0"/>
        <pt x="487" y="634" on="1"/>
        <pt x="487" y="661" on="0"/>
        <pt x="460" y="693" on="0"/>
      </contour>
    </TTGlyph>
    <TTGlyph name="egrave" xMin="30" yMin="-11" xMax="453" yMax="774">
      <contour>
        <pt x="30" y="156" on="1"/>
        <pt x="30" y="124" on="0"/>
        <pt x="47" y="64" on="0"/>
        <pt x="86" y="17" on="0"/>
        <pt x="150" y="-11" on="0"/>
        <pt x="197" y="-11" on="1"/>
        <pt x="233" y="-11" on="0"/>
        <pt x="304" y="4" on="0"/>
        <pt x="332" y="14" on="1"/>
        <pt x="365" y="25" on="0"/>
        <pt x="395" y="39" on="1"/>
        <pt x="372" y="111" on="1"/>
        <pt x="342" y="99" on="0"/>
        <pt x="315" y="90" on="1"/>
        <pt x="291" y="82" on="0"/>
        <pt x="240" y="70" on="0"/>
        <pt x="220" y="70" on="1"/>
        <pt x="187" y="70" on="0"/>
        <pt x="147" y="106" on="0"/>
        <pt x="147" y="153" on="1"/>
        <pt x="147" y="161" on="0"/>
        <pt x="147" y="179" on="0"/>
        <pt x="148" y="188" on="1"/>
        <pt x="215" y="191" on="0"/>
        <pt x="327" y="224" on="0"/>
        <pt x="408" y="278" on="0"/>
        <pt x="453" y="350" on="0"/>
        <pt x="453" y="394" on="1"/>
        <pt x="453" y="444" on="0"/>
        <pt x="387" y="502" on="0"/>
        <pt x="309" y="502" on="1"/>
        <pt x="242" y="502" on="0"/>
        <pt x="138" y="447" on="0"/>
        <pt x="67" y="353" on="0"/>
        <pt x="30" y="227" on="0"/>
      </contour>
      <contour>
        <pt x="286" y="425" on="1"/>
        <pt x="315" y="425" on="0"/>
        <pt x="340" y="399" on="0"/>
        <pt x="340" y="376" on="1"/>
        <pt x="340" y="358" on="0"/>
        <pt x="317" y="320" on="0"/>
        <pt x="272" y="286" on="0"/>
        <pt x="205" y="263" on="0"/>
        <pt x="160" y="260" on="1"/>
        <pt x="168" y="292" on="0"/>
        <pt x="192" y="352" on="0"/>
        <pt x="223" y="398" on="0"/>
        <pt x="263" y="425" on="0"/>
      </contour>
      <contour>
        <pt x="351" y="585" on="1"/>
        <pt x="324" y="611" on="0"/>
        <pt x="298" y="642" on="1"/>
        <pt x="276" y="668" on="0"/>
        <pt x="229" y="736" on="0"/>
        <pt x="212" y="774" on="1"/>
        <pt x="192" y="766" on="0"/>
        <pt x="164" y="746" on="0"/>
        <pt x="154" y="736" on="1"/>
        <pt x="143" y="725" on="0"/>
        <pt x="135" y="713" on="1"/>
        <pt x="151" y="676" on="0"/>
        <pt x="207" y="613" on="0"/>
        <pt x="235" y="590" on="1"/>
        <pt x="268" y="563" on="0"/>
        <pt x="303" y="540" on="1"/>
      </contour>
    </TTGlyph>
    <TTGlyph name="eight" xMin="20" yMin="-12" xMax="481" yMax="634">
      <contour>
        <pt x="198" y="-12" on="1"/>
        <pt x="120" y="-12" on="0"/>
        <pt x="20" y="53" on="0"/>
        <pt x="20" y="118" on="1"/>
        <pt x="20" y="159" on="0"/>
        <pt x="48" y="224" on="0"/>
        <pt x="92" y="275" on="0"/>
        <pt x="147" y="314" on="0"/>
        <pt x="174" y="329" on="1"/>
        <pt x="144" y="349" on="0"/>
        <pt x="101" y="406" on="0"/>
        <pt x="101" y="444" on="1"/>
        <pt x="101" y="484" on="0"/>
        <pt x="133" y="554" on="0"/>
        <pt x="192" y="605" on="0"/>
        <pt x="274" y="634" on="0"/>
        <pt x="325" y="634" on="1"/>
        <pt x="397" y="634" on="0"/>
        <pt x="481" y="567" on="0"/>
        <pt x="481" y="513" on="1"/>
        <pt x="481" y="479" on="0"/>
        <pt x="459" y="425" on="0"/>
        <pt x="423" y="382" on="0"/>
        <pt x="376" y="348" on="0"/>
        <pt x="351" y="334" on="1"/>
        <pt x="390" y="309" on="0"/>
        <pt x="440" y="230" on="0"/>
        <pt x="440" y="185" on="1"/>
        <pt x="440" y="140" on="0"/>
        <pt x="399" y="67" on="0"/>
        <pt x="332" y="16" on="0"/>
        <pt x="244" y="-12" on="0"/>
      </contour>
      <contour>
        <pt x="138" y="132" on="1"/>
        <pt x="138" y="105" on="0"/>
        <pt x="181" y="67" on="0"/>
        <pt x="220" y="67" on="1"/>
        <pt x="240" y="67" on="0"/>
        <pt x="276" y="83" on="0"/>
        <pt x="303" y="111" on="0"/>
        <pt x="319" y="149" on="0"/>
        <pt x="319" y="172" on="1"/>
        <pt x="319" y="207" on="0"/>
        <pt x="277" y="266" on="0"/>
        <pt x="254" y="286" on="1"/>
        <pt x="233" y="274" on="0"/>
        <pt x="191" y="243" on="0"/>
        <pt x="158" y="205" on="0"/>
        <pt x="138" y="159" on="0"/>
      </contour>
      <contour>
        <pt x="364" y="495" on="1"/>
        <pt x="364" y="521" on="0"/>
        <pt x="337" y="555" on="0"/>
        <pt x="305" y="555" on="1"/>
        <pt x="263" y="555" on="0"/>
        <pt x="216" y="503" on="0"/>
        <pt x="216" y="458" on="1"/>
        <pt x="216" y="427" on="0"/>
        <pt x="249" y="388" on="0"/>
        <pt x="270" y="376" on="1"/>
        <pt x="288" y="385" on="0"/>
        <pt x="321" y="406" on="0"/>
        <pt x="348" y="434" on="0"/>
        <pt x="364" y="471" on="0"/>
      </contour>
    </TTGlyph>
    <TTGlyph name="emdash" xMin="-16" yMin="278" xMax="677" yMax="360">
      <contour>
        <pt x="0" y="360" on="1"/>
        <pt x="677" y="360" on="1"/>
        <pt x="661" y="278" on="1"/>
        <pt x="-16" y="278" on="1"/>
      </contour>
    </TTGlyph>
    <TTGlyph name="endash" xMin="-16" yMin="278" xMax="485" yMax="360">
      <contour>
        <pt x="0" y="360" on="1"/>
        <pt x="485" y="360" on="1"/>
        <pt x="469" y="278" on="1"/>
        <pt x="-16" y="278" on="1"/>
      </contour>
    </TTGlyph>
    <TTGlyph name="equal" xMin="60" yMin="173" xMax="462" yMax="436">
      <contour>
        <pt x="94" y="348" on="1"/>
        <pt x="445" y="348" on="1"/>
        <pt x="462" y="436" on="1"/>
        <pt x="112" y="436" on="1"/>
      </contour>
      <contour>
        <pt x="60" y="173" on="1"/>
        <pt x="411" y="173" on="1"/>
        <pt x="428" y="261" on="1"/>
        <pt x="78" y="261" on="1"/>
      </contour>
    </TTGlyph>
    <TTGlyph name="eth" xMin="30" yMin="-11" xMax="544" yMax="726">
      <contour>
        <pt x="485" y="381" on="1"/>
        <pt x="485" y="433" on="0"/>
        <pt x="468" y="537" on="0"/>
        <pt x="451" y="578" on="1"/>
        <pt x="544" y="598" on="1"/>
        <pt x="528" y="669" on="1"/>
        <pt x="417" y="641" on="1"/>
        <pt x="402" y="664" on="0"/>
        <pt x="353" y="711" on="0"/>
        <pt x="332" y="726" on="1"/>
        <pt x="265" y="663" on="1"/>
        <pt x="315" y="616" on="1"/>
        <pt x="226" y="594" on="1"/>
        <pt x="244" y="523" on="1"/>
        <pt x="359" y="556" on="1"/>
        <pt x="367" y="539" on="0"/>
        <pt x="385" y="496" on="0"/>
        <pt x="390" y="476" on="1"/>
        <pt x="373" y="486" on="0"/>
        <pt x="330" y="502" on="0"/>
        <pt x="310" y="502" on="1"/>
        <pt x="242" y="502" on="0"/>
        <pt x="138" y="447" on="0"/>
        <pt x="67" y="353" on="0"/>
        <pt x="30" y="227" on="0"/>
        <pt x="30" y="156" on="1"/>
        <pt x="30" y="124" on="0"/>
        <pt x="47" y="64" on="0"/>
        <pt x="86" y="17" on="0"/>
        <pt x="150" y="-11" on="0"/>
        <pt x="197" y="-11" on="1"/>
        <pt x="251" y="-11" on="0"/>
        <pt x="336" y="24" on="0"/>
        <pt x="400" y="83" on="0"/>
        <pt x="445" y="162" on="0"/>
        <pt x="472" y="249" on="0"/>
        <pt x="485" y="339" on="0"/>
      </contour>
      <contour>
        <pt x="286" y="425" on="1"/>
        <pt x="319" y="425" on="0"/>
        <pt x="357" y="389" on="0"/>
        <pt x="357" y="342" on="1"/>
        <pt x="357" y="301" on="0"/>
        <pt x="339" y="204" on="0"/>
        <pt x="304" y="121" on="0"/>
        <pt x="253" y="66" on="0"/>
        <pt x="220" y="66" on="1"/>
        <pt x="187" y="66" on="0"/>
        <pt x="149" y="102" on="0"/>
        <pt x="149" y="149" on="1"/>
        <pt x="149" y="191" on="0"/>
        <pt x="167" y="287" on="0"/>
        <pt x="202" y="370" on="0"/>
        <pt x="253" y="425" on="0"/>
      </contour>
    </TTGlyph>
    <TTGlyph name="exclam" xMin="56" yMin="-11" xMax="315" yMax="669">
      <contour>
        <pt x="107" y="220" on="1"/>
        <pt x="203" y="220" on="1"/>
        <pt x="315" y="669" on="1"/>
        <pt x="191" y="669" on="1"/>
      </contour>
      <contour>
        <pt x="138" y="143" on="1"/>
        <pt x="100" y="143" on="0"/>
        <pt x="56" y="93" on="0"/>
        <pt x="56" y="59" on="1"/>
        <pt x="56" y="28" on="0"/>
        <pt x="89" y="-11" on="0"/>
        <pt x="124" y="-11" on="1"/>
        <pt x="162" y="-11" on="0"/>
        <pt x="207" y="39" on="0"/>
        <pt x="207" y="73" on="1"/>
        <pt x="207" y="105" on="0"/>
        <pt x="173" y="143" on="0"/>
      </contour>
    </TTGlyph>
    <TTGlyph name="exclamdown" xMin="16" yMin="-182" xMax="275" yMax="498">
      <contour>
        <pt x="224" y="267" on="1"/>
        <pt x="128" y="267" on="1"/>
        <pt x="16" y="-182" on="1"/>
        <pt x="140" y="-182" on="1"/>
      </contour>
      <contour>
        <pt x="193" y="344" on="1"/>
        <pt x="231" y="344" on="0"/>
        <pt x="275" y="394" on="0"/>
        <pt x="275" y="428" on="1"/>
        <pt x="275" y="459" on="0"/>
        <pt x="242" y="498" on="0"/>
        <pt x="207" y="498" on="1"/>
        <pt x="169" y="498" on="0"/>
        <pt x="124" y="448" on="0"/>
        <pt x="124" y="414" on="1"/>
        <pt x="124" y="382" on="0"/>
        <pt x="158" y="344" on="0"/>
      </contour>
    </TTGlyph>
    <TTGlyph name="f" xMin="-100" yMin="-223" xMax="431" yMax="722">
      <contour>
        <pt x="348" y="590" on="1"/>
        <pt x="343" y="609" on="0"/>
        <pt x="322" y="641" on="0"/>
        <pt x="298" y="641" on="1"/>
        <pt x="267" y="641" on="0"/>
        <pt x="232" y="604" on="0"/>
        <pt x="232" y="567" on="1"/>
        <pt x="232" y="553" on="0"/>
        <pt x="237" y="511" on="0"/>
        <pt x="243" y="490" on="1"/>
        <pt x="360" y="490" on="1"/>
        <pt x="347" y="409" on="1"/>
        <pt x="234" y="409" on="1"/>
        <pt x="159" y="25" on="1"/>
        <pt x="148" y="-30" on="0"/>
        <pt x="108" y="-105" on="0"/>
        <pt x="52" y="-160" on="0"/>
        <pt x="-19" y="-202" on="0"/>
        <pt x="-61" y="-223" on="1"/>
        <pt x="-100" y="-147" on="1"/>
        <pt x="-67" y="-132" on="0"/>
        <pt x="-18" y="-102" on="0"/>
        <pt x="18" y="-66" on="0"/>
        <pt x="42" y="-19" on="0"/>
        <pt x="48" y="13" on="1"/>
        <pt x="125" y="409" on="1"/>
        <pt x="38" y="409" on="1"/>
        <pt x="38" y="490" on="1"/>
        <pt x="149" y="490" on="1"/>
        <pt x="136" y="509" on="0"/>
        <pt x="127" y="556" on="0"/>
        <pt x="127" y="576" on="1"/>
        <pt x="127" y="612" on="0"/>
        <pt x="157" y="667" on="0"/>
        <pt x="207" y="704" on="0"/>
        <pt x="274" y="722" on="0"/>
        <pt x="311" y="722" on="1"/>
        <pt x="366" y="722" on="0"/>
        <pt x="419" y="668" on="0"/>
        <pt x="431" y="626" on="1"/>
      </contour>
    </TTGlyph>
    <TTGlyph name="five" xMin="-10" yMin="-6" xMax="466" yMax="626">
      <contour>
        <pt x="205" y="81" on="0"/>
        <pt x="252" y="94" on="0"/>
        <pt x="287" y="125" on="0"/>
        <pt x="307" y="177" on="0"/>
        <pt x="307" y="216" on="1"/>
        <pt x="307" y="258" on="0"/>
        <pt x="274" y="315" on="0"/>
        <pt x="231" y="315" on="1"/>
        <pt x="192" y="315" on="0"/>
        <pt x="136" y="298" on="0"/>
        <pt x="105" y="287" on="1"/>
        <pt x="66" y="322" on="1"/>
        <pt x="155" y="626" on="1"/>
        <pt x="466" y="626" on="1"/>
        <pt x="449" y="535" on="1"/>
        <pt x="234" y="535" on="1"/>
        <pt x="187" y="384" on="1"/>
        <pt x="196" y="389" on="0"/>
        <pt x="239" y="404" on="0"/>
        <pt x="263" y="404" on="1"/>
        <pt x="308" y="404" on="0"/>
        <pt x="371" y="371" on="0"/>
        <pt x="409" y="320" on="0"/>
        <pt x="426" y="257" on="0"/>
        <pt x="426" y="227" on="1"/>
        <pt x="426" y="112" on="0"/>
        <pt x="294" y="-6" on="0"/>
        <pt x="165" y="-6" on="1"/>
        <pt x="113" y="-6" on="0"/>
        <pt x="30" y="20" on="0"/>
        <pt x="-10" y="44" on="1"/>
        <pt x="32" y="129" on="1"/>
        <pt x="73" y="106" on="0"/>
        <pt x="136" y="81" on="0"/>
        <pt x="178" y="81" on="1"/>
      </contour>
    </TTGlyph>
    <TTGlyph name="four" xMin="16" yMin="0" xMax="487" yMax="634">
      <contour>
        <pt x="450" y="487" on="1"/>
        <pt x="406" y="262" on="1"/>
        <pt x="487" y="262" on="1"/>
        <pt x="470" y="175" on="1"/>
        <pt x="389" y="175" on="1"/>
        <pt x="355" y="0" on="1"/>
        <pt x="240" y="0" on="1"/>
        <pt x="273" y="175" on="1"/>
        <pt x="16" y="175" on="1"/>
        <pt x="16" y="240" on="1"/>
        <pt x="264" y="634" on="1"/>
        <pt x="377" y="634" on="1"/>
        <pt x="140" y="262" on="1"/>
        <pt x="290" y="262" on="1"/>
        <pt x="329" y="466" on="1"/>
      </contour>
    </TTGlyph>
    <TTGlyph name="fraction" xMin="-65" yMin="0" xMax="411" yMax="587">
      <contour>
        <pt x="-65" y="0" on="1"/>
        <pt x="35" y="0" on="1"/>
        <pt x="411" y="587" on="1"/>
        <pt x="310" y="587" on="1"/>
      </contour>
    </TTGlyph>
    <TTGlyph name="g" xMin="30" yMin="-222" xMax="492" yMax="498">
      <contour>
        <pt x="492" y="470" on="1"/>
        <pt x="487" y="446" on="0"/>
        <pt x="468" y="357" on="0"/>
        <pt x="450" y="259" on="0"/>
        <pt x="437" y="170" on="0"/>
        <pt x="437" y="146" on="1"/>
        <pt x="437" y="121" on="0"/>
        <pt x="442" y="78" on="0"/>
        <pt x="448" y="37" on="0"/>
        <pt x="453" y="-4" on="0"/>
        <pt x="453" y="-27" on="1"/>
        <pt x="453" y="-82" on="0"/>
        <pt x="423" y="-157" on="0"/>
        <pt x="368" y="-202" on="0"/>
        <pt x="289" y="-222" on="0"/>
        <pt x="241" y="-222" on="1"/>
        <pt x="212" y="-222" on="0"/>
        <pt x="154" y="-209" on="0"/>
        <pt x="100" y="-191" on="0"/>
        <pt x="53" y="-170" on="0"/>
        <pt x="36" y="-162" on="1"/>
        <pt x="75" y="-78" on="1"/>
        <pt x="94" y="-86" on="0"/>
        <pt x="138" y="-105" on="0"/>
        <pt x="184" y="-121" on="0"/>
        <pt x="232" y="-132" on="0"/>
        <pt x="255" y="-132" on="1"/>
        <pt x="302" y="-132" on="0"/>
        <pt x="354" y="-72" on="0"/>
        <pt x="354" y="-29" on="1"/>
        <pt x="354" y="-20" on="0"/>
        <pt x="353" y="1" on="0"/>
        <pt x="351" y="28" on="0"/>
        <pt x="350" y="64" on="0"/>
        <pt x="350" y="90" on="1"/>
        <pt x="350" y="106" on="0"/>
        <pt x="356" y="148" on="0"/>
        <pt x="358" y="171" on="1"/>
        <pt x="339" y="129" on="1"/>
        <pt x="322" y="90" on="0"/>
        <pt x="282" y="37" on="0"/>
        <pt x="238" y="5" on="0"/>
        <pt x="189" y="-8" on="0"/>
        <pt x="163" y="-8" on="1"/>
        <pt x="127" y="-8" on="0"/>
        <pt x="77" y="20" on="0"/>
        <pt x="45" y="67" on="0"/>
        <pt x="30" y="126" on="0"/>
        <pt x="30" y="157" on="1"/>
        <pt x="30" y="228" on="0"/>
        <pt x="67" y="352" on="0"/>
        <pt x="139" y="445" on="0"/>
        <pt x="243" y="498" on="0"/>
        <pt x="311" y="498" on="1"/>
        <pt x="346" y="498" on="0"/>
        <pt x="410" y="483" on="0"/>
        <pt x="434" y="474" on="1"/>
      </contour>
      <contour>
        <pt x="224" y="74" on="0"/>
        <pt x="276" y="131" on="0"/>
        <pt x="321" y="223" on="0"/>
        <pt x="357" y="337" on="0"/>
        <pt x="367" y="394" on="1"/>
        <pt x="370" y="411" on="1"/>
        <pt x="355" y="416" on="0"/>
        <pt x="324" y="421" on="0"/>
        <pt x="313" y="421" on="1"/>
        <pt x="268" y="421" on="0"/>
        <pt x="205" y="370" on="0"/>
        <pt x="166" y="291" on="0"/>
        <pt x="149" y="196" on="0"/>
        <pt x="149" y="153" on="1"/>
        <pt x="149" y="109" on="0"/>
        <pt x="174" y="74" on="0"/>
        <pt x="199" y="74" on="1"/>
      </contour>
    </TTGlyph>
    <TTGlyph name="germandbls" xMin="-130" yMin="-223" xMax="526" yMax="721">
      <contour>
        <pt x="107" y="479" on="1"/>
        <pt x="116" y="527" on="0"/>
        <pt x="155" y="615" on="0"/>
        <pt x="220" y="682" on="0"/>
        <pt x="314" y="721" on="0"/>
        <pt x="379" y="721" on="1"/>
        <pt x="457" y="721" on="0"/>
        <pt x="526" y="658" on="0"/>
        <pt x="526" y="611" on="1"/>
        <pt x="526" y="562" on="0"/>
        <pt x="479" y="500" on="0"/>
        <pt x="422" y="455" on="0"/>
        <pt x="375" y="416" on="0"/>
        <pt x="375" y="389" on="1"/>
        <pt x="375" y="363" on="0"/>
        <pt x="410" y="325" on="0"/>
        <pt x="451" y="285" on="0"/>
        <pt x="486" y="233" on="0"/>
        <pt x="486" y="193" on="1"/>
        <pt x="486" y="150" on="0"/>
        <pt x="455" y="77" on="0"/>
        <pt x="399" y="23" on="0"/>
        <pt x="321" y="-7" on="0"/>
        <pt x="274" y="-7" on="1"/>
        <pt x="241" y="-7" on="0"/>
        <pt x="186" y="12" on="0"/>
        <pt x="163" y="28" on="1"/>
        <pt x="203" y="105" on="1"/>
        <pt x="222" y="93" on="0"/>
        <pt x="268" y="79" on="0"/>
        <pt x="291" y="79" on="1"/>
        <pt x="331" y="79" on="0"/>
        <pt x="370" y="125" on="0"/>
        <pt x="370" y="160" on="1"/>
        <pt x="370" y="179" on="0"/>
        <pt x="355" y="208" on="0"/>
        <pt x="331" y="233" on="0"/>
        <pt x="305" y="258" on="0"/>
        <pt x="281" y="288" on="0"/>
        <pt x="266" y="327" on="0"/>
        <pt x="266" y="354" on="1"/>
        <pt x="266" y="403" on="0"/>
        <pt x="312" y="465" on="0"/>
        <pt x="368" y="512" on="0"/>
        <pt x="414" y="554" on="0"/>
        <pt x="414" y="584" on="1"/>
        <pt x="414" y="614" on="0"/>
        <pt x="373" y="639" on="0"/>
        <pt x="345" y="639" on="1"/>
        <pt x="316" y="639" on="0"/>
        <pt x="274" y="614" on="0"/>
        <pt x="244" y="572" on="0"/>
        <pt x="225" y="516" on="0"/>
        <pt x="219" y="486" on="1"/>
        <pt x="128" y="24" on="1"/>
        <pt x="117" y="-30" on="0"/>
        <pt x="78" y="-105" on="0"/>
        <pt x="21" y="-160" on="0"/>
        <pt x="-50" y="-202" on="0"/>
        <pt x="-92" y="-223" on="1"/>
        <pt x="-130" y="-147" on="1"/>
        <pt x="-97" y="-132" on="0"/>
        <pt x="-47" y="-102" on="0"/>
        <pt x="-11" y="-66" on="0"/>
        <pt x="12" y="-19" on="0"/>
        <pt x="18" y="13" on="1"/>
      </contour>
    </TTGlyph>
    <TTGlyph name="grave" xMin="132" yMin="536" xMax="348" yMax="770">
      <contour>
        <pt x="348" y="581" on="1"/>
        <pt x="321" y="607" on="0"/>
        <pt x="295" y="638" on="1"/>
        <pt x="273" y="664" on="0"/>
        <pt x="226" y="732" on="0"/>
        <pt x="209" y="770" on="1"/>
        <pt x="189" y="762" on="0"/>
        <pt x="161" y="742" on="0"/>
        <pt x="151" y="732" on="1"/>
        <pt x="140" y="721" on="0"/>
        <pt x="132" y="709" on="1"/>
        <pt x="148" y="672" on="0"/>
        <pt x="204" y="609" on="0"/>
        <pt x="232" y="586" on="1"/>
        <pt x="265" y="559" on="0"/>
        <pt x="300" y="536" on="1"/>
      </contour>
    </TTGlyph>
    <TTGlyph name="greater" xMin="25" yMin="91" xMax="421" yMax="501">
      <contour>
        <pt x="63" y="409" on="1"/>
        <pt x="237" y="317" on="1"/>
        <pt x="251" y="309" on="0"/>
        <pt x="281" y="295" on="0"/>
        <pt x="293" y="290" on="1"/>
        <pt x="279" y="285" on="0"/>
        <pt x="245" y="272" on="0"/>
        <pt x="229" y="265" on="1"/>
        <pt x="25" y="177" on="1"/>
        <pt x="58" y="91" on="1"/>
        <pt x="421" y="256" on="1"/>
        <pt x="421" y="333" on="1"/>
        <pt x="119" y="501" on="1"/>
      </contour>
    </TTGlyph>
    <TTGlyph name="guillemotleft" xMin="35" yMin="27" xMax="536" yMax="463">
      <contour>
        <pt x="271" y="74" on="1"/>
        <pt x="260" y="91" on="0"/>
        <pt x="233" y="135" on="0"/>
        <pt x="205" y="180" on="0"/>
        <pt x="178" y="225" on="0"/>
        <pt x="166" y="244" on="1"/>
        <pt x="324" y="405" on="1"/>
        <pt x="278" y="463" on="1"/>
        <pt x="278" y="463" on="0"/>
        <pt x="228" y="423" on="0"/>
        <pt x="154" y="359" on="0"/>
        <pt x="69" y="282" on="0"/>
        <pt x="35" y="245" on="1"/>
        <pt x="58" y="208" on="0"/>
        <pt x="118" y="131" on="0"/>
        <pt x="145" y="99" on="1"/>
        <pt x="177" y="62" on="0"/>
        <pt x="210" y="27" on="1"/>
      </contour>
      <contour>
        <pt x="483" y="74" on="1"/>
        <pt x="472" y="91" on="0"/>
        <pt x="445" y="135" on="0"/>
        <pt x="416" y="180" on="0"/>
        <pt x="389" y="225" on="0"/>
        <pt x="377" y="244" on="1"/>
        <pt x="536" y="405" on="1"/>
        <pt x="489" y="463" on="1"/>
        <pt x="489" y="463" on="0"/>
        <pt x="439" y="423" on="0"/>
        <pt x="365" y="359" on="0"/>
        <pt x="281" y="282" on="0"/>
        <pt x="248" y="245" on="1"/>
        <pt x="271" y="208" on="0"/>
        <pt x="330" y="131" on="0"/>
        <pt x="357" y="99" on="1"/>
        <pt x="389" y="62" on="0"/>
        <pt x="422" y="27" on="1"/>
      </contour>
    </TTGlyph>
    <TTGlyph name="guillemotright" xMin="36" yMin="27" xMax="536" yMax="463">
      <contour>
        <pt x="301" y="416" on="1"/>
        <pt x="311" y="398" on="0"/>
        <pt x="338" y="355" on="0"/>
        <pt x="366" y="309" on="0"/>
        <pt x="393" y="264" on="0"/>
        <pt x="405" y="245" on="1"/>
        <pt x="247" y="85" on="1"/>
        <pt x="294" y="27" on="1"/>
        <pt x="293" y="27" on="0"/>
        <pt x="343" y="67" on="0"/>
        <pt x="417" y="131" on="0"/>
        <pt x="502" y="208" on="0"/>
        <pt x="536" y="245" on="1"/>
        <pt x="513" y="282" on="0"/>
        <pt x="453" y="359" on="0"/>
        <pt x="426" y="391" on="1"/>
        <pt x="394" y="428" on="0"/>
        <pt x="361" y="463" on="1"/>
      </contour>
      <contour>
        <pt x="88" y="416" on="1"/>
        <pt x="99" y="398" on="0"/>
        <pt x="126" y="355" on="0"/>
        <pt x="154" y="309" on="0"/>
        <pt x="181" y="264" on="0"/>
        <pt x="193" y="245" on="1"/>
        <pt x="36" y="85" on="1"/>
        <pt x="82" y="27" on="1"/>
        <pt x="82" y="27" on="0"/>
        <pt x="132" y="67" on="0"/>
        <pt x="206" y="131" on="0"/>
        <pt x="290" y="208" on="0"/>
        <pt x="324" y="245" on="1"/>
        <pt x="301" y="282" on="0"/>
        <pt x="241" y="359" on="0"/>
        <pt x="214" y="391" on="1"/>
        <pt x="182" y="428" on="0"/>
        <pt x="149" y="463" on="1"/>
      </contour>
    </TTGlyph>
    <TTGlyph name="guilsinglleft" xMin="35" yMin="27" xMax="324" yMax="463">
      <contour>
        <pt x="271" y="74" on="1"/>
        <pt x="260" y="91" on="0"/>
        <pt x="233" y="135" on="0"/>
        <pt x="205" y="180" on="0"/>
        <pt x="178" y="225" on="0"/>
        <pt x="166" y="244" on="1"/>
        <pt x="324" y="405" on="1"/>
        <pt x="278" y="463" on="1"/>
        <pt x="278" y="463" on="0"/>
        <pt x="228" y="423" on="0"/>
        <pt x="154" y="359" on="0"/>
        <pt x="69" y="282" on="0"/>
        <pt x="35" y="245" on="1"/>
        <pt x="58" y="208" on="0"/>
        <pt x="118" y="131" on="0"/>
        <pt x="145" y="99" on="1"/>
        <pt x="177" y="62" on="0"/>
        <pt x="210" y="27" on="1"/>
      </contour>
    </TTGlyph>
    <TTGlyph name="guilsinglright" xMin="36" yMin="27" xMax="325" yMax="463">
      <contour>
        <pt x="89" y="416" on="1"/>
        <pt x="99" y="398" on="0"/>
        <pt x="126" y="355" on="0"/>
        <pt x="154" y="309" on="0"/>
        <pt x="181" y="264" on="0"/>
        <pt x="193" y="245" on="1"/>
        <pt x="36" y="85" on="1"/>
        <pt x="82" y="27" on="1"/>
        <pt x="82" y="27" on="0"/>
        <pt x="132" y="67" on="0"/>
        <pt x="206" y="131" on="0"/>
        <pt x="291" y="208" on="0"/>
        <pt x="325" y="245" on="1"/>
        <pt x="302" y="282" on="0"/>
        <pt x="241" y="359" on="0"/>
        <pt x="214" y="391" on="1"/>
        <pt x="181" y="428" on="0"/>
        <pt x="149" y="463" on="1"/>
      </contour>
    </TTGlyph>
    <TTGlyph name="h" xMin="25" yMin="0" xMax="501" yMax="725">
      <contour>
        <pt x="245" y="558" on="1"/>
        <pt x="239" y="528" on="0"/>
        <pt x="224" y="468" on="0"/>
        <pt x="207" y="416" on="0"/>
        <pt x="192" y="373" on="0"/>
        <pt x="188" y="361" on="1"/>
        <pt x="217" y="430" on="0"/>
        <pt x="314" y="498" on="0"/>
        <pt x="374" y="498" on="1"/>
        <pt x="440" y="498" on="0"/>
        <pt x="501" y="432" on="0"/>
        <pt x="501" y="376" on="1"/>
        <pt x="501" y="337" on="0"/>
        <pt x="481" y="261" on="0"/>
        <pt x="456" y="191" on="0"/>
        <pt x="436" y="126" on="0"/>
        <pt x="436" y="96" on="1"/>
        <pt x="436" y="76" on="0"/>
        <pt x="439" y="23" on="0"/>
        <pt x="444" y="0" on="1"/>
        <pt x="333" y="0" on="1"/>
        <pt x="330" y="17" on="0"/>
        <pt x="329" y="44" on="0"/>
        <pt x="329" y="60" on="1"/>
        <pt x="329" y="99" on="0"/>
        <pt x="347" y="175" on="0"/>
        <pt x="369" y="249" on="0"/>
        <pt x="387" y="318" on="0"/>
        <pt x="387" y="351" on="1"/>
        <pt x="387" y="375" on="0"/>
        <pt x="364" y="408" on="0"/>
        <pt x="333" y="408" on="1"/>
        <pt x="306" y="408" on="0"/>
        <pt x="254" y="361" on="0"/>
        <pt x="209" y="288" on="0"/>
        <pt x="176" y="200" on="0"/>
        <pt x="168" y="160" on="1"/>
        <pt x="137" y="0" on="1"/>
        <pt x="25" y="0" on="1"/>
        <pt x="163" y="705" on="1"/>
        <pt x="276" y="725" on="1"/>
      </contour>
    </TTGlyph>
    <TTGlyph name="hyphen" xMin="40" yMin="274" xMax="330" yMax="357">
      <contour>
        <pt x="57" y="357" on="1"/>
        <pt x="330" y="357" on="1"/>
        <pt x="314" y="274" on="1"/>
        <pt x="40" y="274" on="1"/>
      </contour>
    </TTGlyph>
    <TTGlyph name="i" xMin="35" yMin="-5" xMax="263" yMax="721">
      <contour>
        <pt x="233" y="721" on="0"/>
        <pt x="263" y="686" on="0"/>
        <pt x="263" y="656" on="1"/>
        <pt x="263" y="627" on="0"/>
        <pt x="223" y="582" on="0"/>
        <pt x="189" y="582" on="1"/>
        <pt x="157" y="582" on="0"/>
        <pt x="127" y="618" on="0"/>
        <pt x="127" y="645" on="1"/>
        <pt x="127" y="676" on="0"/>
        <pt x="166" y="721" on="0"/>
        <pt x="201" y="721" on="1"/>
      </contour>
      <contour>
        <pt x="83" y="-5" on="0"/>
        <pt x="35" y="41" on="0"/>
        <pt x="35" y="79" on="1"/>
        <pt x="35" y="93" on="0"/>
        <pt x="38" y="108" on="1"/>
        <pt x="114" y="490" on="1"/>
        <pt x="224" y="490" on="1"/>
        <pt x="152" y="118" on="1"/>
        <pt x="151" y="113" on="0"/>
        <pt x="150" y="106" on="0"/>
        <pt x="150" y="102" on="1"/>
        <pt x="150" y="77" on="0"/>
        <pt x="167" y="77" on="1"/>
        <pt x="184" y="77" on="0"/>
        <pt x="216" y="84" on="0"/>
        <pt x="218" y="85" on="1"/>
        <pt x="218" y="13" on="1"/>
        <pt x="207" y="8" on="0"/>
        <pt x="193" y="4" on="1"/>
        <pt x="181" y="0" on="0"/>
        <pt x="148" y="-5" on="0"/>
        <pt x="128" y="-5" on="1"/>
      </contour>
    </TTGlyph>
    <TTGlyph name="iacute" xMin="35" yMin="-5" xMax="335" yMax="770">
      <contour>
        <pt x="128" y="-5" on="1"/>
        <pt x="148" y="-5" on="0"/>
        <pt x="181" y="0" on="0"/>
        <pt x="193" y="4" on="1"/>
        <pt x="207" y="8" on="0"/>
        <pt x="218" y="13" on="1"/>
        <pt x="218" y="85" on="1"/>
        <pt x="210" y="83" on="0"/>
        <pt x="201" y="81" on="1"/>
        <pt x="193" y="79" on="0"/>
        <pt x="175" y="77" on="0"/>
        <pt x="167" y="77" on="1"/>
        <pt x="150" y="77" on="0"/>
        <pt x="150" y="102" on="1"/>
        <pt x="150" y="106" on="0"/>
        <pt x="151" y="113" on="0"/>
        <pt x="152" y="118" on="1"/>
        <pt x="224" y="490" on="1"/>
        <pt x="114" y="490" on="1"/>
        <pt x="38" y="108" on="1"/>
        <pt x="35" y="93" on="0"/>
        <pt x="35" y="79" on="1"/>
        <pt x="35" y="41" on="0"/>
        <pt x="83" y="-5" on="0"/>
      </contour>
      <contour>
        <pt x="175" y="535" on="1"/>
        <pt x="202" y="569" on="0"/>
        <pt x="230" y="602" on="1"/>
        <pt x="254" y="630" on="0"/>
        <pt x="310" y="688" on="0"/>
        <pt x="335" y="708" on="1"/>
        <pt x="327" y="725" on="0"/>
        <pt x="304" y="747" on="0"/>
        <pt x="293" y="755" on="1"/>
        <pt x="280" y="764" on="0"/>
        <pt x="266" y="770" on="1"/>
        <pt x="234" y="744" on="0"/>
        <pt x="181" y="677" on="0"/>
        <pt x="162" y="646" on="1"/>
        <pt x="140" y="610" on="0"/>
        <pt x="122" y="572" on="1"/>
      </contour>
    </TTGlyph>
    <TTGlyph name="icircumflex" xMin="35" yMin="-5" xMax="315" yMax="762">
      <contour>
        <pt x="128" y="-5" on="1"/>
        <pt x="148" y="-5" on="0"/>
        <pt x="181" y="0" on="0"/>
        <pt x="193" y="4" on="1"/>
        <pt x="207" y="8" on="0"/>
        <pt x="218" y="13" on="1"/>
        <pt x="218" y="85" on="1"/>
        <pt x="210" y="83" on="0"/>
        <pt x="201" y="81" on="1"/>
        <pt x="193" y="79" on="0"/>
        <pt x="175" y="77" on="0"/>
        <pt x="167" y="77" on="1"/>
        <pt x="150" y="77" on="0"/>
        <pt x="150" y="102" on="1"/>
        <pt x="150" y="106" on="0"/>
        <pt x="151" y="113" on="0"/>
        <pt x="152" y="118" on="1"/>
        <pt x="224" y="490" on="1"/>
        <pt x="114" y="490" on="1"/>
        <pt x="38" y="108" on="1"/>
        <pt x="35" y="93" on="0"/>
        <pt x="35" y="79" on="1"/>
        <pt x="35" y="41" on="0"/>
        <pt x="83" y="-5" on="0"/>
      </contour>
      <contour>
        <pt x="88" y="527" on="1"/>
        <pt x="105" y="540" on="0"/>
        <pt x="123" y="554" on="1"/>
        <pt x="138" y="566" on="0"/>
        <pt x="175" y="598" on="0"/>
        <pt x="194" y="615" on="1"/>
        <pt x="207" y="596" on="0"/>
        <pt x="232" y="564" on="0"/>
        <pt x="242" y="553" on="1"/>
        <pt x="253" y="539" on="0"/>
        <pt x="263" y="528" on="1"/>
        <pt x="315" y="563" on="1"/>
        <pt x="303" y="594" on="0"/>
        <pt x="288" y="627" on="1"/>
        <pt x="275" y="656" on="0"/>
        <pt x="242" y="726" on="0"/>
        <pt x="222" y="762" on="1"/>
        <pt x="191" y="735" on="0"/>
        <pt x="128" y="667" on="0"/>
        <pt x="102" y="637" on="1"/>
        <pt x="71" y="602" on="0"/>
        <pt x="42" y="567" on="1"/>
      </contour>
    </TTGlyph>
    <TTGlyph name="idieresis" xMin="35" yMin="-5" xMax="340" yMax="701">
      <contour>
        <pt x="128" y="-5" on="1"/>
        <pt x="148" y="-5" on="0"/>
        <pt x="181" y="0" on="0"/>
        <pt x="193" y="4" on="1"/>
        <pt x="207" y="8" on="0"/>
        <pt x="218" y="13" on="1"/>
        <pt x="218" y="85" on="1"/>
        <pt x="210" y="83" on="0"/>
        <pt x="201" y="81" on="1"/>
        <pt x="193" y="79" on="0"/>
        <pt x="175" y="77" on="0"/>
        <pt x="167" y="77" on="1"/>
        <pt x="150" y="77" on="0"/>
        <pt x="150" y="102" on="1"/>
        <pt x="150" y="106" on="0"/>
        <pt x="151" y="113" on="0"/>
        <pt x="152" y="118" on="1"/>
        <pt x="224" y="490" on="1"/>
        <pt x="114" y="490" on="1"/>
        <pt x="38" y="108" on="1"/>
        <pt x="35" y="93" on="0"/>
        <pt x="35" y="79" on="1"/>
        <pt x="35" y="41" on="0"/>
        <pt x="83" y="-5" on="0"/>
      </contour>
      <contour>
        <pt x="121" y="701" on="1"/>
        <pt x="92" y="701" on="0"/>
        <pt x="61" y="663" on="0"/>
        <pt x="61" y="640" on="1"/>
        <pt x="61" y="615" on="0"/>
        <pt x="85" y="585" on="0"/>
        <pt x="113" y="585" on="1"/>
        <pt x="142" y="585" on="0"/>
        <pt x="175" y="623" on="0"/>
        <pt x="175" y="647" on="1"/>
        <pt x="175" y="673" on="0"/>
        <pt x="149" y="701" on="0"/>
      </contour>
      <contour>
        <pt x="286" y="701" on="1"/>
        <pt x="258" y="701" on="0"/>
        <pt x="225" y="663" on="0"/>
        <pt x="225" y="640" on="1"/>
        <pt x="225" y="615" on="0"/>
        <pt x="251" y="585" on="0"/>
        <pt x="279" y="585" on="1"/>
        <pt x="306" y="585" on="0"/>
        <pt x="340" y="623" on="0"/>
        <pt x="340" y="647" on="1"/>
        <pt x="340" y="673" on="0"/>
        <pt x="314" y="701" on="0"/>
      </contour>
    </TTGlyph>
    <TTGlyph name="igrave" xMin="35" yMin="-5" xMax="224" yMax="770">
      <contour>
        <pt x="128" y="-5" on="1"/>
        <pt x="148" y="-5" on="0"/>
        <pt x="181" y="0" on="0"/>
        <pt x="193" y="4" on="1"/>
        <pt x="207" y="8" on="0"/>
        <pt x="218" y="13" on="1"/>
        <pt x="218" y="85" on="1"/>
        <pt x="210" y="83" on="0"/>
        <pt x="201" y="81" on="1"/>
        <pt x="193" y="79" on="0"/>
        <pt x="175" y="77" on="0"/>
        <pt x="167" y="77" on="1"/>
        <pt x="150" y="77" on="0"/>
        <pt x="150" y="102" on="1"/>
        <pt x="150" y="106" on="0"/>
        <pt x="151" y="113" on="0"/>
        <pt x="152" y="118" on="1"/>
        <pt x="224" y="490" on="1"/>
        <pt x="114" y="490" on="1"/>
        <pt x="38" y="108" on="1"/>
        <pt x="35" y="93" on="0"/>
        <pt x="35" y="79" on="1"/>
        <pt x="35" y="41" on="0"/>
        <pt x="83" y="-5" on="0"/>
      </contour>
      <contour>
        <pt x="222" y="572" on="1"/>
        <pt x="208" y="601" on="0"/>
        <pt x="192" y="634" on="1"/>
        <pt x="178" y="662" on="0"/>
        <pt x="146" y="732" on="0"/>
        <pt x="129" y="770" on="1"/>
        <pt x="109" y="762" on="0"/>
        <pt x="80" y="745" on="0"/>
        <pt x="69" y="737" on="1"/>
        <pt x="57" y="728" on="0"/>
        <pt x="47" y="720" on="1"/>
        <pt x="63" y="683" on="0"/>
        <pt x="106" y="617" on="0"/>
        <pt x="125" y="591" on="1"/>
        <pt x="147" y="561" on="0"/>
        <pt x="170" y="536" on="1"/>
      </contour>
    </TTGlyph>
    <TTGlyph name="j" xMin="-130" yMin="-223" xMax="264" yMax="721">
      <contour>
        <pt x="221" y="490" on="1"/>
        <pt x="129" y="25" on="1"/>
        <pt x="118" y="-29" on="0"/>
        <pt x="78" y="-105" on="0"/>
        <pt x="22" y="-160" on="0"/>
        <pt x="-49" y="-202" on="0"/>
        <pt x="-91" y="-223" on="1"/>
        <pt x="-130" y="-147" on="1"/>
        <pt x="-97" y="-132" on="0"/>
        <pt x="-48" y="-102" on="0"/>
        <pt x="-12" y="-66" on="0"/>
        <pt x="12" y="-19" on="0"/>
        <pt x="18" y="13" on="1"/>
        <pt x="112" y="490" on="1"/>
      </contour>
      <contour>
        <pt x="234" y="721" on="0"/>
        <pt x="264" y="686" on="0"/>
        <pt x="264" y="656" on="1"/>
        <pt x="264" y="627" on="0"/>
        <pt x="225" y="582" on="0"/>
        <pt x="190" y="582" on="1"/>
        <pt x="158" y="582" on="0"/>
        <pt x="129" y="618" on="0"/>
        <pt x="129" y="645" on="1"/>
        <pt x="129" y="676" on="0"/>
        <pt x="167" y="721" on="0"/>
        <pt x="202" y="721" on="1"/>
      </contour>
    </TTGlyph>
    <TTGlyph name="k" xMin="25" yMin="-103" xMax="514" yMax="725">
      <contour>
        <pt x="137" y="0" on="1"/>
        <pt x="25" y="0" on="1"/>
        <pt x="163" y="705" on="1"/>
        <pt x="276" y="725" on="1"/>
        <pt x="245" y="557" on="1"/>
        <pt x="239" y="525" on="0"/>
        <pt x="210" y="433" on="0"/>
        <pt x="199" y="392" on="1"/>
        <pt x="238" y="455" on="0"/>
        <pt x="324" y="498" on="0"/>
        <pt x="366" y="498" on="1"/>
        <pt x="424" y="498" on="0"/>
        <pt x="500" y="442" on="0"/>
        <pt x="500" y="383" on="1"/>
        <pt x="500" y="338" on="0"/>
        <pt x="455" y="273" on="0"/>
        <pt x="428" y="253" on="1"/>
        <pt x="396" y="229" on="0"/>
        <pt x="357" y="214" on="1"/>
        <pt x="370" y="173" on="0"/>
        <pt x="401" y="104" on="0"/>
        <pt x="440" y="40" on="0"/>
        <pt x="486" y="-21" on="0"/>
        <pt x="514" y="-53" on="1"/>
        <pt x="425" y="-103" on="1"/>
        <pt x="347" y="-31" on="0"/>
        <pt x="256" y="146" on="0"/>
        <pt x="232" y="240" on="1"/>
        <pt x="233" y="250" on="1"/>
        <pt x="241" y="252" on="0"/>
        <pt x="290" y="268" on="0"/>
        <pt x="342" y="296" on="0"/>
        <pt x="383" y="337" on="0"/>
        <pt x="383" y="364" on="1"/>
        <pt x="383" y="390" on="0"/>
        <pt x="361" y="417" on="0"/>
        <pt x="333" y="417" on="1"/>
        <pt x="298" y="417" on="0"/>
        <pt x="243" y="362" on="0"/>
        <pt x="201" y="281" on="0"/>
        <pt x="174" y="191" on="0"/>
        <pt x="167" y="156" on="1"/>
      </contour>
    </TTGlyph>
    <TTGlyph name="l" xMin="30" yMin="-5" xMax="263" yMax="725">
      <contour>
        <pt x="228" y="13" on="1"/>
        <pt x="215" y="8" on="0"/>
        <pt x="199" y="4" on="1"/>
        <pt x="185" y="0" on="0"/>
        <pt x="146" y="-5" on="0"/>
        <pt x="123" y="-5" on="1"/>
        <pt x="76" y="-5" on="0"/>
        <pt x="30" y="41" on="0"/>
        <pt x="30" y="79" on="1"/>
        <pt x="30" y="93" on="0"/>
        <pt x="33" y="107" on="1"/>
        <pt x="150" y="705" on="1"/>
        <pt x="263" y="725" on="1"/>
        <pt x="147" y="118" on="1"/>
        <pt x="146" y="113" on="0"/>
        <pt x="145" y="106" on="0"/>
        <pt x="145" y="102" on="1"/>
        <pt x="145" y="77" on="0"/>
        <pt x="172" y="77" on="1"/>
        <pt x="193" y="77" on="0"/>
        <pt x="226" y="84" on="0"/>
        <pt x="228" y="85" on="1"/>
      </contour>
    </TTGlyph>
    <TTGlyph name="less" xMin="25" yMin="91" xMax="421" yMax="501">
      <contour>
        <pt x="383" y="183" on="1"/>
        <pt x="210" y="274" on="1"/>
        <pt x="196" y="282" on="0"/>
        <pt x="166" y="296" on="0"/>
        <pt x="154" y="301" on="1"/>
        <pt x="168" y="306" on="0"/>
        <pt x="202" y="319" on="0"/>
        <pt x="218" y="326" on="1"/>
        <pt x="421" y="414" on="1"/>
        <pt x="389" y="501" on="1"/>
        <pt x="25" y="335" on="1"/>
        <pt x="25" y="258" on="1"/>
        <pt x="328" y="91" on="1"/>
      </contour>
    </TTGlyph>
    <TTGlyph name="logicalnot" xMin="50" yMin="182" xMax="464" yMax="395">
      <contour>
        <pt x="50" y="308" on="1"/>
        <pt x="365" y="308" on="1"/>
        <pt x="342" y="182" on="1"/>
        <pt x="425" y="182" on="1"/>
        <pt x="464" y="395" on="1"/>
        <pt x="67" y="395" on="1"/>
      </contour>
    </TTGlyph>
</ttFont>
